<?xml version="1.0" encoding="UTF-8" standalone="no"?><svg xmlns="http://www.w3.org/2000/svg" xmlns:xlink="http://www.w3.org/1999/xlink" contentScriptType="application/ecmascript" contentStyleType="text/css" height="482px" preserveAspectRatio="none" style="width:584px;height:482px;" version="1.1" viewBox="0 0 584 482" width="584px" zoomAndPan="magnify"><defs><filter height="300%" id="fedghby" width="300%" x="-1" y="-1"><feGaussianBlur result="blurOut" stdDeviation="2.0"/><feColorMatrix in="blurOut" result="blurOut2" type="matrix" values="0 0 0 0 0 0 0 0 0 0 0 0 0 0 0 0 0 0 .4 0"/><feOffset dx="4.0" dy="4.0" in="blurOut2" result="blurOut3"/><feBlend in="SourceGraphic" in2="blurOut3" mode="normal"/></filter></defs><g><!--class Component--><rect fill="#FEFECE" filter="url(#fedghby)" height="60.9551" style="stroke: #A80036; stroke-width: 1.5;" width="116" x="282.25" y="130.5"/><ellipse cx="305.35" cy="146.5" fill="#B4A7E5" rx="11" ry="11" style="stroke: #A80036; stroke-width: 1.0;"/><path d="M301.2777,142.2651 L301.2777,140.1069 L308.6571,140.1069 L308.6571,142.2651 L306.1918,142.2651 L306.1918,150.3418 L308.6571,150.3418 L308.6571,152.5 L301.2777,152.5 L301.2777,150.3418 L303.7431,150.3418 L303.7431,142.2651 Z "/><text fill="#000000" font-family="sans-serif" font-size="12" font-style="italic" lengthAdjust="spacingAndGlyphs" textLength="66" x="321.15" y="151.0352">Component</text><line style="stroke: #A80036; stroke-width: 1.5;" x1="283.25" x2="397.25" y1="162.5" y2="162.5"/><line style="stroke: #A80036; stroke-width: 1.5;" x1="283.25" x2="397.25" y1="170.5" y2="170.5"/><text fill="#000000" font-family="sans-serif" font-size="11" lengthAdjust="spacingAndGlyphs" textLength="104" x="288.25" y="185.1348">+operation():String</text><!--class ConcreteComponent--><rect fill="#FEFECE" filter="url(#fedghby)" height="60.9551" style="stroke: #A80036; stroke-width: 1.5;" width="149" x="6" y="258.5"/><ellipse cx="21" cy="274.5" fill="#ADD1B2" rx="11" ry="11" style="stroke: #A80036; stroke-width: 1.0;"/><path d="M23.9731,280.1431 Q23.3921,280.4419 22.7529,280.5913 Q22.1138,280.7407 21.4082,280.7407 Q18.9014,280.7407 17.5815,279.0889 Q16.2617,277.437 16.2617,274.3159 Q16.2617,271.1865 17.5815,269.5347 Q18.9014,267.8828 21.4082,267.8828 Q22.1138,267.8828 22.7612,268.0322 Q23.4087,268.1816 23.9731,268.4805 L23.9731,271.2031 Q23.3423,270.6221 22.7488,270.3523 Q22.1553,270.0825 21.5244,270.0825 Q20.1797,270.0825 19.4949,271.1492 Q18.8101,272.2158 18.8101,274.3159 Q18.8101,276.4077 19.4949,277.4744 Q20.1797,278.541 21.5244,278.541 Q22.1553,278.541 22.7488,278.2712 Q23.3423,278.0015 23.9731,277.4204 Z "/><text fill="#000000" font-family="sans-serif" font-size="12" lengthAdjust="spacingAndGlyphs" textLength="117" x="35" y="279.0352">ConcreteComponent</text><line style="stroke: #A80036; stroke-width: 1.5;" x1="7" x2="154" y1="290.5" y2="290.5"/><line style="stroke: #A80036; stroke-width: 1.5;" x1="7" x2="154" y1="298.5" y2="298.5"/><text fill="#000000" font-family="sans-serif" font-size="11" lengthAdjust="spacingAndGlyphs" textLength="104" x="12" y="313.1348">+operation():String</text><!--class ConcreteDecoratorA--><rect fill="#FEFECE" filter="url(#fedghby)" height="86.8652" style="stroke: #A80036; stroke-width: 1.5;" width="215" x="108" y="386.5"/><ellipse cx="153.25" cy="402.5" fill="#ADD1B2" rx="11" ry="11" style="stroke: #A80036; stroke-width: 1.0;"/><path d="M156.2231,408.1431 Q155.6421,408.4419 155.0029,408.5913 Q154.3638,408.7407 153.6582,408.7407 Q151.1514,408.7407 149.8315,407.0889 Q148.5117,405.437 148.5117,402.3159 Q148.5117,399.1865 149.8315,397.5347 Q151.1514,395.8828 153.6582,395.8828 Q154.3638,395.8828 155.0112,396.0322 Q155.6587,396.1816 156.2231,396.4805 L156.2231,399.2031 Q155.5923,398.6221 154.9988,398.3523 Q154.4053,398.0825 153.7744,398.0825 Q152.4297,398.0825 151.7449,399.1492 Q151.0601,400.2158 151.0601,402.3159 Q151.0601,404.4077 151.7449,405.4744 Q152.4297,406.541 153.7744,406.541 Q154.4053,406.541 154.9988,406.2712 Q155.5923,406.0015 156.2231,405.4204 Z "/><text fill="#000000" font-family="sans-serif" font-size="12" lengthAdjust="spacingAndGlyphs" textLength="116" x="173.75" y="407.0352">ConcreteDecoratorA</text><line style="stroke: #A80036; stroke-width: 1.5;" x1="109" x2="322" y1="418.5" y2="418.5"/><text fill="#000000" font-family="sans-serif" font-size="11" lengthAdjust="spacingAndGlyphs" textLength="106" x="114" y="433.1348">-addedState : String</text><line style="stroke: #A80036; stroke-width: 1.5;" x1="109" x2="322" y1="439.4551" y2="439.4551"/><text fill="#000000" font-family="sans-serif" font-size="11" lengthAdjust="spacingAndGlyphs" textLength="104" x="114" y="454.0898">+operation():String</text><text fill="#000000" font-family="sans-serif" font-size="11" lengthAdjust="spacingAndGlyphs" textLength="203" x="114" y="467.0449">+ConcreteDecoratorA(c:Component )</text><!--class Decorator--><rect fill="#FEFECE" filter="url(#fedghby)" height="73.9102" style="stroke: #A80036; stroke-width: 1.5;" width="158" x="261.25" y="252"/><ellipse cx="307.5" cy="268" fill="#ADD1B2" rx="11" ry="11" style="stroke: #A80036; stroke-width: 1.0;"/><path d="M310.4731,273.6431 Q309.8921,273.9419 309.2529,274.0913 Q308.6138,274.2407 307.9082,274.2407 Q305.4014,274.2407 304.0815,272.5889 Q302.7617,270.937 302.7617,267.8159 Q302.7617,264.6865 304.0815,263.0347 Q305.4014,261.3828 307.9082,261.3828 Q308.6138,261.3828 309.2612,261.5322 Q309.9087,261.6816 310.4731,261.9805 L310.4731,264.7031 Q309.8423,264.1221 309.2488,263.8523 Q308.6553,263.5825 308.0244,263.5825 Q306.6797,263.5825 305.9949,264.6492 Q305.3101,265.7158 305.3101,267.8159 Q305.3101,269.9077 305.9949,270.9744 Q306.6797,272.041 308.0244,272.041 Q308.6553,272.041 309.2488,271.7712 Q309.8423,271.5015 310.4731,270.9204 Z "/><text fill="#000000" font-family="sans-serif" font-size="12" lengthAdjust="spacingAndGlyphs" textLength="57" x="328" y="272.5352">Decorator</text><line style="stroke: #A80036; stroke-width: 1.5;" x1="262.25" x2="418.25" y1="284" y2="284"/><line style="stroke: #A80036; stroke-width: 1.5;" x1="262.25" x2="418.25" y1="292" y2="292"/><text fill="#000000" font-family="sans-serif" font-size="11" lengthAdjust="spacingAndGlyphs" textLength="104" x="267.25" y="306.6348">+operation():String</text><text fill="#000000" font-family="sans-serif" font-size="11" lengthAdjust="spacingAndGlyphs" textLength="146" x="267.25" y="319.5898">+Decorator(c:Component )</text><!--class ConcreteDecoratorB--><rect fill="#FEFECE" filter="url(#fedghby)" height="86.8652" style="stroke: #A80036; stroke-width: 1.5;" width="213" x="362" y="386.5"/><ellipse cx="406.75" cy="402.5" fill="#ADD1B2" rx="11" ry="11" style="stroke: #A80036; stroke-width: 1.0;"/><path d="M409.7231,408.1431 Q409.1421,408.4419 408.5029,408.5913 Q407.8638,408.7407 407.1582,408.7407 Q404.6514,408.7407 403.3315,407.0889 Q402.0117,405.437 402.0117,402.3159 Q402.0117,399.1865 403.3315,397.5347 Q404.6514,395.8828 407.1582,395.8828 Q407.8638,395.8828 408.5112,396.0322 Q409.1587,396.1816 409.7231,396.4805 L409.7231,399.2031 Q409.0923,398.6221 408.4988,398.3523 Q407.9053,398.0825 407.2744,398.0825 Q405.9297,398.0825 405.2449,399.1492 Q404.5601,400.2158 404.5601,402.3159 Q404.5601,404.4077 405.2449,405.4744 Q405.9297,406.541 407.2744,406.541 Q407.9053,406.541 408.4988,406.2712 Q409.0923,406.0015 409.7231,405.4204 Z "/><text fill="#000000" font-family="sans-serif" font-size="12" lengthAdjust="spacingAndGlyphs" textLength="115" x="427.25" y="407.0352">ConcreteDecoratorB</text><line style="stroke: #A80036; stroke-width: 1.5;" x1="363" x2="574" y1="418.5" y2="418.5"/><text fill="#000000" font-family="sans-serif" font-size="11" lengthAdjust="spacingAndGlyphs" textLength="106" x="368" y="433.1348">-addedState : String</text><line style="stroke: #A80036; stroke-width: 1.5;" x1="363" x2="574" y1="439.4551" y2="439.4551"/><text fill="#000000" font-family="sans-serif" font-size="11" lengthAdjust="spacingAndGlyphs" textLength="104" x="368" y="454.0898">+operation():String</text><text fill="#000000" font-family="sans-serif" font-size="11" lengthAdjust="spacingAndGlyphs" textLength="201" x="368" y="467.0449">+ConcreteDecoratorB(c:Component )</text><!--class Tester--><rect fill="#FEFECE" filter="url(#fedghby)" height="60.9551" style="stroke: #A80036; stroke-width: 1.5;" width="148" x="266.25" y="8.5"/><ellipse cx="317.5" cy="24.5" fill="#ADD1B2" rx="11" ry="11" style="stroke: #A80036; stroke-width: 1.0;"/><path d="M320.4731,30.1431 Q319.8921,30.4419 319.2529,30.5913 Q318.6138,30.7407 317.9082,30.7407 Q315.4014,30.7407 314.0815,29.0889 Q312.7617,27.437 312.7617,24.3159 Q312.7617,21.1865 314.0815,19.5347 Q315.4014,17.8828 317.9082,17.8828 Q318.6138,17.8828 319.2612,18.0322 Q319.9087,18.1816 320.4731,18.4805 L320.4731,21.2031 Q319.8423,20.6221 319.2488,20.3523 Q318.6553,20.0825 318.0244,20.0825 Q316.6797,20.0825 315.9949,21.1492 Q315.3101,22.2158 315.3101,24.3159 Q315.3101,26.4077 315.9949,27.4744 Q316.6797,28.541 318.0244,28.541 Q318.6553,28.541 319.2488,28.2712 Q319.8423,28.0015 320.4731,27.4204 Z "/><text fill="#000000" font-family="sans-serif" font-size="12" lengthAdjust="spacingAndGlyphs" textLength="37" x="338" y="29.0352">Tester</text><line style="stroke: #A80036; stroke-width: 1.5;" x1="267.25" x2="413.25" y1="40.5" y2="40.5"/><line style="stroke: #A80036; stroke-width: 1.5;" x1="267.25" x2="413.25" y1="48.5" y2="48.5"/><text fill="#000000" font-family="sans-serif" font-size="11" lengthAdjust="spacingAndGlyphs" text-decoration="underline" textLength="136" x="272.25" y="63.1348">+main(args:String[]):void</text><line style="stroke: #000000; stroke-width: 1.0;" x1="272.25" x2="408.25" y1="65.1348" y2="65.1348"/><path d="M264.026,198.939 C224.923,217.889 177.938,240.659 141.265,258.431 " fill="none" style="stroke: #A80036; stroke-width: 1.0; stroke-dasharray: 7.0,7.0;"/><polygon fill="none" points="261.174,192.543,282.225,190.12,267.279,205.141,261.174,192.543" style="stroke: #A80036; stroke-width: 1.0;"/><path d="M294.301,341.096 C280.923,355.972 266.454,372.061 253.598,386.3574 " fill="none" style="stroke: #A80036; stroke-width: 1.0;"/><polygon fill="none" points="289.156,336.348,307.734,326.158,299.566,345.71,289.156,336.348" style="stroke: #A80036; stroke-width: 1.0;"/><path d="M387.302,341.096 C401.001,355.972 415.817,372.061 428.982,386.3574 " fill="none" style="stroke: #A80036; stroke-width: 1.0;"/><polygon fill="none" points="381.945,345.612,373.546,326.158,392.244,336.128,381.945,345.612" style="stroke: #A80036; stroke-width: 1.0;"/><path d="M314.535,211.597 C313.446,225.046 314.019,239.349 316.254,251.899 " fill="none" style="stroke: #A80036; stroke-width: 1.0; stroke-dasharray: 7.0,7.0;"/><polygon fill="none" points="307.66,210.247,317.615,191.541,321.498,212.372,307.66,210.247" style="stroke: #A80036; stroke-width: 1.0;"/><path d="M340.25,251.899 C340.25,232.775 340.25,209.58 340.25,191.541 " fill="none" style="stroke: #A80036; stroke-width: 1.0;"/><path d="M364.246,251.899 C367.332,234.568 367.249,213.894 363.996,196.743 " fill="none" style="stroke: #A80036; stroke-width: 1.0; stroke-dasharray: 7.0,7.0;"/><polygon fill="#A80036" points="362.885,191.541,360.8555,201.1785,363.9306,196.4305,368.6786,199.5055,362.885,191.541" style="stroke: #A80036; stroke-width: 1.0;"/><path d="M214.324,386.4962 C215.227,349.022 220.854,294.003 243.25,252 C255.007,229.951 274.285,210.39 292.57,195.185 " fill="none" style="stroke: #A80036; stroke-width: 1.0; stroke-dasharray: 7.0,7.0;"/><polygon fill="#A80036" points="296.698,191.81,287.1981,194.4085,292.8266,194.9742,292.2609,200.6027,296.698,191.81" style="stroke: #A80036; stroke-width: 1.0;"/><path d="M467.966,386.4799 C466.053,348.995 459.083,293.969 436.25,252 C424.273,229.985 404.932,210.311 386.738,195.014 " fill="none" style="stroke: #A80036; stroke-width: 1.0; stroke-dasharray: 7.0,7.0;"/><polygon fill="#A80036" points="382.633,191.619,387.0202,200.4368,386.4864,194.8051,392.118,194.2714,382.633,191.619" style="stroke: #A80036; stroke-width: 1.0;"/><path d="M340.25,69.663 C340.25,86.394 340.25,107.396 340.25,124.938 " fill="none" style="stroke: #A80036; stroke-width: 1.0; stroke-dasharray: 7.0,7.0;"/><polygon fill="#A80036" points="340.25,130.262,344.25,121.262,340.25,125.262,336.25,121.262,340.25,130.262" style="stroke: #A80036; stroke-width: 1.0;"/></g></svg>