<?xml version="1.0" encoding="UTF-8" standalone="no"?><svg xmlns="http://www.w3.org/2000/svg" xmlns:xlink="http://www.w3.org/1999/xlink" contentScriptType="application/ecmascript" contentStyleType="text/css" height="199px" preserveAspectRatio="none" style="width:206px;height:199px;" version="1.1" viewBox="0 0 206 199" width="206px" zoomAndPan="magnify"><defs><filter height="300%" id="fie6dgg" width="300%" x="-1" y="-1"><feGaussianBlur result="blurOut" stdDeviation="2.0"/><feColorMatrix in="blurOut" result="blurOut2" type="matrix" values="0 0 0 0 0 0 0 0 0 0 0 0 0 0 0 0 0 0 .4 0"/><feOffset dx="4.0" dy="4.0" in="blurOut2" result="blurOut3"/><feBlend in="SourceGraphic" in2="blurOut3" mode="normal"/></filter></defs><g><!--class A--><rect fill="#FEFECE" filter="url(#fie6dgg)" height="73.9102" style="stroke: #A80036; stroke-width: 1.5;" width="55" x="73" y="8"/><ellipse cx="94.75" cy="24" fill="#ADD1B2" rx="11" ry="11" style="stroke: #A80036; stroke-width: 1.0;"/><path d="M97.7231,29.6431 Q97.1421,29.9419 96.5029,30.0913 Q95.8638,30.2407 95.1582,30.2407 Q92.6514,30.2407 91.3315,28.5889 Q90.0117,26.937 90.0117,23.8159 Q90.0117,20.6865 91.3315,19.0347 Q92.6514,17.3828 95.1582,17.3828 Q95.8638,17.3828 96.5112,17.5322 Q97.1587,17.6816 97.7231,17.9805 L97.7231,20.7031 Q97.0923,20.1221 96.4988,19.8523 Q95.9053,19.5825 95.2744,19.5825 Q93.9297,19.5825 93.2449,20.6492 Q92.5601,21.7158 92.5601,23.8159 Q92.5601,25.9077 93.2449,26.9744 Q93.9297,28.041 95.2744,28.041 Q95.9053,28.041 96.4988,27.7712 Q97.0923,27.5015 97.7231,26.9204 Z "/><text fill="#000000" font-family="sans-serif" font-size="12" lengthAdjust="spacingAndGlyphs" textLength="8" x="110.25" y="28.5352">A</text><line style="stroke: #A80036; stroke-width: 1.5;" x1="74" x2="127" y1="40" y2="40"/><text fill="#000000" font-family="sans-serif" font-size="11" lengthAdjust="spacingAndGlyphs" textLength="36" x="79" y="54.6348">-x : int</text><text fill="#000000" font-family="sans-serif" font-size="11" lengthAdjust="spacingAndGlyphs" textLength="43" x="79" y="67.5898">-y : int[]</text><line style="stroke: #A80036; stroke-width: 1.5;" x1="74" x2="127" y1="73.9102" y2="73.9102"/><!--class B--><rect fill="#FEFECE" filter="url(#fie6dgg)" height="48" style="stroke: #A80036; stroke-width: 1.5;" width="39" x="6" y="142"/><ellipse cx="21" cy="158" fill="#ADD1B2" rx="11" ry="11" style="stroke: #A80036; stroke-width: 1.0;"/><path d="M23.9731,163.6431 Q23.3921,163.9419 22.7529,164.0913 Q22.1138,164.2407 21.4082,164.2407 Q18.9014,164.2407 17.5815,162.5889 Q16.2617,160.937 16.2617,157.8159 Q16.2617,154.6865 17.5815,153.0347 Q18.9014,151.3828 21.4082,151.3828 Q22.1138,151.3828 22.7612,151.5322 Q23.4087,151.6816 23.9731,151.9805 L23.9731,154.7031 Q23.3423,154.1221 22.7488,153.8523 Q22.1553,153.5825 21.5244,153.5825 Q20.1797,153.5825 19.4949,154.6492 Q18.8101,155.7158 18.8101,157.8159 Q18.8101,159.9077 19.4949,160.9744 Q20.1797,162.041 21.5244,162.041 Q22.1553,162.041 22.7488,161.7712 Q23.3423,161.5015 23.9731,160.9204 Z "/><text fill="#000000" font-family="sans-serif" font-size="12" lengthAdjust="spacingAndGlyphs" textLength="7" x="35" y="162.5352">B</text><line style="stroke: #A80036; stroke-width: 1.5;" x1="7" x2="44" y1="174" y2="174"/><line style="stroke: #A80036; stroke-width: 1.5;" x1="7" x2="44" y1="182" y2="182"/><!--class C--><rect fill="#FEFECE" filter="url(#fie6dgg)" height="48" style="stroke: #A80036; stroke-width: 1.5;" width="40" x="80.25" y="142"/><ellipse cx="95.25" cy="158" fill="#ADD1B2" rx="11" ry="11" style="stroke: #A80036; stroke-width: 1.0;"/><path d="M98.2231,163.6431 Q97.6421,163.9419 97.0029,164.0913 Q96.3638,164.2407 95.6582,164.2407 Q93.1514,164.2407 91.8315,162.5889 Q90.5117,160.937 90.5117,157.8159 Q90.5117,154.6865 91.8315,153.0347 Q93.1514,151.3828 95.6582,151.3828 Q96.3638,151.3828 97.0112,151.5322 Q97.6587,151.6816 98.2231,151.9805 L98.2231,154.7031 Q97.5923,154.1221 96.9988,153.8523 Q96.4053,153.5825 95.7744,153.5825 Q94.4297,153.5825 93.7449,154.6492 Q93.0601,155.7158 93.0601,157.8159 Q93.0601,159.9077 93.7449,160.9744 Q94.4297,162.041 95.7744,162.041 Q96.4053,162.041 96.9988,161.7712 Q97.5923,161.5015 98.2231,160.9204 Z "/><text fill="#000000" font-family="sans-serif" font-size="12" lengthAdjust="spacingAndGlyphs" textLength="8" x="109.25" y="162.5352">C</text><line style="stroke: #A80036; stroke-width: 1.5;" x1="81.25" x2="119.25" y1="174" y2="174"/><line style="stroke: #A80036; stroke-width: 1.5;" x1="81.25" x2="119.25" y1="182" y2="182"/><!--class D--><rect fill="#FEFECE" filter="url(#fie6dgg)" height="48" style="stroke: #A80036; stroke-width: 1.5;" width="41" x="156" y="142"/><ellipse cx="171" cy="158" fill="#ADD1B2" rx="11" ry="11" style="stroke: #A80036; stroke-width: 1.0;"/><path d="M173.9731,163.6431 Q173.3921,163.9419 172.7529,164.0913 Q172.1138,164.2407 171.4082,164.2407 Q168.9014,164.2407 167.5815,162.5889 Q166.2617,160.937 166.2617,157.8159 Q166.2617,154.6865 167.5815,153.0347 Q168.9014,151.3828 171.4082,151.3828 Q172.1138,151.3828 172.7612,151.5322 Q173.4087,151.6816 173.9731,151.9805 L173.9731,154.7031 Q173.3423,154.1221 172.7488,153.8523 Q172.1553,153.5825 171.5244,153.5825 Q170.1797,153.5825 169.4949,154.6492 Q168.8101,155.7158 168.8101,157.8159 Q168.8101,159.9077 169.4949,160.9744 Q170.1797,162.041 171.5244,162.041 Q172.1553,162.041 172.7488,161.7712 Q173.3423,161.5015 173.9731,160.9204 Z "/><text fill="#000000" font-family="sans-serif" font-size="12" lengthAdjust="spacingAndGlyphs" textLength="9" x="185" y="162.5352">D</text><line style="stroke: #A80036; stroke-width: 1.5;" x1="157" x2="196" y1="174" y2="174"/><line style="stroke: #A80036; stroke-width: 1.5;" x1="157" x2="196" y1="182" y2="182"/><path d="M77.544,82.027 C65.2996,101.4547 50.5491,124.8588 39.84,141.8505 " fill="none" style="stroke: #A80036; stroke-width: 1.0;"/><text fill="#000000" font-family="sans-serif" font-size="13" lengthAdjust="spacingAndGlyphs" textLength="6" x="35.1019" y="131.3107">*</text><path d="M100.25,82.027 C100.25,101.4547 100.25,124.8588 100.25,141.8505 " fill="none" style="stroke: #A80036; stroke-width: 1.0;"/><path d="M123.259,82.027 C135.666,101.4547 150.614,124.8588 161.465,141.8505 " fill="none" style="stroke: #A80036; stroke-width: 1.0;"/><text fill="#000000" font-family="sans-serif" font-size="13" lengthAdjust="spacingAndGlyphs" textLength="6" x="150.3011" y="131.3107">*</text></g></svg>