<?xml version="1.0" encoding="UTF-8" standalone="no"?><svg xmlns="http://www.w3.org/2000/svg" xmlns:xlink="http://www.w3.org/1999/xlink" contentScriptType="application/ecmascript" contentStyleType="text/css" height="295px" preserveAspectRatio="none" style="width:282px;height:295px;" version="1.1" viewBox="0 0 282 295" width="282px" zoomAndPan="magnify"><defs><filter height="300%" id="f4vvmsw" width="300%" x="-1" y="-1"><feGaussianBlur result="blurOut" stdDeviation="2.0"/><feColorMatrix in="blurOut" result="blurOut2" type="matrix" values="0 0 0 0 0 0 0 0 0 0 0 0 0 0 0 0 0 0 .4 0"/><feOffset dx="4.0" dy="4.0" in="blurOut2" result="blurOut3"/><feBlend in="SourceGraphic" in2="blurOut3" mode="normal"/></filter></defs><g><!--class A1--><rect fill="#FEFECE" filter="url(#f4vvmsw)" height="48" style="stroke: #A80036; stroke-width: 1.5;" width="48" x="84.25" y="130"/><ellipse cx="99.25" cy="146" fill="#B4A7E5" rx="11" ry="11" style="stroke: #A80036; stroke-width: 1.0;"/><path d="M95.1777,141.7651 L95.1777,139.6069 L102.5571,139.6069 L102.5571,141.7651 L100.0918,141.7651 L100.0918,149.8418 L102.5571,149.8418 L102.5571,152 L95.1777,152 L95.1777,149.8418 L97.6431,149.8418 L97.6431,141.7651 Z "/><text fill="#000000" font-family="sans-serif" font-size="12" font-style="italic" lengthAdjust="spacingAndGlyphs" textLength="16" x="113.25" y="150.5352">A1</text><line style="stroke: #A80036; stroke-width: 1.5;" x1="85.25" x2="131.25" y1="162" y2="162"/><line style="stroke: #A80036; stroke-width: 1.5;" x1="85.25" x2="131.25" y1="170" y2="170"/><!--class A2--><rect fill="#FEFECE" filter="url(#f4vvmsw)" height="48" style="stroke: #A80036; stroke-width: 1.5;" width="48" x="181.25" y="130"/><ellipse cx="196.25" cy="146" fill="#B4A7E5" rx="11" ry="11" style="stroke: #A80036; stroke-width: 1.0;"/><path d="M192.1777,141.7651 L192.1777,139.6069 L199.5571,139.6069 L199.5571,141.7651 L197.0918,141.7651 L197.0918,149.8418 L199.5571,149.8418 L199.5571,152 L192.1777,152 L192.1777,149.8418 L194.6431,149.8418 L194.6431,141.7651 Z "/><text fill="#000000" font-family="sans-serif" font-size="12" font-style="italic" lengthAdjust="spacingAndGlyphs" textLength="16" x="210.25" y="150.5352">A2</text><line style="stroke: #A80036; stroke-width: 1.5;" x1="182.25" x2="228.25" y1="162" y2="162"/><line style="stroke: #A80036; stroke-width: 1.5;" x1="182.25" x2="228.25" y1="170" y2="170"/><!--class B1--><rect fill="#FEFECE" filter="url(#f4vvmsw)" height="48" style="stroke: #A80036; stroke-width: 1.5;" width="47" x="6" y="238"/><ellipse cx="21" cy="254" fill="#ADD1B2" rx="11" ry="11" style="stroke: #A80036; stroke-width: 1.0;"/><path d="M23.9731,259.6431 Q23.3921,259.9419 22.7529,260.0913 Q22.1138,260.2407 21.4082,260.2407 Q18.9014,260.2407 17.5815,258.5889 Q16.2617,256.937 16.2617,253.8159 Q16.2617,250.6865 17.5815,249.0347 Q18.9014,247.3828 21.4082,247.3828 Q22.1138,247.3828 22.7612,247.5322 Q23.4087,247.6816 23.9731,247.9805 L23.9731,250.7031 Q23.3423,250.1221 22.7488,249.8523 Q22.1553,249.5825 21.5244,249.5825 Q20.1797,249.5825 19.4949,250.6492 Q18.8101,251.7158 18.8101,253.8159 Q18.8101,255.9077 19.4949,256.9744 Q20.1797,258.041 21.5244,258.041 Q22.1553,258.041 22.7488,257.7712 Q23.3423,257.5015 23.9731,256.9204 Z "/><text fill="#000000" font-family="sans-serif" font-size="12" lengthAdjust="spacingAndGlyphs" textLength="15" x="35" y="258.5352">B1</text><line style="stroke: #A80036; stroke-width: 1.5;" x1="7" x2="52" y1="270" y2="270"/><line style="stroke: #A80036; stroke-width: 1.5;" x1="7" x2="52" y1="278" y2="278"/><!--class P--><rect fill="#FEFECE" filter="url(#f4vvmsw)" height="48" style="stroke: #A80036; stroke-width: 1.5;" width="39" x="10" y="130"/><ellipse cx="25" cy="146" fill="#ADD1B2" rx="11" ry="11" style="stroke: #A80036; stroke-width: 1.0;"/><path d="M27.9731,151.6431 Q27.3921,151.9419 26.7529,152.0913 Q26.1138,152.2407 25.4082,152.2407 Q22.9014,152.2407 21.5815,150.5889 Q20.2617,148.937 20.2617,145.8159 Q20.2617,142.6865 21.5815,141.0347 Q22.9014,139.3828 25.4082,139.3828 Q26.1138,139.3828 26.7612,139.5322 Q27.4087,139.6816 27.9731,139.9805 L27.9731,142.7031 Q27.3423,142.1221 26.7488,141.8523 Q26.1553,141.5825 25.5244,141.5825 Q24.1797,141.5825 23.4949,142.6492 Q22.8101,143.7158 22.8101,145.8159 Q22.8101,147.9077 23.4949,148.9744 Q24.1797,150.041 25.5244,150.041 Q26.1553,150.041 26.7488,149.7712 Q27.3423,149.5015 27.9731,148.9204 Z "/><text fill="#000000" font-family="sans-serif" font-size="12" lengthAdjust="spacingAndGlyphs" textLength="7" x="39" y="150.5352">P</text><line style="stroke: #A80036; stroke-width: 1.5;" x1="11" x2="48" y1="162" y2="162"/><line style="stroke: #A80036; stroke-width: 1.5;" x1="11" x2="48" y1="170" y2="170"/><!--class B2--><rect fill="#FEFECE" filter="url(#f4vvmsw)" height="48" style="stroke: #A80036; stroke-width: 1.5;" width="47" x="88" y="238"/><ellipse cx="103" cy="254" fill="#ADD1B2" rx="11" ry="11" style="stroke: #A80036; stroke-width: 1.0;"/><path d="M105.9731,259.6431 Q105.3921,259.9419 104.7529,260.0913 Q104.1138,260.2407 103.4082,260.2407 Q100.9014,260.2407 99.5815,258.5889 Q98.2617,256.937 98.2617,253.8159 Q98.2617,250.6865 99.5815,249.0347 Q100.9014,247.3828 103.4082,247.3828 Q104.1138,247.3828 104.7612,247.5322 Q105.4087,247.6816 105.9731,247.9805 L105.9731,250.7031 Q105.3423,250.1221 104.7488,249.8523 Q104.1553,249.5825 103.5244,249.5825 Q102.1797,249.5825 101.4949,250.6492 Q100.8101,251.7158 100.8101,253.8159 Q100.8101,255.9077 101.4949,256.9744 Q102.1797,258.041 103.5244,258.041 Q104.1553,258.041 104.7488,257.7712 Q105.3423,257.5015 105.9731,256.9204 Z "/><text fill="#000000" font-family="sans-serif" font-size="12" lengthAdjust="spacingAndGlyphs" textLength="15" x="117" y="258.5352">B2</text><line style="stroke: #A80036; stroke-width: 1.5;" x1="89" x2="134" y1="270" y2="270"/><line style="stroke: #A80036; stroke-width: 1.5;" x1="89" x2="134" y1="278" y2="278"/><!--class C1--><rect fill="#FEFECE" filter="url(#f4vvmsw)" height="60.9551" style="stroke: #A80036; stroke-width: 1.5;" width="106" x="26.25" y="8.5"/><ellipse cx="67.35" cy="24.5" fill="#ADD1B2" rx="11" ry="11" style="stroke: #A80036; stroke-width: 1.0;"/><path d="M70.3231,30.1431 Q69.7421,30.4419 69.1029,30.5913 Q68.4638,30.7407 67.7582,30.7407 Q65.2514,30.7407 63.9315,29.0889 Q62.6117,27.437 62.6117,24.3159 Q62.6117,21.1865 63.9315,19.5347 Q65.2514,17.8828 67.7582,17.8828 Q68.4638,17.8828 69.1112,18.0322 Q69.7587,18.1816 70.3231,18.4805 L70.3231,21.2031 Q69.6923,20.6221 69.0988,20.3523 Q68.5053,20.0825 67.8744,20.0825 Q66.5297,20.0825 65.8449,21.1492 Q65.1601,22.2158 65.1601,24.3159 Q65.1601,26.4077 65.8449,27.4744 Q66.5297,28.541 67.8744,28.541 Q68.5053,28.541 69.0988,28.2712 Q69.6923,28.0015 70.3231,27.4204 Z "/><text fill="#000000" font-family="sans-serif" font-size="12" lengthAdjust="spacingAndGlyphs" textLength="16" x="87.15" y="29.0352">C1</text><line style="stroke: #A80036; stroke-width: 1.5;" x1="27.25" x2="131.25" y1="40.5" y2="40.5"/><line style="stroke: #A80036; stroke-width: 1.5;" x1="27.25" x2="131.25" y1="48.5" y2="48.5"/><text fill="#000000" font-family="sans-serif" font-size="11" lengthAdjust="spacingAndGlyphs" textLength="94" x="32.25" y="63.1348">+test(a1:A1):void</text><!--class C2--><rect fill="#FEFECE" filter="url(#f4vvmsw)" height="60.9551" style="stroke: #A80036; stroke-width: 1.5;" width="106" x="167.25" y="8.5"/><ellipse cx="208.35" cy="24.5" fill="#ADD1B2" rx="11" ry="11" style="stroke: #A80036; stroke-width: 1.0;"/><path d="M211.3231,30.1431 Q210.7421,30.4419 210.1029,30.5913 Q209.4638,30.7407 208.7582,30.7407 Q206.2514,30.7407 204.9315,29.0889 Q203.6117,27.437 203.6117,24.3159 Q203.6117,21.1865 204.9315,19.5347 Q206.2514,17.8828 208.7582,17.8828 Q209.4638,17.8828 210.1112,18.0322 Q210.7587,18.1816 211.3231,18.4805 L211.3231,21.2031 Q210.6923,20.6221 210.0988,20.3523 Q209.5053,20.0825 208.8744,20.0825 Q207.5297,20.0825 206.8449,21.1492 Q206.1601,22.2158 206.1601,24.3159 Q206.1601,26.4077 206.8449,27.4744 Q207.5297,28.541 208.8744,28.541 Q209.5053,28.541 210.0988,28.2712 Q210.6923,28.0015 211.3231,27.4204 Z "/><text fill="#000000" font-family="sans-serif" font-size="12" lengthAdjust="spacingAndGlyphs" textLength="16" x="228.15" y="29.0352">C2</text><line style="stroke: #A80036; stroke-width: 1.5;" x1="168.25" x2="272.25" y1="40.5" y2="40.5"/><line style="stroke: #A80036; stroke-width: 1.5;" x1="168.25" x2="272.25" y1="48.5" y2="48.5"/><text fill="#000000" font-family="sans-serif" font-size="11" lengthAdjust="spacingAndGlyphs" textLength="94" x="173.25" y="63.1348">+test(a2:A2):void</text><path d="M79.051,194.1784 C68.1541,208.7995 56.1327,224.9295 46.6312,237.6784 " fill="none" style="stroke: #A80036; stroke-width: 1.0; stroke-dasharray: 7.0,7.0;"/><polygon fill="none" points="73.5439,189.8536,91.1082,178,84.7693,198.2197,73.5439,189.8536" style="stroke: #A80036; stroke-width: 1.0;"/><path d="M29.25,198.0236 C29.25,211.5792 29.25,226.0381 29.25,237.6784 " fill="none" style="stroke: #A80036; stroke-width: 1.0;"/><polygon fill="none" points="22.2501,198.0005,29.25,178,36.2501,198.0004,22.2501,198.0005" style="stroke: #A80036; stroke-width: 1.0;"/><path d="M109.468,198.0236 C109.851,211.5792 110.261,226.0381 110.59,237.6784 " fill="none" style="stroke: #A80036; stroke-width: 1.0; stroke-dasharray: 7.0,7.0;"/><polygon fill="none" points="102.4697,198.1905,108.901,178,116.464,197.7943,102.4697,198.1905" style="stroke: #A80036; stroke-width: 1.0;"/><path d="M171.351,193.227 C158.164,208.0966 143.483,224.6523 131.931,237.6784 " fill="none" style="stroke: #A80036; stroke-width: 1.0; stroke-dasharray: 7.0,7.0;"/><polygon fill="none" points="166.346,188.3198,184.853,178,176.821,197.6086,166.346,188.3198" style="stroke: #A80036; stroke-width: 1.0;"/><path d="M59.5578,194.1784 C70.8685,208.7995 83.3464,224.9295 93.2088,237.6784 " fill="none" style="stroke: #A80036; stroke-width: 1.0;"/><polygon fill="none" points="53.7436,198.1027,47.0428,178,64.817,189.5365,53.7436,198.1027" style="stroke: #A80036; stroke-width: 1.0;"/><path d="M86.8694,69.689 C91.2494,86.756 96.7199,108.072 101.0308,124.87 " fill="none" style="stroke: #A80036; stroke-width: 1.0; stroke-dasharray: 7.0,7.0;"/><polygon fill="#A80036" points="102.329,129.928,103.9663,120.2162,101.0861,125.0849,96.2174,122.2048,102.329,129.928" style="stroke: #A80036; stroke-width: 1.0;"/><path d="M216.309,69.689 C214.043,86.756 211.214,108.072 208.984,124.87 " fill="none" style="stroke: #A80036; stroke-width: 1.0; stroke-dasharray: 7.0,7.0;"/><polygon fill="#A80036" points="208.313,129.928,213.4614,121.5319,208.9703,124.9714,205.5308,120.4803,208.313,129.928" style="stroke: #A80036; stroke-width: 1.0;"/></g></svg>