<?xml version="1.0" encoding="UTF-8" standalone="no"?><svg xmlns="http://www.w3.org/2000/svg" xmlns:xlink="http://www.w3.org/1999/xlink" contentScriptType="application/ecmascript" contentStyleType="text/css" height="426px" preserveAspectRatio="none" style="width:718px;height:426px;" version="1.1" viewBox="0 0 718 426" width="718px" zoomAndPan="magnify"><defs><filter height="300%" id="fmuhhvc" width="300%" x="-1" y="-1"><feGaussianBlur result="blurOut" stdDeviation="2.0"/><feColorMatrix in="blurOut" result="blurOut2" type="matrix" values="0 0 0 0 0 0 0 0 0 0 0 0 0 0 0 0 0 0 .4 0"/><feOffset dx="4.0" dy="4.0" in="blurOut2" result="blurOut3"/><feBlend in="SourceGraphic" in2="blurOut3" mode="normal"/></filter></defs><g><!--class ConcreteObserver--><rect fill="#FEFECE" filter="url(#fmuhhvc)" height="86.8652" style="stroke: #A80036; stroke-width: 1.5;" width="278" x="332.25" y="8.5"/><ellipse cx="415" cy="24.5" fill="#ADD1B2" rx="11" ry="11" style="stroke: #A80036; stroke-width: 1.0;"/><path d="M417.9731,30.1431 Q417.3921,30.4419 416.7529,30.5913 Q416.1138,30.7407 415.4082,30.7407 Q412.9014,30.7407 411.5815,29.0889 Q410.2617,27.437 410.2617,24.3159 Q410.2617,21.1865 411.5815,19.5347 Q412.9014,17.8828 415.4082,17.8828 Q416.1138,17.8828 416.7612,18.0322 Q417.4087,18.1816 417.9731,18.4805 L417.9731,21.2031 Q417.3423,20.6221 416.7488,20.3523 Q416.1553,20.0825 415.5244,20.0825 Q414.1797,20.0825 413.4949,21.1492 Q412.8101,22.2158 412.8101,24.3159 Q412.8101,26.4077 413.4949,27.4744 Q414.1797,28.541 415.5244,28.541 Q416.1553,28.541 416.7488,28.2712 Q417.3423,28.0015 417.9731,27.4204 Z "/><text fill="#000000" font-family="sans-serif" font-size="12" lengthAdjust="spacingAndGlyphs" textLength="104" x="435.5" y="29.0352">ConcreteObserver</text><line style="stroke: #A80036; stroke-width: 1.5;" x1="333.25" x2="609.25" y1="40.5" y2="40.5"/><line style="stroke: #A80036; stroke-width: 1.5;" x1="333.25" x2="609.25" y1="48.5" y2="48.5"/><text fill="#000000" font-family="sans-serif" font-size="11" lengthAdjust="spacingAndGlyphs" textLength="80" x="338.25" y="63.1348">+update():void</text><text fill="#000000" font-family="sans-serif" font-size="11" lengthAdjust="spacingAndGlyphs" textLength="97" x="338.25" y="76.0898">+showState():void</text><text fill="#000000" font-family="sans-serif" font-size="11" lengthAdjust="spacingAndGlyphs" textLength="266" x="338.25" y="89.0449">+ConcreteObserver(theSubject:ConcreteSubject )</text><!--class Observer--><rect fill="#FEFECE" filter="url(#fmuhhvc)" height="60.9551" style="stroke: #A80036; stroke-width: 1.5;" width="92" x="146.25" y="356.5"/><ellipse cx="164.4" cy="372.5" fill="#B4A7E5" rx="11" ry="11" style="stroke: #A80036; stroke-width: 1.0;"/><path d="M160.3277,368.2651 L160.3277,366.1069 L167.7071,366.1069 L167.7071,368.2651 L165.2418,368.2651 L165.2418,376.3418 L167.7071,376.3418 L167.7071,378.5 L160.3277,378.5 L160.3277,376.3418 L162.7931,376.3418 L162.7931,368.2651 Z "/><text fill="#000000" font-family="sans-serif" font-size="12" font-style="italic" lengthAdjust="spacingAndGlyphs" textLength="53" x="179.1" y="377.0352">Observer</text><line style="stroke: #A80036; stroke-width: 1.5;" x1="147.25" x2="237.25" y1="388.5" y2="388.5"/><line style="stroke: #A80036; stroke-width: 1.5;" x1="147.25" x2="237.25" y1="396.5" y2="396.5"/><text fill="#000000" font-family="sans-serif" font-size="11" lengthAdjust="spacingAndGlyphs" textLength="80" x="152.25" y="411.1348">+update():void</text><!--class ConcreteSubject--><rect fill="#FEFECE" filter="url(#fmuhhvc)" height="138.6855" style="stroke: #A80036; stroke-width: 1.5;" width="165" x="43" y="156.5"/><ellipse cx="76" cy="172.5" fill="#ADD1B2" rx="11" ry="11" style="stroke: #A80036; stroke-width: 1.0;"/><path d="M78.9731,178.1431 Q78.3921,178.4419 77.7529,178.5913 Q77.1138,178.7407 76.4082,178.7407 Q73.9014,178.7407 72.5815,177.0889 Q71.2617,175.437 71.2617,172.3159 Q71.2617,169.1865 72.5815,167.5347 Q73.9014,165.8828 76.4082,165.8828 Q77.1138,165.8828 77.7612,166.0322 Q78.4087,166.1816 78.9731,166.4805 L78.9731,169.2031 Q78.3423,168.6221 77.7488,168.3523 Q77.1553,168.0825 76.5244,168.0825 Q75.1797,168.0825 74.4949,169.1492 Q73.8101,170.2158 73.8101,172.3159 Q73.8101,174.4077 74.4949,175.4744 Q75.1797,176.541 76.5244,176.541 Q77.1553,176.541 77.7488,176.2712 Q78.3423,176.0015 78.9731,175.4204 Z "/><text fill="#000000" font-family="sans-serif" font-size="12" lengthAdjust="spacingAndGlyphs" textLength="93" x="94" y="177.0352">ConcreteSubject</text><line style="stroke: #A80036; stroke-width: 1.5;" x1="44" x2="207" y1="188.5" y2="188.5"/><text fill="#000000" font-family="sans-serif" font-size="11" lengthAdjust="spacingAndGlyphs" textLength="112" x="49" y="203.1348">-subjectState : String</text><line style="stroke: #A80036; stroke-width: 1.5;" x1="44" x2="207" y1="209.4551" y2="209.4551"/><text fill="#000000" font-family="sans-serif" font-size="11" lengthAdjust="spacingAndGlyphs" textLength="95" x="49" y="224.0898">+getState():String</text><text fill="#000000" font-family="sans-serif" font-size="11" lengthAdjust="spacingAndGlyphs" textLength="153" x="49" y="237.0449">+setState(status:String):void</text><text fill="#000000" font-family="sans-serif" font-size="11" lengthAdjust="spacingAndGlyphs" textLength="146" x="49" y="250">+attach(obj:Observer):void</text><text fill="#000000" font-family="sans-serif" font-size="11" lengthAdjust="spacingAndGlyphs" textLength="149" x="49" y="262.9551">+detach(obj:Observer):void</text><text fill="#000000" font-family="sans-serif" font-size="11" lengthAdjust="spacingAndGlyphs" textLength="130" x="49" y="275.9102">+notifyObservers():void</text><text fill="#000000" font-family="sans-serif" font-size="11" lengthAdjust="spacingAndGlyphs" textLength="97" x="49" y="288.8652">+showState():void</text><!--class Subject--><rect fill="#FEFECE" filter="url(#fmuhhvc)" height="86.8652" style="stroke: #A80036; stroke-width: 1.5;" width="161" x="45" y="8.5"/><ellipse cx="100.25" cy="24.5" fill="#B4A7E5" rx="11" ry="11" style="stroke: #A80036; stroke-width: 1.0;"/><path d="M96.1777,20.2651 L96.1777,18.1069 L103.5571,18.1069 L103.5571,20.2651 L101.0918,20.2651 L101.0918,28.3418 L103.5571,28.3418 L103.5571,30.5 L96.1777,30.5 L96.1777,28.3418 L98.6431,28.3418 L98.6431,20.2651 Z "/><text fill="#000000" font-family="sans-serif" font-size="12" font-style="italic" lengthAdjust="spacingAndGlyphs" textLength="42" x="120.75" y="29.0352">Subject</text><line style="stroke: #A80036; stroke-width: 1.5;" x1="46" x2="205" y1="40.5" y2="40.5"/><line style="stroke: #A80036; stroke-width: 1.5;" x1="46" x2="205" y1="48.5" y2="48.5"/><text fill="#000000" font-family="sans-serif" font-size="11" lengthAdjust="spacingAndGlyphs" textLength="146" x="51" y="63.1348">+attach(obj:Observer):void</text><text fill="#000000" font-family="sans-serif" font-size="11" lengthAdjust="spacingAndGlyphs" textLength="149" x="51" y="76.0898">+detach(obj:Observer):void</text><text fill="#000000" font-family="sans-serif" font-size="11" lengthAdjust="spacingAndGlyphs" textLength="130" x="51" y="89.0449">+notifyObservers():void</text><!--class Optimist--><rect fill="#FEFECE" filter="url(#fmuhhvc)" height="73.9102" style="stroke: #A80036; stroke-width: 1.5;" width="189" x="243" y="189"/><ellipse cx="309.25" cy="205" fill="#ADD1B2" rx="11" ry="11" style="stroke: #A80036; stroke-width: 1.0;"/><path d="M312.2231,210.6431 Q311.6421,210.9419 311.0029,211.0913 Q310.3638,211.2407 309.6582,211.2407 Q307.1514,211.2407 305.8315,209.5889 Q304.5117,207.937 304.5117,204.8159 Q304.5117,201.6865 305.8315,200.0347 Q307.1514,198.3828 309.6582,198.3828 Q310.3638,198.3828 311.0112,198.5322 Q311.6587,198.6816 312.2231,198.9805 L312.2231,201.7031 Q311.5923,201.1221 310.9988,200.8523 Q310.4053,200.5825 309.7744,200.5825 Q308.4297,200.5825 307.7449,201.6492 Q307.0601,202.7158 307.0601,204.8159 Q307.0601,206.9077 307.7449,207.9744 Q308.4297,209.041 309.7744,209.041 Q310.4053,209.041 310.9988,208.7712 Q311.5923,208.5015 312.2231,207.9204 Z "/><text fill="#000000" font-family="sans-serif" font-size="12" lengthAdjust="spacingAndGlyphs" textLength="48" x="329.75" y="209.5352">Optimist</text><line style="stroke: #A80036; stroke-width: 1.5;" x1="244" x2="431" y1="221" y2="221"/><line style="stroke: #A80036; stroke-width: 1.5;" x1="244" x2="431" y1="229" y2="229"/><text fill="#000000" font-family="sans-serif" font-size="11" lengthAdjust="spacingAndGlyphs" textLength="80" x="249" y="243.6348">+update():void</text><text fill="#000000" font-family="sans-serif" font-size="11" lengthAdjust="spacingAndGlyphs" textLength="177" x="249" y="256.5898">+Optimist(sub:ConcreteSubject )</text><!--class Pessimist--><rect fill="#FEFECE" filter="url(#fmuhhvc)" height="73.9102" style="stroke: #A80036; stroke-width: 1.5;" width="193" x="467" y="189"/><ellipse cx="532.75" cy="205" fill="#ADD1B2" rx="11" ry="11" style="stroke: #A80036; stroke-width: 1.0;"/><path d="M535.7231,210.6431 Q535.1421,210.9419 534.5029,211.0913 Q533.8638,211.2407 533.1582,211.2407 Q530.6514,211.2407 529.3315,209.5889 Q528.0117,207.937 528.0117,204.8159 Q528.0117,201.6865 529.3315,200.0347 Q530.6514,198.3828 533.1582,198.3828 Q533.8638,198.3828 534.5112,198.5322 Q535.1587,198.6816 535.7231,198.9805 L535.7231,201.7031 Q535.0923,201.1221 534.4988,200.8523 Q533.9053,200.5825 533.2744,200.5825 Q531.9297,200.5825 531.2449,201.6492 Q530.5601,202.7158 530.5601,204.8159 Q530.5601,206.9077 531.2449,207.9744 Q531.9297,209.041 533.2744,209.041 Q533.9053,209.041 534.4988,208.7712 Q535.0923,208.5015 535.7231,207.9204 Z "/><text fill="#000000" font-family="sans-serif" font-size="12" lengthAdjust="spacingAndGlyphs" textLength="53" x="553.25" y="209.5352">Pessimist</text><line style="stroke: #A80036; stroke-width: 1.5;" x1="468" x2="659" y1="221" y2="221"/><line style="stroke: #A80036; stroke-width: 1.5;" x1="468" x2="659" y1="229" y2="229"/><text fill="#000000" font-family="sans-serif" font-size="11" lengthAdjust="spacingAndGlyphs" textLength="80" x="473" y="243.6348">+update():void</text><text fill="#000000" font-family="sans-serif" font-size="11" lengthAdjust="spacingAndGlyphs" textLength="181" x="473" y="256.5898">+Pessimist(sub:ConcreteSubject )</text><!--class TheEconomy--><rect fill="#FEFECE" filter="url(#fmuhhvc)" height="60.9551" style="stroke: #A80036; stroke-width: 1.5;" width="105" x="6" y="356.5"/><ellipse cx="21" cy="372.5" fill="#ADD1B2" rx="11" ry="11" style="stroke: #A80036; stroke-width: 1.0;"/><path d="M23.9731,378.1431 Q23.3921,378.4419 22.7529,378.5913 Q22.1138,378.7407 21.4082,378.7407 Q18.9014,378.7407 17.5815,377.0889 Q16.2617,375.437 16.2617,372.3159 Q16.2617,369.1865 17.5815,367.5347 Q18.9014,365.8828 21.4082,365.8828 Q22.1138,365.8828 22.7612,366.0322 Q23.4087,366.1816 23.9731,366.4805 L23.9731,369.2031 Q23.3423,368.6221 22.7488,368.3523 Q22.1553,368.0825 21.5244,368.0825 Q20.1797,368.0825 19.4949,369.1492 Q18.8101,370.2158 18.8101,372.3159 Q18.8101,374.4077 19.4949,375.4744 Q20.1797,376.541 21.5244,376.541 Q22.1553,376.541 22.7488,376.2712 Q23.3423,376.0015 23.9731,375.4204 Z "/><text fill="#000000" font-family="sans-serif" font-size="12" lengthAdjust="spacingAndGlyphs" textLength="73" x="35" y="377.0352">TheEconomy</text><line style="stroke: #A80036; stroke-width: 1.5;" x1="7" x2="110" y1="388.5" y2="388.5"/><line style="stroke: #A80036; stroke-width: 1.5;" x1="7" x2="110" y1="396.5" y2="396.5"/><text fill="#000000" font-family="sans-serif" font-size="11" lengthAdjust="spacingAndGlyphs" textLength="86" x="12" y="411.1348">+TheEconomy()</text><path d="M258.668,383.7674 C378.829,378.1804 624.758,359.1285 677.25,296 C717.032,248.157 709.962,208.929 677.25,156 C661.169,129.98 636.303,110.313 609.339,95.526 " fill="none" style="stroke: #A80036; stroke-width: 1.0; stroke-dasharray: 7.0,7.0;"/><polygon fill="none" points="258.735,390.7709,238.453,384.6348,258.135,376.7838,258.735,390.7709" style="stroke: #A80036; stroke-width: 1.0;"/><path d="M125.25,115.931 C125.25,129.031 125.25,142.903 125.25,156.202 " fill="none" style="stroke: #A80036; stroke-width: 1.0; stroke-dasharray: 7.0,7.0;"/><polygon fill="none" points="118.25,115.517,125.25,95.517,132.25,115.517,118.25,115.517" style="stroke: #A80036; stroke-width: 1.0;"/><path d="M425.805,111.333 C405.81,136.998 382.949,166.342 365.463,188.786 " fill="none" style="stroke: #A80036; stroke-width: 1.0;"/><polygon fill="none" points="420.313,106.992,438.126,95.517,431.357,115.596,420.313,106.992" style="stroke: #A80036; stroke-width: 1.0;"/><path d="M503.43,113.163 C516.921,138.385 532.159,166.874 543.88,188.786 " fill="none" style="stroke: #A80036; stroke-width: 1.0;"/><polygon fill="none" points="497.252,116.454,493.992,95.517,509.597,109.851,497.252,116.454" style="stroke: #A80036; stroke-width: 1.0;"/><path d="M88.4778,314.265 C82.1173,329.3597 75.9156,344.077 70.8018,356.2129 " fill="none" style="stroke: #A80036; stroke-width: 1.0;"/><polygon fill="none" points="82.0354,311.527,96.2525,295.815,94.9368,316.964,82.0354,311.527" style="stroke: #A80036; stroke-width: 1.0;"/><path d="M355.967,95.509 C313.928,112.498 266.588,133.403 225.25,156 C219.42,159.187 213.511,162.634 207.63,166.23 " fill="none" style="stroke: #A80036; stroke-width: 1.0;"/><path d="M141.6,295.815 C150.103,316.965 160.262,339.1427 169.491,356.2129 " fill="none" style="stroke: #A80036; stroke-width: 1.0;"/><text fill="#000000" font-family="sans-serif" font-size="13" lengthAdjust="spacingAndGlyphs" textLength="6" x="157.7246" y="345.8149">*</text><path d="M167.639,295.815 C176.108,314.982 183.87,334.9934 189.001,351.2823 " fill="none" style="stroke: #A80036; stroke-width: 1.0; stroke-dasharray: 7.0,7.0;"/><polygon fill="#A80036" points="190.506,356.2129,191.7036,346.4371,189.046,351.4308,184.0523,348.7732,190.506,356.2129" style="stroke: #A80036; stroke-width: 1.0;"/></g></svg>