<?xml version="1.0" encoding="UTF-8" standalone="no"?><svg xmlns="http://www.w3.org/2000/svg" xmlns:xlink="http://www.w3.org/1999/xlink" contentScriptType="application/ecmascript" contentStyleType="text/css" height="438px" preserveAspectRatio="none" style="width:745px;height:438px;" version="1.1" viewBox="0 0 745 438" width="745px" zoomAndPan="magnify"><defs><filter height="300%" id="ftv4p8c" width="300%" x="-1" y="-1"><feGaussianBlur result="blurOut" stdDeviation="2.0"/><feColorMatrix in="blurOut" result="blurOut2" type="matrix" values="0 0 0 0 0 0 0 0 0 0 0 0 0 0 0 0 0 0 .4 0"/><feOffset dx="4.0" dy="4.0" in="blurOut2" result="blurOut3"/><feBlend in="SourceGraphic" in2="blurOut3" mode="normal"/></filter></defs><g><!--class ConcreteObserver--><rect fill="#FEFECE" filter="url(#ftv4p8c)" height="86.8652" style="stroke: #A80036; stroke-width: 1.5;" width="286" x="347.25" y="11.5"/><ellipse cx="434" cy="27.5" fill="#ADD1B2" rx="11" ry="11" style="stroke: #A80036; stroke-width: 1.0;"/><path d="M436.9731,33.1431 Q436.3921,33.4419 435.7529,33.5913 Q435.1138,33.7407 434.4082,33.7407 Q431.9014,33.7407 430.5815,32.0889 Q429.2617,30.437 429.2617,27.3159 Q429.2617,24.1865 430.5815,22.5347 Q431.9014,20.8828 434.4082,20.8828 Q435.1138,20.8828 435.7612,21.0322 Q436.4087,21.1816 436.9731,21.4805 L436.9731,24.2031 Q436.3423,23.6221 435.7488,23.3523 Q435.1553,23.0825 434.5244,23.0825 Q433.1797,23.0825 432.4949,24.1492 Q431.8101,25.2158 431.8101,27.3159 Q431.8101,29.4077 432.4949,30.4744 Q433.1797,31.541 434.5244,31.541 Q435.1553,31.541 435.7488,31.2712 Q436.3423,31.0015 436.9731,30.4204 Z "/><text fill="#000000" font-family="sans-serif" font-size="12" lengthAdjust="spacingAndGlyphs" textLength="104" x="454.5" y="32.0352">ConcreteObserver</text><line style="stroke: #A80036; stroke-width: 1.5;" x1="348.25" x2="632.25" y1="43.5" y2="43.5"/><line style="stroke: #A80036; stroke-width: 1.5;" x1="348.25" x2="632.25" y1="51.5" y2="51.5"/><ellipse cx="358.25" cy="63.4775" fill="#84BE84" rx="3" ry="3" style="stroke: #038048; stroke-width: 1.0;"/><text fill="#000000" font-family="sans-serif" font-size="11" lengthAdjust="spacingAndGlyphs" textLength="260" x="367.25" y="66.1348">ConcreteObserver(theSubject : ConcreteSubject)</text><ellipse cx="358.25" cy="76.4326" fill="#84BE84" rx="3" ry="3" style="stroke: #038048; stroke-width: 1.0;"/><text fill="#000000" font-family="sans-serif" font-size="11" lengthAdjust="spacingAndGlyphs" textLength="77" x="367.25" y="79.0898">update() : void</text><ellipse cx="358.25" cy="89.3877" fill="#84BE84" rx="3" ry="3" style="stroke: #038048; stroke-width: 1.0;"/><text fill="#000000" font-family="sans-serif" font-size="11" lengthAdjust="spacingAndGlyphs" textLength="94" x="367.25" y="92.0449">showState() : void</text><!--class ConcreteSubject--><rect fill="#FEFECE" filter="url(#ftv4p8c)" height="138.6855" style="stroke: #A80036; stroke-width: 1.5;" width="182" x="36.25" y="162.5"/><ellipse cx="76.9" cy="178.5" fill="#ADD1B2" rx="11" ry="11" style="stroke: #A80036; stroke-width: 1.0;"/><path d="M79.8731,184.1431 Q79.2921,184.4419 78.6529,184.5913 Q78.0138,184.7407 77.3082,184.7407 Q74.8014,184.7407 73.4815,183.0889 Q72.1617,181.437 72.1617,178.3159 Q72.1617,175.1865 73.4815,173.5347 Q74.8014,171.8828 77.3082,171.8828 Q78.0138,171.8828 78.6612,172.0322 Q79.3087,172.1816 79.8731,172.4805 L79.8731,175.2031 Q79.2423,174.6221 78.6488,174.3523 Q78.0553,174.0825 77.4244,174.0825 Q76.0797,174.0825 75.3949,175.1492 Q74.7101,176.2158 74.7101,178.3159 Q74.7101,180.4077 75.3949,181.4744 Q76.0797,182.541 77.4244,182.541 Q78.0553,182.541 78.6488,182.2712 Q79.2423,182.0015 79.8731,181.4204 Z "/><text fill="#000000" font-family="sans-serif" font-size="12" lengthAdjust="spacingAndGlyphs" textLength="93" x="96.6" y="183.0352">ConcreteSubject</text><line style="stroke: #A80036; stroke-width: 1.5;" x1="37.25" x2="217.25" y1="194.5" y2="194.5"/><rect fill="none" height="6" style="stroke: #C82930; stroke-width: 1.0;" width="6" x="44.25" y="203.4775"/><text fill="#000000" font-family="sans-serif" font-size="11" lengthAdjust="spacingAndGlyphs" textLength="106" x="56.25" y="209.1348">subjectState : String</text><line style="stroke: #A80036; stroke-width: 1.5;" x1="37.25" x2="217.25" y1="215.4551" y2="215.4551"/><ellipse cx="47.25" cy="227.4326" fill="#84BE84" rx="3" ry="3" style="stroke: #038048; stroke-width: 1.0;"/><text fill="#000000" font-family="sans-serif" font-size="11" lengthAdjust="spacingAndGlyphs" textLength="92" x="56.25" y="230.0898">getState() : String</text><ellipse cx="47.25" cy="240.3877" fill="#84BE84" rx="3" ry="3" style="stroke: #038048; stroke-width: 1.0;"/><text fill="#000000" font-family="sans-serif" font-size="11" lengthAdjust="spacingAndGlyphs" textLength="156" x="56.25" y="243.0449">setState(status : String) : void</text><ellipse cx="47.25" cy="253.3428" fill="#84BE84" rx="3" ry="3" style="stroke: #038048; stroke-width: 1.0;"/><text fill="#000000" font-family="sans-serif" font-size="11" lengthAdjust="spacingAndGlyphs" textLength="149" x="56.25" y="256">attach(obj : Observer) : void</text><ellipse cx="47.25" cy="266.2979" fill="#84BE84" rx="3" ry="3" style="stroke: #038048; stroke-width: 1.0;"/><text fill="#000000" font-family="sans-serif" font-size="11" lengthAdjust="spacingAndGlyphs" textLength="152" x="56.25" y="268.9551">detach(obj : Observer) : void</text><ellipse cx="47.25" cy="279.2529" fill="#84BE84" rx="3" ry="3" style="stroke: #038048; stroke-width: 1.0;"/><text fill="#000000" font-family="sans-serif" font-size="11" lengthAdjust="spacingAndGlyphs" textLength="127" x="56.25" y="281.9102">notifyObservers() : void</text><ellipse cx="47.25" cy="292.208" fill="#84BE84" rx="3" ry="3" style="stroke: #038048; stroke-width: 1.0;"/><text fill="#000000" font-family="sans-serif" font-size="11" lengthAdjust="spacingAndGlyphs" textLength="94" x="56.25" y="294.8652">showState() : void</text><!--class Observer--><rect fill="#FEFECE" filter="url(#ftv4p8c)" height="67.2207" style="stroke: #A80036; stroke-width: 1.5;" width="103" x="146" y="362.5"/><ellipse cx="166.85" cy="381.6328" fill="#B4A7E5" rx="11" ry="11" style="stroke: #A80036; stroke-width: 1.0;"/><path d="M162.7777,377.3979 L162.7777,375.2397 L170.1571,375.2397 L170.1571,377.3979 L167.6918,377.3979 L167.6918,385.4746 L170.1571,385.4746 L170.1571,387.6328 L162.7777,387.6328 L162.7777,385.4746 L165.2431,385.4746 L165.2431,377.3979 Z "/><text fill="#000000" font-family="sans-serif" font-size="12" font-style="italic" lengthAdjust="spacingAndGlyphs" textLength="62" x="180.15" y="379.1016">«interface»</text><text fill="#000000" font-family="sans-serif" font-size="12" font-style="italic" lengthAdjust="spacingAndGlyphs" textLength="53" x="184.65" y="393.2344">Observer</text><line style="stroke: #A80036; stroke-width: 1.5;" x1="147" x2="248" y1="400.7656" y2="400.7656"/><line style="stroke: #A80036; stroke-width: 1.5;" x1="147" x2="248" y1="408.7656" y2="408.7656"/><ellipse cx="157" cy="420.7432" fill="#84BE84" rx="3" ry="3" style="stroke: #038048; stroke-width: 1.0;"/><text fill="#000000" font-family="sans-serif" font-size="11" lengthAdjust="spacingAndGlyphs" textLength="77" x="166" y="423.4004">update() : void</text><!--class Optimist--><rect fill="#FEFECE" filter="url(#ftv4p8c)" height="73.9102" style="stroke: #A80036; stroke-width: 1.5;" width="197" x="254" y="195"/><ellipse cx="324.25" cy="211" fill="#ADD1B2" rx="11" ry="11" style="stroke: #A80036; stroke-width: 1.0;"/><path d="M327.2231,216.6431 Q326.6421,216.9419 326.0029,217.0913 Q325.3638,217.2407 324.6582,217.2407 Q322.1514,217.2407 320.8315,215.5889 Q319.5117,213.937 319.5117,210.8159 Q319.5117,207.6865 320.8315,206.0347 Q322.1514,204.3828 324.6582,204.3828 Q325.3638,204.3828 326.0112,204.5322 Q326.6587,204.6816 327.2231,204.9805 L327.2231,207.7031 Q326.5923,207.1221 325.9988,206.8523 Q325.4053,206.5825 324.7744,206.5825 Q323.4297,206.5825 322.7449,207.6492 Q322.0601,208.7158 322.0601,210.8159 Q322.0601,212.9077 322.7449,213.9744 Q323.4297,215.041 324.7744,215.041 Q325.4053,215.041 325.9988,214.7712 Q326.5923,214.5015 327.2231,213.9204 Z "/><text fill="#000000" font-family="sans-serif" font-size="12" lengthAdjust="spacingAndGlyphs" textLength="48" x="344.75" y="215.5352">Optimist</text><line style="stroke: #A80036; stroke-width: 1.5;" x1="255" x2="450" y1="227" y2="227"/><line style="stroke: #A80036; stroke-width: 1.5;" x1="255" x2="450" y1="235" y2="235"/><ellipse cx="265" cy="246.9775" fill="#84BE84" rx="3" ry="3" style="stroke: #038048; stroke-width: 1.0;"/><text fill="#000000" font-family="sans-serif" font-size="11" lengthAdjust="spacingAndGlyphs" textLength="171" x="274" y="249.6348">Optimist(sub : ConcreteSubject)</text><ellipse cx="265" cy="259.9326" fill="#84BE84" rx="3" ry="3" style="stroke: #038048; stroke-width: 1.0;"/><text fill="#000000" font-family="sans-serif" font-size="11" lengthAdjust="spacingAndGlyphs" textLength="77" x="274" y="262.5898">update() : void</text><!--class Pessimist--><rect fill="#FEFECE" filter="url(#ftv4p8c)" height="73.9102" style="stroke: #A80036; stroke-width: 1.5;" width="201" x="486" y="195"/><ellipse cx="555.75" cy="211" fill="#ADD1B2" rx="11" ry="11" style="stroke: #A80036; stroke-width: 1.0;"/><path d="M558.7231,216.6431 Q558.1421,216.9419 557.5029,217.0913 Q556.8638,217.2407 556.1582,217.2407 Q553.6514,217.2407 552.3315,215.5889 Q551.0117,213.937 551.0117,210.8159 Q551.0117,207.6865 552.3315,206.0347 Q553.6514,204.3828 556.1582,204.3828 Q556.8638,204.3828 557.5112,204.5322 Q558.1587,204.6816 558.7231,204.9805 L558.7231,207.7031 Q558.0923,207.1221 557.4988,206.8523 Q556.9053,206.5825 556.2744,206.5825 Q554.9297,206.5825 554.2449,207.6492 Q553.5601,208.7158 553.5601,210.8159 Q553.5601,212.9077 554.2449,213.9744 Q554.9297,215.041 556.2744,215.041 Q556.9053,215.041 557.4988,214.7712 Q558.0923,214.5015 558.7231,213.9204 Z "/><text fill="#000000" font-family="sans-serif" font-size="12" lengthAdjust="spacingAndGlyphs" textLength="53" x="576.25" y="215.5352">Pessimist</text><line style="stroke: #A80036; stroke-width: 1.5;" x1="487" x2="686" y1="227" y2="227"/><line style="stroke: #A80036; stroke-width: 1.5;" x1="487" x2="686" y1="235" y2="235"/><ellipse cx="497" cy="246.9775" fill="#84BE84" rx="3" ry="3" style="stroke: #038048; stroke-width: 1.0;"/><text fill="#000000" font-family="sans-serif" font-size="11" lengthAdjust="spacingAndGlyphs" textLength="175" x="506" y="249.6348">Pessimist(sub : ConcreteSubject)</text><ellipse cx="497" cy="259.9326" fill="#84BE84" rx="3" ry="3" style="stroke: #038048; stroke-width: 1.0;"/><text fill="#000000" font-family="sans-serif" font-size="11" lengthAdjust="spacingAndGlyphs" textLength="77" x="506" y="262.5898">update() : void</text><!--class Subject--><rect fill="#FEFECE" filter="url(#ftv4p8c)" height="93.1309" style="stroke: #A80036; stroke-width: 1.5;" width="178" x="38.25" y="8.5"/><ellipse cx="94" cy="27.6328" fill="#B4A7E5" rx="11" ry="11" style="stroke: #A80036; stroke-width: 1.0;"/><path d="M89.9277,23.3979 L89.9277,21.2397 L97.3071,21.2397 L97.3071,23.3979 L94.8418,23.3979 L94.8418,31.4746 L97.3071,31.4746 L97.3071,33.6328 L89.9277,33.6328 L89.9277,31.4746 L92.3931,31.4746 L92.3931,23.3979 Z "/><text fill="#000000" font-family="sans-serif" font-size="12" font-style="italic" lengthAdjust="spacingAndGlyphs" textLength="62" x="112.5" y="25.1016">«interface»</text><text fill="#000000" font-family="sans-serif" font-size="12" font-style="italic" lengthAdjust="spacingAndGlyphs" textLength="42" x="122.5" y="39.2344">Subject</text><line style="stroke: #A80036; stroke-width: 1.5;" x1="39.25" x2="215.25" y1="46.7656" y2="46.7656"/><line style="stroke: #A80036; stroke-width: 1.5;" x1="39.25" x2="215.25" y1="54.7656" y2="54.7656"/><ellipse cx="49.25" cy="66.7432" fill="#84BE84" rx="3" ry="3" style="stroke: #038048; stroke-width: 1.0;"/><text fill="#000000" font-family="sans-serif" font-size="11" lengthAdjust="spacingAndGlyphs" textLength="149" x="58.25" y="69.4004">attach(obj : Observer) : void</text><ellipse cx="49.25" cy="79.6982" fill="#84BE84" rx="3" ry="3" style="stroke: #038048; stroke-width: 1.0;"/><text fill="#000000" font-family="sans-serif" font-size="11" lengthAdjust="spacingAndGlyphs" textLength="152" x="58.25" y="82.3555">detach(obj : Observer) : void</text><ellipse cx="49.25" cy="92.6533" fill="#84BE84" rx="3" ry="3" style="stroke: #038048; stroke-width: 1.0;"/><text fill="#000000" font-family="sans-serif" font-size="11" lengthAdjust="spacingAndGlyphs" textLength="127" x="58.25" y="95.3105">notifyObservers() : void</text><!--class TheEconomy--><rect fill="#FEFECE" filter="url(#ftv4p8c)" height="60.9551" style="stroke: #A80036; stroke-width: 1.5;" width="105" x="6" y="365.5"/><ellipse cx="21" cy="381.5" fill="#ADD1B2" rx="11" ry="11" style="stroke: #A80036; stroke-width: 1.0;"/><path d="M23.9731,387.1431 Q23.3921,387.4419 22.7529,387.5913 Q22.1138,387.7407 21.4082,387.7407 Q18.9014,387.7407 17.5815,386.0889 Q16.2617,384.437 16.2617,381.3159 Q16.2617,378.1865 17.5815,376.5347 Q18.9014,374.8828 21.4082,374.8828 Q22.1138,374.8828 22.7612,375.0322 Q23.4087,375.1816 23.9731,375.4805 L23.9731,378.2031 Q23.3423,377.6221 22.7488,377.3523 Q22.1553,377.0825 21.5244,377.0825 Q20.1797,377.0825 19.4949,378.1492 Q18.8101,379.2158 18.8101,381.3159 Q18.8101,383.4077 19.4949,384.4744 Q20.1797,385.541 21.5244,385.541 Q22.1553,385.541 22.7488,385.2712 Q23.3423,385.0015 23.9731,384.4204 Z "/><text fill="#000000" font-family="sans-serif" font-size="12" lengthAdjust="spacingAndGlyphs" textLength="73" x="35" y="386.0352">TheEconomy</text><line style="stroke: #A80036; stroke-width: 1.5;" x1="7" x2="110" y1="397.5" y2="397.5"/><line style="stroke: #A80036; stroke-width: 1.5;" x1="7" x2="110" y1="405.5" y2="405.5"/><ellipse cx="17" cy="417.4775" fill="#84BE84" rx="3" ry="3" style="stroke: #038048; stroke-width: 1.0;"/><text fill="#000000" font-family="sans-serif" font-size="11" lengthAdjust="spacingAndGlyphs" textLength="77" x="26" y="420.1348">TheEconomy()</text><path d="M268.768,392.7275 C395.106,387.0444 649.634,367.5457 704.25,302 C744.081,254.198 737.061,214.868 704.25,162 C687.197,134.522 660.669,113.948 632.023,98.622 " fill="none" style="stroke: #A80036; stroke-width: 1.0; stroke-dasharray: 7.0,7.0;"/><polygon fill="none" points="268.828,399.731,248.554,393.5676,268.246,385.7431,268.828,399.731" style="stroke: #A80036; stroke-width: 1.0;"/><path d="M127.25,121.61 C127.25,134.892 127.25,148.892 127.25,162.278 " fill="none" style="stroke: #A80036; stroke-width: 1.0; stroke-dasharray: 7.0,7.0;"/><polygon fill="none" points="120.25,121.522,127.25,101.522,134.25,121.522,120.25,121.522" style="stroke: #A80036; stroke-width: 1.0;"/><path d="M443.954,114.709 C423.038,141.232 398.991,171.727 380.77,194.834 " fill="none" style="stroke: #A80036; stroke-width: 1.0;"/><polygon fill="none" points="438.611,110.18,456.491,98.81,449.604,118.849,438.611,110.18" style="stroke: #A80036; stroke-width: 1.0;"/><path d="M523.489,116.592 C537.793,142.667 554.034,172.272 566.41,194.834 " fill="none" style="stroke: #A80036; stroke-width: 1.0;"/><polygon fill="none" points="517.216,119.711,513.734,98.81,529.491,112.978,517.216,119.711" style="stroke: #A80036; stroke-width: 1.0;"/><path d="M90.0415,320.359 C83.1409,336.5605 76.3857,352.4205 70.8894,365.325 " fill="none" style="stroke: #A80036; stroke-width: 1.0;"/><polygon fill="none" points="83.7103,317.36,97.9878,301.703,96.5907,322.846,83.7103,317.36" style="stroke: #A80036; stroke-width: 1.0;"/><path d="M376.791,98.574 C332.208,116.53 281.074,138.673 236.25,162 C230.389,165.05 224.432,168.313 218.478,171.7 " fill="none" style="stroke: #A80036; stroke-width: 1.0;"/><path d="M144.318,301.703 C152.957,322.744 163.257,344.9196 172.686,362.3692 " fill="none" style="stroke: #A80036; stroke-width: 1.0;"/><text fill="#000000" font-family="sans-serif" font-size="13" lengthAdjust="spacingAndGlyphs" textLength="6" x="160.7336" y="351.704">*</text><path d="M170.297,301.703 C178.972,320.772 187.03,340.7717 192.588,357.3417 " fill="none" style="stroke: #A80036; stroke-width: 1.0; stroke-dasharray: 7.0,7.0;"/><polygon fill="#A80036" points="194.23,362.3692,195.2374,352.572,192.6773,357.6164,187.6329,355.0563,194.23,362.3692" style="stroke: #A80036; stroke-width: 1.0;"/></g></svg>