<?xml version="1.0" encoding="UTF-8" standalone="no"?><svg xmlns="http://www.w3.org/2000/svg" xmlns:xlink="http://www.w3.org/1999/xlink" contentScriptType="application/ecmascript" contentStyleType="text/css" height="226px" preserveAspectRatio="none" style="width:141px;height:226px;" version="1.1" viewBox="0 0 141 226" width="141px" zoomAndPan="magnify"><defs><filter height="300%" id="f16n93i" width="300%" x="-1" y="-1"><feGaussianBlur result="blurOut" stdDeviation="2.0"/><feColorMatrix in="blurOut" result="blurOut2" type="matrix" values="0 0 0 0 0 0 0 0 0 0 0 0 0 0 0 0 0 0 .4 0"/><feOffset dx="4.0" dy="4.0" in="blurOut2" result="blurOut3"/><feBlend in="SourceGraphic" in2="blurOut3" mode="normal"/></filter></defs><g><!--class ClassA--><rect fill="#FEFECE" filter="url(#f16n93i)" height="86.8652" style="stroke: #A80036; stroke-width: 1.5;" width="126" x="6" y="8.5"/><ellipse cx="46.2" cy="24.5" fill="#ADD1B2" rx="11" ry="11" style="stroke: #A80036; stroke-width: 1.0;"/><path d="M49.1731,30.1431 Q48.5921,30.4419 47.9529,30.5913 Q47.3138,30.7407 46.6082,30.7407 Q44.1014,30.7407 42.7815,29.0889 Q41.4617,27.437 41.4617,24.3159 Q41.4617,21.1865 42.7815,19.5347 Q44.1014,17.8828 46.6082,17.8828 Q47.3138,17.8828 47.9612,18.0322 Q48.6087,18.1816 49.1731,18.4805 L49.1731,21.2031 Q48.5423,20.6221 47.9488,20.3523 Q47.3553,20.0825 46.7244,20.0825 Q45.3797,20.0825 44.6949,21.1492 Q44.0101,22.2158 44.0101,24.3159 Q44.0101,26.4077 44.6949,27.4744 Q45.3797,28.541 46.7244,28.541 Q47.3553,28.541 47.9488,28.2712 Q48.5423,28.0015 49.1731,27.4204 Z "/><text fill="#000000" font-family="sans-serif" font-size="12" lengthAdjust="spacingAndGlyphs" textLength="38" x="65.8" y="29.0352">ClassA</text><line style="stroke: #A80036; stroke-width: 1.5;" x1="7" x2="131" y1="40.5" y2="40.5"/><rect fill="none" height="6" style="stroke: #C82930; stroke-width: 1.0;" width="6" x="14" y="49.4775"/><text fill="#000000" font-family="sans-serif" font-size="11" lengthAdjust="spacingAndGlyphs" textLength="65" x="26" y="55.1348">bark : String</text><ellipse cx="17" cy="65.4326" fill="none" rx="3" ry="3" style="stroke: #038048; stroke-width: 1.0;"/><text fill="#000000" font-family="sans-serif" font-size="11" lengthAdjust="spacingAndGlyphs" textLength="88" x="26" y="68.0898">message : String</text><line style="stroke: #A80036; stroke-width: 1.5;" x1="7" x2="131" y1="74.4102" y2="74.4102"/><ellipse cx="17" cy="86.3877" fill="#84BE84" rx="3" ry="3" style="stroke: #038048; stroke-width: 1.0;"/><text fill="#000000" font-family="sans-serif" font-size="11" lengthAdjust="spacingAndGlyphs" textLength="100" x="26" y="89.0449">testMethod() : void</text><!--class ClassB--><rect fill="#FEFECE" filter="url(#f16n93i)" height="60.9551" style="stroke: #A80036; stroke-width: 1.5;" width="93" x="22.75" y="156.5"/><ellipse cx="48.55" cy="172.5" fill="#ADD1B2" rx="11" ry="11" style="stroke: #A80036; stroke-width: 1.0;"/><path d="M51.5231,178.1431 Q50.9421,178.4419 50.3029,178.5913 Q49.6638,178.7407 48.9582,178.7407 Q46.4514,178.7407 45.1315,177.0889 Q43.8117,175.437 43.8117,172.3159 Q43.8117,169.1865 45.1315,167.5347 Q46.4514,165.8828 48.9582,165.8828 Q49.6638,165.8828 50.3112,166.0322 Q50.9587,166.1816 51.5231,166.4805 L51.5231,169.2031 Q50.8923,168.6221 50.2988,168.3523 Q49.7053,168.0825 49.0744,168.0825 Q47.7297,168.0825 47.0449,169.1492 Q46.3601,170.2158 46.3601,172.3159 Q46.3601,174.4077 47.0449,175.4744 Q47.7297,176.541 49.0744,176.541 Q49.7053,176.541 50.2988,176.2712 Q50.8923,176.0015 51.5231,175.4204 Z "/><text fill="#000000" font-family="sans-serif" font-size="12" lengthAdjust="spacingAndGlyphs" textLength="37" x="64.95" y="177.0352">ClassB</text><line style="stroke: #A80036; stroke-width: 1.5;" x1="23.75" x2="114.75" y1="188.5" y2="188.5"/><rect fill="none" height="6" style="stroke: #C82930; stroke-width: 1.0;" width="6" x="30.75" y="197.4775"/><text fill="#000000" font-family="sans-serif" font-size="11" lengthAdjust="spacingAndGlyphs" textLength="67" x="42.75" y="203.1348">hello : String</text><line style="stroke: #A80036; stroke-width: 1.5;" x1="23.75" x2="114.75" y1="209.4551" y2="209.4551"/><path d="M69,115.99 C69,130.064 69,144.3488 69,156.3126 " fill="none" style="stroke: #A80036; stroke-width: 1.0;"/><polygon fill="none" points="62.0001,115.814,69,95.814,76.0001,115.814,62.0001,115.814" style="stroke: #A80036; stroke-width: 1.0;"/></g></svg>