<?xml version="1.0" encoding="UTF-8" standalone="no"?>
<!DOCTYPE svg PUBLIC "-//W3C//DTD SVG 1.1//EN"
 "http://www.w3.org/Graphics/SVG/1.1/DTD/svg11.dtd">
<!-- Generated by graphviz version 2.36.0 (20140111.2315)
 -->
<!-- Title: G Pages: 1 -->
<svg width="156pt" height="454pt"
 viewBox="0.00 0.00 156.00 454.00" xmlns="http://www.w3.org/2000/svg" xmlns:xlink="http://www.w3.org/1999/xlink">
<g id="graph0" class="graph" transform="scale(1 1) rotate(0) translate(4 450)">
<title>G</title>
<polygon fill="white" stroke="none" points="-4,4 -4,-450 152,-450 152,4 -4,4"/>
<!-- c191 -->
<g id="node1" class="node"><title>c191</title>
<g id="a_node1"><a xlink:href="./ClassGraph.FieldRelationInfo.html" xlink:title="&lt;TABLE&gt;">
</a>
</g>
<g id="a_node1_0"><a xlink:href="./ClassGraph.FieldRelationInfo.html" xlink:title="org.umlgraph.doclet.ClassGraph.FieldRelationInfo" target="_parent">
<polygon fill="lemonChiffon" stroke="none" points="32,-418.5 32,-437.5 116,-437.5 116,-418.5 32,-418.5"/>
<polygon fill="none" stroke="black" points="32,-418 32,-437 116,-437 116,-418 32,-418"/>
<text text-anchor="start" x="36.5" y="-425.3" font-family="arial" font-size="9.00"> FieldRelationInfo </text>
</a>
</g>
<g><a xlink:href="./ClassGraph.FieldRelationInfo.html" xlink:title="&lt;TABLE&gt;">
</a>
</g>
</g>
<!-- c192 -->
<g id="node2" class="node"><title>c192</title>
<g id="a_node2"><a xlink:href="http://docs.oracle.com/javase/7/docs/jdk/api/javadoc/doclet/com/sun/javadoc/ClassDoc.html" xlink:title="&lt;TABLE&gt;">
</a>
</g>
<g id="a_node2_1"><a xlink:href="http://docs.oracle.com/javase/7/docs/jdk/api/javadoc/doclet/com/sun/javadoc/ClassDoc.html" xlink:title="com.sun.javadoc.ClassDoc" target="_parent">
<polygon fill="none" stroke="black" points="8,-328 8,-369 141,-369 141,-328 8,-328"/>
<text text-anchor="start" x="49" y="-357.3" font-family="arial" font-size="9.00"> «interface» </text>
<text text-anchor="start" x="51.5" y="-344.8" font-family="arial" font-size="9.00"> ClassDoc </text>
<text text-anchor="start" x="45" y="-334.4" font-family="arial" font-size="7.00"> com.sun.javadoc </text>
<polygon fill="none" stroke="black" points="8,-310 8,-328 141,-328 141,-310 8,-310"/>
<text text-anchor="start" x="12" y="-316.8" font-family="arial" font-size="9.00"> &#160;</text>
<polygon fill="none" stroke="black" points="8,-4 8,-310 141,-310 141,-4 8,-4"/>
<text text-anchor="start" x="12" y="-298.8" font-family="arial italic" font-size="9.00"> + isAbstract() </text>
<text text-anchor="start" x="12" y="-286.8" font-family="arial italic" font-size="9.00"> + isSerializable() </text>
<text text-anchor="start" x="12" y="-274.8" font-family="arial italic" font-size="9.00"> + isExternalizable() </text>
<text text-anchor="start" x="12" y="-262.8" font-family="arial italic" font-size="9.00"> + serializationMethods() </text>
<text text-anchor="start" x="12" y="-250.8" font-family="arial italic" font-size="9.00"> + serializableFields() </text>
<text text-anchor="start" x="12" y="-238.8" font-family="arial italic" font-size="9.00"> + definesSerializableFields() </text>
<text text-anchor="start" x="12" y="-226.8" font-family="arial italic" font-size="9.00"> + superclass() </text>
<text text-anchor="start" x="12" y="-214.8" font-family="arial italic" font-size="9.00"> + superclassType() </text>
<text text-anchor="start" x="12" y="-202.8" font-family="arial italic" font-size="9.00"> + subclassOf() </text>
<text text-anchor="start" x="12" y="-190.8" font-family="arial italic" font-size="9.00"> + interfaces() </text>
<text text-anchor="start" x="12" y="-178.8" font-family="arial italic" font-size="9.00"> + interfaceTypes() </text>
<text text-anchor="start" x="12" y="-166.8" font-family="arial italic" font-size="9.00"> + typeParameters() </text>
<text text-anchor="start" x="12" y="-154.8" font-family="arial italic" font-size="9.00"> + typeParamTags() </text>
<text text-anchor="start" x="12" y="-142.8" font-family="arial italic" font-size="9.00"> + fields() </text>
<text text-anchor="start" x="12" y="-130.8" font-family="arial italic" font-size="9.00"> + fields() </text>
<text text-anchor="start" x="12" y="-118.8" font-family="arial italic" font-size="9.00"> + enumConstants() </text>
<text text-anchor="start" x="12" y="-106.8" font-family="arial italic" font-size="9.00"> + methods() </text>
<text text-anchor="start" x="12" y="-94.8" font-family="arial italic" font-size="9.00"> + methods() </text>
<text text-anchor="start" x="12" y="-82.8" font-family="arial italic" font-size="9.00"> + constructors() </text>
<text text-anchor="start" x="12" y="-70.8" font-family="arial italic" font-size="9.00"> + constructors() </text>
<text text-anchor="start" x="12" y="-58.8" font-family="arial italic" font-size="9.00"> + innerClasses() </text>
<text text-anchor="start" x="12" y="-46.8" font-family="arial italic" font-size="9.00"> + innerClasses() </text>
<text text-anchor="start" x="12" y="-34.8" font-family="arial italic" font-size="9.00"> + findClass() </text>
<text text-anchor="start" x="12" y="-22.8" font-family="arial italic" font-size="9.00"> + importedClasses() </text>
<text text-anchor="start" x="12" y="-10.8" font-family="arial italic" font-size="9.00"> + importedPackages() </text>
</a>
</g>
<g><a xlink:href="http://docs.oracle.com/javase/7/docs/jdk/api/javadoc/doclet/com/sun/javadoc/ClassDoc.html" xlink:title="&lt;TABLE&gt;">
</a>
</g>
</g>
<!-- c191&#45;&gt;c192 -->
<g id="edge1" class="edge"><title>c191:p&#45;&gt;c192:p</title>
<path fill="none" stroke="black" d="M74,-418.494C74,-410.257 74,-396.579 74,-379.874"/>
<polygon fill="black" stroke="black" points="74,-369.707 78.5001,-379.707 74,-374.707 74.0001,-379.707 74.0001,-379.707 74.0001,-379.707 74,-374.707 69.5001,-379.707 74,-369.707 74,-369.707"/>
</g>
</g>
</svg>
