<?xml version="1.0" encoding="UTF-8" standalone="no"?>
<!DOCTYPE svg PUBLIC "-//W3C//DTD SVG 1.1//EN"
 "http://www.w3.org/Graphics/SVG/1.1/DTD/svg11.dtd">
<!-- Generated by graphviz version 2.36.0 (20140111.2315)
 -->
<!-- Title: G Pages: 1 -->
<svg width="162pt" height="980pt"
 viewBox="0.00 0.00 162.00 980.00" xmlns="http://www.w3.org/2000/svg" xmlns:xlink="http://www.w3.org/1999/xlink">
<g id="graph0" class="graph" transform="scale(1 1) rotate(0) translate(4 976)">
<title>G</title>
<polygon fill="white" stroke="none" points="-4,4 -4,-976 158,-976 158,4 -4,4"/>
<!-- c235 -->
<g id="node1" class="node"><title>c235</title>
<g id="a_node1"><a xlink:href="./RelationPattern.html" xlink:title="&lt;TABLE&gt;">
</a>
</g>
<g id="a_node1_0"><a xlink:href="./RelationPattern.html" xlink:title="org.umlgraph.doclet.RelationPattern" target="_parent">
<polygon fill="none" stroke="black" points="37,-52 37,-71 118,-71 118,-52 37,-52"/>
<text text-anchor="start" x="43" y="-59.3" font-family="arial" font-size="9.00"> RelationPattern </text>
<polygon fill="none" stroke="black" points="37,-34 37,-52 118,-52 118,-34 37,-34"/>
<text text-anchor="start" x="41" y="-40.8" font-family="arial" font-size="9.00"> &#160;</text>
<polygon fill="none" stroke="black" points="37,-4 37,-34 118,-34 118,-4 37,-4"/>
<text text-anchor="start" x="41" y="-22.8" font-family="arial" font-size="9.00"> + addRelation() </text>
<text text-anchor="start" x="41" y="-10.8" font-family="arial" font-size="9.00"> + matchesOne() </text>
</a>
</g>
<g><a xlink:href="./RelationPattern.html" xlink:title="&lt;TABLE&gt;">
</a>
</g>
</g>
<!-- c248 -->
<g id="node2" class="node"><title>c248</title>
<g id="a_node2"><a xlink:href="./ClassInfo.html" xlink:title="&lt;TABLE&gt;">
</a>
</g>
<g id="a_node2_1"><a xlink:href="./ClassInfo.html" xlink:title="org.umlgraph.doclet.ClassInfo" target="_parent">
<polygon fill="lemonChiffon" stroke="none" points="38,-116.5 38,-195.5 116,-195.5 116,-116.5 38,-116.5"/>
<polygon fill="none" stroke="black" points="38,-176 38,-195 116,-195 116,-176 38,-176"/>
<text text-anchor="start" x="54.5" y="-183.3" font-family="arial" font-size="9.00"> ClassInfo </text>
<polygon fill="none" stroke="black" points="38,-158 38,-176 116,-176 116,-158 38,-158"/>
<text text-anchor="start" x="42" y="-164.8" font-family="arial" font-size="9.00"> &#160;</text>
<polygon fill="none" stroke="black" points="38,-116 38,-158 116,-158 116,-116 38,-116"/>
<text text-anchor="start" x="42" y="-146.8" font-family="arial" font-size="9.00"> + addRelation() </text>
<text text-anchor="start" x="42" y="-134.8" font-family="arial" font-size="9.00"> + getRelation() </text>
<text text-anchor="start" x="42" y="-122.8" font-family="arial" font-size="9.00"> + reset() </text>
</a>
</g>
<g><a xlink:href="./ClassInfo.html" xlink:title="&lt;TABLE&gt;">
</a>
</g>
</g>
<!-- c248&#45;&gt;c235 -->
<g id="edge2" class="edge"><title>c248:p&#45;&gt;c235:p</title>
<path fill="none" stroke="black" d="M77,-116.374C77,-105.272 77,-93.1014 77,-81.7659"/>
<polygon fill="black" stroke="black" points="77,-71.6453 81.5001,-81.6453 77,-76.6453 77.0001,-81.6453 77.0001,-81.6453 77.0001,-81.6453 77,-76.6453 72.5001,-81.6454 77,-71.6453 77,-71.6453"/>
<text text-anchor="middle" x="75" y="-74.6453" font-family="arial" font-size="10.00">*</text>
</g>
<!-- c249 -->
<g id="node3" class="node"><title>c249</title>
<g id="a_node3"><a xlink:href="./ClassGraph.html" xlink:title="&lt;TABLE&gt;">
</a>
</g>
<g id="a_node3_2"><a xlink:href="./ClassGraph.html" xlink:title="org.umlgraph.doclet.ClassGraph" target="_parent">
<polygon fill="none" stroke="black" points="8,-948 8,-967 146,-967 146,-948 8,-948"/>
<text text-anchor="start" x="49.5" y="-955.3" font-family="arial" font-size="9.00"> ClassGraph </text>
<polygon fill="none" stroke="black" points="8,-930 8,-948 146,-948 146,-930 8,-930"/>
<text text-anchor="start" x="12" y="-936.8" font-family="arial" font-size="9.00"> &#160;</text>
<polygon fill="none" stroke="black" points="8,-240 8,-930 146,-930 146,-240 8,-240"/>
<text text-anchor="start" x="12" y="-918.8" font-family="arial" font-size="9.00"> &#45; qualifiedName() </text>
<text text-anchor="start" x="12" y="-906.8" font-family="arial" font-size="9.00"> &#45; escape() </text>
<text text-anchor="start" x="12" y="-894.8" font-family="arial" font-size="9.00"> &#45; htmlNewline() </text>
<text text-anchor="start" x="12" y="-882.8" font-family="arial" font-size="9.00"> &#45; guillemize() </text>
<text text-anchor="start" x="12" y="-870.8" font-family="arial" font-size="9.00"> &#45; guilWrap() </text>
<text text-anchor="start" x="12" y="-858.8" font-family="arial" font-size="9.00"> &#45; visibility() </text>
<text text-anchor="start" x="12" y="-846.8" font-family="arial" font-size="9.00"> &#45; parameter() </text>
<text text-anchor="start" x="12" y="-834.8" font-family="arial" font-size="9.00"> &#45; type() </text>
<text text-anchor="start" x="12" y="-822.8" font-family="arial" font-size="9.00"> &#45; typeParameters() </text>
<text text-anchor="start" x="12" y="-810.8" font-family="arial" font-size="9.00"> &#45; typeAnnotation() </text>
<text text-anchor="start" x="12" y="-798.8" font-family="arial" font-size="9.00"> &#45; attributes() </text>
<text text-anchor="start" x="12" y="-786.8" font-family="arial" font-size="9.00"> &#45; operations() </text>
<text text-anchor="start" x="12" y="-774.8" font-family="arial" font-size="9.00"> &#45; operations() </text>
<text text-anchor="start" x="12" y="-762.8" font-family="arial" font-size="9.00"> &#45; nodeProperties() </text>
<text text-anchor="start" x="12" y="-750.8" font-family="arial" font-size="9.00"> &#45; tagvalue() </text>
<text text-anchor="start" x="12" y="-738.8" font-family="arial" font-size="9.00"> &#45; stereotype() </text>
<text text-anchor="start" x="12" y="-726.8" font-family="arial" font-size="9.00"> &#45; hidden() </text>
<text text-anchor="start" x="12" y="-714.8" font-family="arial" font-size="9.00"> # getClassInfo() </text>
<text text-anchor="start" x="12" y="-702.8" font-family="arial" font-size="9.00"> &#45; newClassInfo() </text>
<text text-anchor="start" x="12" y="-690.8" font-family="arial" font-size="9.00"> &#45; hidden() </text>
<text text-anchor="start" x="12" y="-678.8" font-family="arial" font-size="9.00"> + printClass() </text>
<text text-anchor="start" x="12" y="-666.8" font-family="arial" font-size="9.00"> &#45; getNodeName() </text>
<text text-anchor="start" x="12" y="-654.8" font-family="arial" font-size="9.00"> &#45; getNodeName() </text>
<text text-anchor="start" x="12" y="-642.8" font-family="arial" font-size="9.00"> &#45; allRelation() </text>
<text text-anchor="start" x="12" y="-630.8" font-family="arial" font-size="9.00"> &#45; relation() </text>
<text text-anchor="start" x="12" y="-618.8" font-family="arial" font-size="9.00"> &#45; relation() </text>
<text text-anchor="start" x="12" y="-606.8" font-family="arial" font-size="9.00"> &#45; relationNode() </text>
<text text-anchor="start" x="12" y="-594.8" font-family="arial" font-size="9.00"> &#45; relationNode() </text>
<text text-anchor="start" x="12" y="-582.8" font-family="arial" font-size="9.00"> + printRelations() </text>
<text text-anchor="start" x="12" y="-570.8" font-family="arial" font-size="9.00"> + printExtraClasses() </text>
<text text-anchor="start" x="12" y="-558.8" font-family="arial" font-size="9.00"> + printInferredRelations() </text>
<text text-anchor="start" x="12" y="-546.8" font-family="arial" font-size="9.00"> + printInferredRelations() </text>
<text text-anchor="start" x="12" y="-534.8" font-family="arial" font-size="9.00"> + printInferredDependencies() </text>
<text text-anchor="start" x="12" y="-522.8" font-family="arial" font-size="9.00"> ~ importedClasses() </text>
<text text-anchor="start" x="12" y="-510.8" font-family="arial" font-size="9.00"> + printInferredDependencies() </text>
<text text-anchor="start" x="12" y="-498.8" font-family="arial" font-size="9.00"> &#45; filterByVisibility() </text>
<text text-anchor="start" x="12" y="-486.8" font-family="arial" font-size="9.00"> &#45; getFieldRelationInfo() </text>
<text text-anchor="start" x="12" y="-474.8" font-family="arial" font-size="9.00"> &#45; getInterfaceTypeArguments() </text>
<text text-anchor="start" x="12" y="-462.8" font-family="arial" font-size="9.00"> &#45; removeTemplate() </text>
<text text-anchor="start" x="12" y="-450.8" font-family="arial" font-size="9.00"> + classToUrl() </text>
<text text-anchor="start" x="12" y="-438.8" font-family="arial" font-size="9.00"> # buildRelativePath() </text>
<text text-anchor="start" x="12" y="-426.8" font-family="arial" font-size="9.00"> &#45; getPackageName() </text>
<text text-anchor="start" x="12" y="-414.8" font-family="arial" font-size="9.00"> &#45; getUnqualifiedName() </text>
<text text-anchor="start" x="12" y="-402.8" font-family="arial" font-size="9.00"> + classToUrl() </text>
<text text-anchor="start" x="12" y="-390.8" font-family="arial" font-size="9.00"> &#45; mapApiDocRoot() </text>
<text text-anchor="start" x="12" y="-378.8" font-family="arial" font-size="9.00"> + prologue() </text>
<text text-anchor="start" x="12" y="-366.8" font-family="arial" font-size="9.00"> + epilogue() </text>
<text text-anchor="start" x="12" y="-354.8" font-family="arial" font-size="9.00"> &#45; externalTableStart() </text>
<text text-anchor="start" x="12" y="-342.8" font-family="arial" font-size="9.00"> &#45; externalTableEnd() </text>
<text text-anchor="start" x="12" y="-330.8" font-family="arial" font-size="9.00"> &#45; innerTableStart() </text>
<text text-anchor="start" x="12" y="-318.8" font-family="arial" font-size="9.00"> &#45; firstInnerTableStart() </text>
<text text-anchor="start" x="12" y="-306.8" font-family="arial" font-size="9.00"> &#45; innerTableEnd() </text>
<text text-anchor="start" x="12" y="-294.8" font-family="arial" font-size="9.00"> &#45; firstInnerTableEnd() </text>
<text text-anchor="start" x="12" y="-282.8" font-family="arial" font-size="9.00"> &#45; tableLine() </text>
<text text-anchor="start" x="12" y="-270.8" font-family="arial" font-size="9.00"> &#45; tableLine() </text>
<text text-anchor="start" x="12" y="-258.8" font-family="arial" font-size="9.00"> &#45; fontWrap() </text>
<text text-anchor="start" x="12" y="-246.8" font-family="arial" font-size="9.00"> &#45; fontWrap() </text>
</a>
</g>
<g><a xlink:href="./ClassGraph.html" xlink:title="&lt;TABLE&gt;">
</a>
</g>
</g>
<!-- c249&#45;&gt;c248 -->
<g id="edge1" class="edge"><title>c249:p&#45;&gt;c248:p</title>
<path fill="none" stroke="black" d="M77,-228.005C77,-216.006 77,-205.126 77,-195.69"/>
<polygon fill="black" stroke="black" points="77.0001,-228.366 81,-234.366 77,-240.366 73,-234.366 77.0001,-228.366"/>
<text text-anchor="middle" x="75" y="-198.69" font-family="arial" font-size="10.00">*</text>
</g>
</g>
</svg>
