<?xml version="1.0" encoding="UTF-8" standalone="no"?>
<!DOCTYPE svg PUBLIC "-//W3C//DTD SVG 1.1//EN"
 "http://www.w3.org/Graphics/SVG/1.1/DTD/svg11.dtd">
<!-- Generated by graphviz version 2.36.0 (20140111.2315)
 -->
<!-- Title: G Pages: 1 -->
<svg width="122pt" height="232pt"
 viewBox="0.00 0.00 122.00 232.00" xmlns="http://www.w3.org/2000/svg" xmlns:xlink="http://www.w3.org/1999/xlink">
<g id="graph0" class="graph" transform="scale(1 1) rotate(0) translate(4 228)">
<title>G</title>
<polygon fill="white" stroke="none" points="-4,4 -4,-228 118,-228 118,4 -4,4"/>
<!-- c367 -->
<g id="node1" class="node"><title>c367</title>
<g id="a_node1"><a xlink:href="./ContextMatcher.html" xlink:title="&lt;TABLE&gt;">
</a>
</g>
<g id="a_node1_0"><a xlink:href="./ContextMatcher.html" xlink:title="org.umlgraph.doclet.ContextMatcher" target="_parent">
<polygon fill="none" stroke="black" points="8,-200 8,-219 107,-219 107,-200 8,-200"/>
<text text-anchor="start" x="23.5" y="-207.3" font-family="arial" font-size="9.00"> ContextMatcher </text>
<polygon fill="none" stroke="black" points="8,-182 8,-200 107,-200 107,-182 8,-182"/>
<text text-anchor="start" x="12" y="-188.8" font-family="arial" font-size="9.00"> &#160;</text>
<polygon fill="none" stroke="black" points="8,-128 8,-182 107,-182 107,-128 8,-128"/>
<text text-anchor="start" x="12" y="-170.8" font-family="arial" font-size="9.00"> + setContextCenter() </text>
<text text-anchor="start" x="12" y="-158.8" font-family="arial" font-size="9.00"> &#45; addToGraph() </text>
<text text-anchor="start" x="12" y="-146.8" font-family="arial" font-size="9.00"> + matches() </text>
<text text-anchor="start" x="12" y="-134.8" font-family="arial" font-size="9.00"> + matches() </text>
</a>
</g>
<g><a xlink:href="./ContextMatcher.html" xlink:title="&lt;TABLE&gt;">
</a>
</g>
</g>
<!-- c369 -->
<g id="node2" class="node"><title>c369</title>
<g id="a_node2"><a xlink:href="./ContextMatcher.DevNullWriter.html" xlink:title="&lt;TABLE&gt;">
</a>
</g>
<g id="a_node2_1"><a xlink:href="./ContextMatcher.DevNullWriter.html" xlink:title="org.umlgraph.doclet.ContextMatcher.DevNullWriter" target="_parent">
<polygon fill="lemonChiffon" stroke="none" points="22,-4.5 22,-83.5 92,-83.5 92,-4.5 22,-4.5"/>
<polygon fill="none" stroke="black" points="22,-64 22,-83 92,-83 92,-64 22,-64"/>
<text text-anchor="start" x="26.5" y="-71.3" font-family="arial" font-size="9.00"> DevNullWriter </text>
<polygon fill="none" stroke="black" points="22,-46 22,-64 92,-64 92,-46 22,-46"/>
<text text-anchor="start" x="26" y="-52.8" font-family="arial" font-size="9.00"> &#160;</text>
<polygon fill="none" stroke="black" points="22,-4 22,-46 92,-46 92,-4 22,-4"/>
<text text-anchor="start" x="26" y="-34.8" font-family="arial" font-size="9.00"> + write() </text>
<text text-anchor="start" x="26" y="-22.8" font-family="arial" font-size="9.00"> + flush() </text>
<text text-anchor="start" x="26" y="-10.8" font-family="arial" font-size="9.00"> + close() </text>
</a>
</g>
<g><a xlink:href="./ContextMatcher.DevNullWriter.html" xlink:title="&lt;TABLE&gt;">
</a>
</g>
</g>
<!-- c367&#45;&gt;c369 -->
<g id="edge1" class="edge"><title>c367:p&#45;&gt;c369:p</title>
<path fill="none" stroke="black" stroke-dasharray="5,2" d="M57,-128.232C57,-117.082 57,-105.074 57,-93.7435"/>
<polygon fill="black" stroke="black" points="57,-83.5724 61.5001,-93.5723 57,-88.5724 57.0001,-93.5724 57.0001,-93.5724 57.0001,-93.5724 57,-88.5724 52.5001,-93.5724 57,-83.5724 57,-83.5724"/>
</g>
</g>
</svg>
