<?xml version="1.0" encoding="UTF-8" standalone="no"?>
<!DOCTYPE svg PUBLIC "-//W3C//DTD SVG 1.1//EN"
 "http://www.w3.org/Graphics/SVG/1.1/DTD/svg11.dtd">
<!-- Generated by graphviz version 2.36.0 (20140111.2315)
 -->
<!-- Title: G Pages: 1 -->
<svg width="295pt" height="844pt"
 viewBox="0.00 0.00 295.00 844.00" xmlns="http://www.w3.org/2000/svg" xmlns:xlink="http://www.w3.org/1999/xlink">
<g id="graph0" class="graph" transform="scale(1 1) rotate(0) translate(4 840)">
<title>G</title>
<polygon fill="white" stroke="none" points="-4,4 -4,-840 291,-840 291,4 -4,4"/>
<!-- c337 -->
<g id="node1" class="node"><title>c337</title>
<g id="a_node1"><a xlink:href="./ContextMatcher.html" xlink:title="&lt;TABLE&gt;">
</a>
</g>
<g id="a_node1_0"><a xlink:href="./ContextMatcher.html" xlink:title="org.umlgraph.doclet.ContextMatcher" target="_parent">
<polygon fill="none" stroke="black" points="8,-494 8,-513 107,-513 107,-494 8,-494"/>
<text text-anchor="start" x="23.5" y="-501.3" font-family="arial" font-size="9.00"> ContextMatcher </text>
<polygon fill="none" stroke="black" points="8,-476 8,-494 107,-494 107,-476 8,-476"/>
<text text-anchor="start" x="12" y="-482.8" font-family="arial" font-size="9.00"> &#160;</text>
<polygon fill="none" stroke="black" points="8,-422 8,-476 107,-476 107,-422 8,-422"/>
<text text-anchor="start" x="12" y="-464.8" font-family="arial" font-size="9.00"> + setContextCenter() </text>
<text text-anchor="start" x="12" y="-452.8" font-family="arial" font-size="9.00"> &#45; addToGraph() </text>
<text text-anchor="start" x="12" y="-440.8" font-family="arial" font-size="9.00"> + matches() </text>
<text text-anchor="start" x="12" y="-428.8" font-family="arial" font-size="9.00"> + matches() </text>
</a>
</g>
<g><a xlink:href="./ContextMatcher.html" xlink:title="&lt;TABLE&gt;">
</a>
</g>
</g>
<!-- c338 -->
<g id="node2" class="node"><title>c338</title>
<g id="a_node2"><a xlink:href="./ContextMatcher.ClassGraphHack.html" xlink:title="&lt;TABLE&gt;">
</a>
</g>
<g id="a_node2_1"><a xlink:href="./ContextMatcher.ClassGraphHack.html" xlink:title="org.umlgraph.doclet.ContextMatcher.ClassGraphHack" target="_parent">
<polygon fill="lemonChiffon" stroke="none" points="90.5,-4.5 90.5,-59.5 175.5,-59.5 175.5,-4.5 90.5,-4.5"/>
<polygon fill="none" stroke="black" points="91,-40 91,-59 176,-59 176,-40 91,-40"/>
<text text-anchor="start" x="95.5" y="-47.3" font-family="arial" font-size="9.00"> ClassGraphHack </text>
<polygon fill="none" stroke="black" points="91,-22 91,-40 176,-40 176,-22 91,-22"/>
<text text-anchor="start" x="95" y="-28.8" font-family="arial" font-size="9.00"> &#160;</text>
<polygon fill="none" stroke="black" points="91,-4 91,-22 176,-22 176,-4 91,-4"/>
<text text-anchor="start" x="95" y="-10.8" font-family="arial" font-size="9.00"> + prologue() </text>
</a>
</g>
<g><a xlink:href="./ContextMatcher.ClassGraphHack.html" xlink:title="&lt;TABLE&gt;">
</a>
</g>
</g>
<!-- c337&#45;&gt;c338 -->
<g id="edge2" class="edge"><title>c337:p&#45;&gt;c338:p</title>
<path fill="none" stroke="black" d="M64.8471,-422.189C79.928,-336.069 112.693,-148.965 126.576,-69.6824"/>
<polygon fill="black" stroke="black" points="128.329,-59.6746 131.036,-70.3009 127.466,-64.5996 126.604,-69.5247 126.604,-69.5247 126.604,-69.5247 127.466,-64.5996 122.171,-68.7484 128.329,-59.6746 128.329,-59.6746"/>
</g>
<!-- c342 -->
<g id="node3" class="node"><title>c342</title>
<g id="a_node3"><a xlink:href="./ClassGraph.html" xlink:title="&lt;TABLE&gt;">
</a>
</g>
<g id="a_node3_2"><a xlink:href="./ClassGraph.html" xlink:title="org.umlgraph.doclet.ClassGraph" target="_parent">
<polygon fill="none" stroke="black" points="141,-812 141,-831 279,-831 279,-812 141,-812"/>
<text text-anchor="start" x="182.5" y="-819.3" font-family="arial" font-size="9.00"> ClassGraph </text>
<polygon fill="none" stroke="black" points="141,-794 141,-812 279,-812 279,-794 141,-794"/>
<text text-anchor="start" x="145" y="-800.8" font-family="arial" font-size="9.00"> &#160;</text>
<polygon fill="none" stroke="black" points="141,-104 141,-794 279,-794 279,-104 141,-104"/>
<text text-anchor="start" x="145" y="-782.8" font-family="arial" font-size="9.00"> &#45; qualifiedName() </text>
<text text-anchor="start" x="145" y="-770.8" font-family="arial" font-size="9.00"> &#45; escape() </text>
<text text-anchor="start" x="145" y="-758.8" font-family="arial" font-size="9.00"> &#45; htmlNewline() </text>
<text text-anchor="start" x="145" y="-746.8" font-family="arial" font-size="9.00"> &#45; guillemize() </text>
<text text-anchor="start" x="145" y="-734.8" font-family="arial" font-size="9.00"> &#45; guilWrap() </text>
<text text-anchor="start" x="145" y="-722.8" font-family="arial" font-size="9.00"> &#45; visibility() </text>
<text text-anchor="start" x="145" y="-710.8" font-family="arial" font-size="9.00"> &#45; parameter() </text>
<text text-anchor="start" x="145" y="-698.8" font-family="arial" font-size="9.00"> &#45; type() </text>
<text text-anchor="start" x="145" y="-686.8" font-family="arial" font-size="9.00"> &#45; typeParameters() </text>
<text text-anchor="start" x="145" y="-674.8" font-family="arial" font-size="9.00"> &#45; typeAnnotation() </text>
<text text-anchor="start" x="145" y="-662.8" font-family="arial" font-size="9.00"> &#45; attributes() </text>
<text text-anchor="start" x="145" y="-650.8" font-family="arial" font-size="9.00"> &#45; operations() </text>
<text text-anchor="start" x="145" y="-638.8" font-family="arial" font-size="9.00"> &#45; operations() </text>
<text text-anchor="start" x="145" y="-626.8" font-family="arial" font-size="9.00"> &#45; nodeProperties() </text>
<text text-anchor="start" x="145" y="-614.8" font-family="arial" font-size="9.00"> &#45; tagvalue() </text>
<text text-anchor="start" x="145" y="-602.8" font-family="arial" font-size="9.00"> &#45; stereotype() </text>
<text text-anchor="start" x="145" y="-590.8" font-family="arial" font-size="9.00"> &#45; hidden() </text>
<text text-anchor="start" x="145" y="-578.8" font-family="arial" font-size="9.00"> # getClassInfo() </text>
<text text-anchor="start" x="145" y="-566.8" font-family="arial" font-size="9.00"> &#45; newClassInfo() </text>
<text text-anchor="start" x="145" y="-554.8" font-family="arial" font-size="9.00"> &#45; hidden() </text>
<text text-anchor="start" x="145" y="-542.8" font-family="arial" font-size="9.00"> + printClass() </text>
<text text-anchor="start" x="145" y="-530.8" font-family="arial" font-size="9.00"> &#45; getNodeName() </text>
<text text-anchor="start" x="145" y="-518.8" font-family="arial" font-size="9.00"> &#45; getNodeName() </text>
<text text-anchor="start" x="145" y="-506.8" font-family="arial" font-size="9.00"> &#45; allRelation() </text>
<text text-anchor="start" x="145" y="-494.8" font-family="arial" font-size="9.00"> &#45; relation() </text>
<text text-anchor="start" x="145" y="-482.8" font-family="arial" font-size="9.00"> &#45; relation() </text>
<text text-anchor="start" x="145" y="-470.8" font-family="arial" font-size="9.00"> &#45; relationNode() </text>
<text text-anchor="start" x="145" y="-458.8" font-family="arial" font-size="9.00"> &#45; relationNode() </text>
<text text-anchor="start" x="145" y="-446.8" font-family="arial" font-size="9.00"> + printRelations() </text>
<text text-anchor="start" x="145" y="-434.8" font-family="arial" font-size="9.00"> + printExtraClasses() </text>
<text text-anchor="start" x="145" y="-422.8" font-family="arial" font-size="9.00"> + printInferredRelations() </text>
<text text-anchor="start" x="145" y="-410.8" font-family="arial" font-size="9.00"> + printInferredRelations() </text>
<text text-anchor="start" x="145" y="-398.8" font-family="arial" font-size="9.00"> + printInferredDependencies() </text>
<text text-anchor="start" x="145" y="-386.8" font-family="arial" font-size="9.00"> ~ importedClasses() </text>
<text text-anchor="start" x="145" y="-374.8" font-family="arial" font-size="9.00"> + printInferredDependencies() </text>
<text text-anchor="start" x="145" y="-362.8" font-family="arial" font-size="9.00"> &#45; filterByVisibility() </text>
<text text-anchor="start" x="145" y="-350.8" font-family="arial" font-size="9.00"> &#45; getFieldRelationInfo() </text>
<text text-anchor="start" x="145" y="-338.8" font-family="arial" font-size="9.00"> &#45; getInterfaceTypeArguments() </text>
<text text-anchor="start" x="145" y="-326.8" font-family="arial" font-size="9.00"> &#45; removeTemplate() </text>
<text text-anchor="start" x="145" y="-314.8" font-family="arial" font-size="9.00"> + classToUrl() </text>
<text text-anchor="start" x="145" y="-302.8" font-family="arial" font-size="9.00"> # buildRelativePath() </text>
<text text-anchor="start" x="145" y="-290.8" font-family="arial" font-size="9.00"> &#45; getPackageName() </text>
<text text-anchor="start" x="145" y="-278.8" font-family="arial" font-size="9.00"> &#45; getUnqualifiedName() </text>
<text text-anchor="start" x="145" y="-266.8" font-family="arial" font-size="9.00"> + classToUrl() </text>
<text text-anchor="start" x="145" y="-254.8" font-family="arial" font-size="9.00"> &#45; mapApiDocRoot() </text>
<text text-anchor="start" x="145" y="-242.8" font-family="arial" font-size="9.00"> + prologue() </text>
<text text-anchor="start" x="145" y="-230.8" font-family="arial" font-size="9.00"> + epilogue() </text>
<text text-anchor="start" x="145" y="-218.8" font-family="arial" font-size="9.00"> &#45; externalTableStart() </text>
<text text-anchor="start" x="145" y="-206.8" font-family="arial" font-size="9.00"> &#45; externalTableEnd() </text>
<text text-anchor="start" x="145" y="-194.8" font-family="arial" font-size="9.00"> &#45; innerTableStart() </text>
<text text-anchor="start" x="145" y="-182.8" font-family="arial" font-size="9.00"> &#45; firstInnerTableStart() </text>
<text text-anchor="start" x="145" y="-170.8" font-family="arial" font-size="9.00"> &#45; innerTableEnd() </text>
<text text-anchor="start" x="145" y="-158.8" font-family="arial" font-size="9.00"> &#45; firstInnerTableEnd() </text>
<text text-anchor="start" x="145" y="-146.8" font-family="arial" font-size="9.00"> &#45; tableLine() </text>
<text text-anchor="start" x="145" y="-134.8" font-family="arial" font-size="9.00"> &#45; tableLine() </text>
<text text-anchor="start" x="145" y="-122.8" font-family="arial" font-size="9.00"> &#45; fontWrap() </text>
<text text-anchor="start" x="145" y="-110.8" font-family="arial" font-size="9.00"> &#45; fontWrap() </text>
</a>
</g>
<g><a xlink:href="./ClassGraph.html" xlink:title="&lt;TABLE&gt;">
</a>
</g>
</g>
<!-- c342&#45;&gt;c338 -->
<g id="edge1" class="edge"><title>c342:p&#45;&gt;c338:p</title>
<path fill="none" stroke="black" d="M143.847,-94.1376C141.47,-80.7422 139.391,-69.0244 137.707,-59.5283"/>
<polygon fill="none" stroke="black" points="140.436,-94.9455 145.629,-104.18 147.328,-93.7226 140.436,-94.9455"/>
</g>
</g>
</svg>
