<?xml version="1.0" encoding="UTF-8" standalone="no"?>
<!DOCTYPE svg PUBLIC "-//W3C//DTD SVG 1.1//EN"
 "http://www.w3.org/Graphics/SVG/1.1/DTD/svg11.dtd">
<!-- Generated by graphviz version 2.36.0 (20140111.2315)
 -->
<!-- Title: G Pages: 1 -->
<svg width="287pt" height="618pt"
 viewBox="0.00 0.00 287.00 618.00" xmlns="http://www.w3.org/2000/svg" xmlns:xlink="http://www.w3.org/1999/xlink">
<g id="graph0" class="graph" transform="scale(1 1) rotate(0) translate(4 614)">
<title>G</title>
<polygon fill="white" stroke="none" points="-4,4 -4,-614 283,-614 283,4 -4,4"/>
<!-- c517 -->
<g id="node1" class="node"><title>c517</title>
<g id="a_node1"><a xlink:href="./PackageMatcher.html" xlink:title="&lt;TABLE&gt;">
</a>
</g>
<g id="a_node1_0"><a xlink:href="./PackageMatcher.html" xlink:title="org.umlgraph.doclet.PackageMatcher" target="_parent">
<polygon fill="lemonChiffon" stroke="none" points="87,-414.5 87,-481.5 169,-481.5 169,-414.5 87,-414.5"/>
<polygon fill="none" stroke="black" points="87,-462 87,-481 169,-481 169,-462 87,-462"/>
<text text-anchor="start" x="91.5" y="-469.3" font-family="arial" font-size="9.00"> PackageMatcher </text>
<polygon fill="none" stroke="black" points="87,-444 87,-462 169,-462 169,-444 87,-444"/>
<text text-anchor="start" x="91" y="-450.8" font-family="arial" font-size="9.00"> &#160;</text>
<polygon fill="none" stroke="black" points="87,-414 87,-444 169,-444 169,-414 87,-414"/>
<text text-anchor="start" x="91" y="-432.8" font-family="arial" font-size="9.00"> + matches() </text>
<text text-anchor="start" x="91" y="-420.8" font-family="arial" font-size="9.00"> + matches() </text>
</a>
</g>
<g><a xlink:href="./PackageMatcher.html" xlink:title="&lt;TABLE&gt;">
</a>
</g>
</g>
<!-- c531 -->
<g id="node3" class="node"><title>c531</title>
<g id="a_node3"><a xlink:href="http://docs.oracle.com/javase/7/docs/jdk/api/javadoc/doclet/com/sun/javadoc/PackageDoc.html" xlink:title="&lt;TABLE&gt;">
</a>
</g>
<g id="a_node3_1"><a xlink:href="http://docs.oracle.com/javase/7/docs/jdk/api/javadoc/doclet/com/sun/javadoc/PackageDoc.html" xlink:title="com.sun.javadoc.PackageDoc" target="_parent">
<polygon fill="none" stroke="black" points="8,-238 8,-279 104,-279 104,-238 8,-238"/>
<text text-anchor="start" x="30.5" y="-267.3" font-family="arial" font-size="9.00"> «interface» </text>
<text text-anchor="start" x="27" y="-254.8" font-family="arial" font-size="9.00"> PackageDoc </text>
<text text-anchor="start" x="26.5" y="-244.4" font-family="arial" font-size="7.00"> com.sun.javadoc </text>
<polygon fill="none" stroke="black" points="8,-220 8,-238 104,-238 104,-220 8,-220"/>
<text text-anchor="start" x="12" y="-226.8" font-family="arial" font-size="9.00"> &#160;</text>
<polygon fill="none" stroke="black" points="8,-94 8,-220 104,-220 104,-94 8,-94"/>
<text text-anchor="start" x="12" y="-208.8" font-family="arial italic" font-size="9.00"> + allClasses() </text>
<text text-anchor="start" x="12" y="-196.8" font-family="arial italic" font-size="9.00"> + allClasses() </text>
<text text-anchor="start" x="12" y="-184.8" font-family="arial italic" font-size="9.00"> + ordinaryClasses() </text>
<text text-anchor="start" x="12" y="-172.8" font-family="arial italic" font-size="9.00"> + exceptions() </text>
<text text-anchor="start" x="12" y="-160.8" font-family="arial italic" font-size="9.00"> + errors() </text>
<text text-anchor="start" x="12" y="-148.8" font-family="arial italic" font-size="9.00"> + enums() </text>
<text text-anchor="start" x="12" y="-136.8" font-family="arial italic" font-size="9.00"> + interfaces() </text>
<text text-anchor="start" x="12" y="-124.8" font-family="arial italic" font-size="9.00"> + annotationTypes() </text>
<text text-anchor="start" x="12" y="-112.8" font-family="arial italic" font-size="9.00"> + annotations() </text>
<text text-anchor="start" x="12" y="-100.8" font-family="arial italic" font-size="9.00"> + findClass() </text>
</a>
</g>
<g><a xlink:href="http://docs.oracle.com/javase/7/docs/jdk/api/javadoc/doclet/com/sun/javadoc/PackageDoc.html" xlink:title="&lt;TABLE&gt;">
</a>
</g>
</g>
<!-- c517&#45;&gt;c531 -->
<g id="edge2" class="edge"><title>c517:p&#45;&gt;c531:p</title>
<path fill="none" stroke="black" d="M118.954,-414.46C110.228,-383.069 96.5572,-333.893 84.1818,-289.376"/>
<polygon fill="black" stroke="black" points="81.4811,-279.661 88.4951,-288.09 82.8203,-284.478 84.1595,-289.296 84.1595,-289.296 84.1595,-289.296 82.8203,-284.478 79.8239,-290.501 81.4811,-279.661 81.4811,-279.661"/>
</g>
<!-- c532 -->
<g id="node4" class="node"><title>c532</title>
<g id="a_node4"><a xlink:href="http://docs.oracle.com/javase/7/docs/jdk/api/javadoc/doclet/com/sun/javadoc/ClassDoc.html" xlink:title="&lt;TABLE&gt;">
</a>
</g>
<g id="a_node4_2"><a xlink:href="http://docs.oracle.com/javase/7/docs/jdk/api/javadoc/doclet/com/sun/javadoc/ClassDoc.html" xlink:title="com.sun.javadoc.ClassDoc" target="_parent">
<polygon fill="none" stroke="black" points="139,-328 139,-369 272,-369 272,-328 139,-328"/>
<text text-anchor="start" x="180" y="-357.3" font-family="arial" font-size="9.00"> «interface» </text>
<text text-anchor="start" x="182.5" y="-344.8" font-family="arial" font-size="9.00"> ClassDoc </text>
<text text-anchor="start" x="176" y="-334.4" font-family="arial" font-size="7.00"> com.sun.javadoc </text>
<polygon fill="none" stroke="black" points="139,-310 139,-328 272,-328 272,-310 139,-310"/>
<text text-anchor="start" x="143" y="-316.8" font-family="arial" font-size="9.00"> &#160;</text>
<polygon fill="none" stroke="black" points="139,-4 139,-310 272,-310 272,-4 139,-4"/>
<text text-anchor="start" x="143" y="-298.8" font-family="arial italic" font-size="9.00"> + isAbstract() </text>
<text text-anchor="start" x="143" y="-286.8" font-family="arial italic" font-size="9.00"> + isSerializable() </text>
<text text-anchor="start" x="143" y="-274.8" font-family="arial italic" font-size="9.00"> + isExternalizable() </text>
<text text-anchor="start" x="143" y="-262.8" font-family="arial italic" font-size="9.00"> + serializationMethods() </text>
<text text-anchor="start" x="143" y="-250.8" font-family="arial italic" font-size="9.00"> + serializableFields() </text>
<text text-anchor="start" x="143" y="-238.8" font-family="arial italic" font-size="9.00"> + definesSerializableFields() </text>
<text text-anchor="start" x="143" y="-226.8" font-family="arial italic" font-size="9.00"> + superclass() </text>
<text text-anchor="start" x="143" y="-214.8" font-family="arial italic" font-size="9.00"> + superclassType() </text>
<text text-anchor="start" x="143" y="-202.8" font-family="arial italic" font-size="9.00"> + subclassOf() </text>
<text text-anchor="start" x="143" y="-190.8" font-family="arial italic" font-size="9.00"> + interfaces() </text>
<text text-anchor="start" x="143" y="-178.8" font-family="arial italic" font-size="9.00"> + interfaceTypes() </text>
<text text-anchor="start" x="143" y="-166.8" font-family="arial italic" font-size="9.00"> + typeParameters() </text>
<text text-anchor="start" x="143" y="-154.8" font-family="arial italic" font-size="9.00"> + typeParamTags() </text>
<text text-anchor="start" x="143" y="-142.8" font-family="arial italic" font-size="9.00"> + fields() </text>
<text text-anchor="start" x="143" y="-130.8" font-family="arial italic" font-size="9.00"> + fields() </text>
<text text-anchor="start" x="143" y="-118.8" font-family="arial italic" font-size="9.00"> + enumConstants() </text>
<text text-anchor="start" x="143" y="-106.8" font-family="arial italic" font-size="9.00"> + methods() </text>
<text text-anchor="start" x="143" y="-94.8" font-family="arial italic" font-size="9.00"> + methods() </text>
<text text-anchor="start" x="143" y="-82.8" font-family="arial italic" font-size="9.00"> + constructors() </text>
<text text-anchor="start" x="143" y="-70.8" font-family="arial italic" font-size="9.00"> + constructors() </text>
<text text-anchor="start" x="143" y="-58.8" font-family="arial italic" font-size="9.00"> + innerClasses() </text>
<text text-anchor="start" x="143" y="-46.8" font-family="arial italic" font-size="9.00"> + innerClasses() </text>
<text text-anchor="start" x="143" y="-34.8" font-family="arial italic" font-size="9.00"> + findClass() </text>
<text text-anchor="start" x="143" y="-22.8" font-family="arial italic" font-size="9.00"> + importedClasses() </text>
<text text-anchor="start" x="143" y="-10.8" font-family="arial italic" font-size="9.00"> + importedPackages() </text>
</a>
</g>
<g><a xlink:href="http://docs.oracle.com/javase/7/docs/jdk/api/javadoc/doclet/com/sun/javadoc/ClassDoc.html" xlink:title="&lt;TABLE&gt;">
</a>
</g>
</g>
<!-- c517&#45;&gt;c532 -->
<g id="edge3" class="edge"><title>c517:p&#45;&gt;c532:p</title>
<path fill="none" stroke="black" stroke-dasharray="5,2" d="M137.674,-414.46C140.681,-404.347 144.236,-392.388 148.117,-379.334"/>
<polygon fill="black" stroke="black" points="150.997,-369.646 152.461,-380.514 149.572,-374.439 148.147,-379.231 148.147,-379.231 148.147,-379.231 149.572,-374.439 143.834,-377.949 150.997,-369.646 150.997,-369.646"/>
</g>
<!-- c525 -->
<g id="node2" class="node"><title>c525</title>
<g id="a_node2"><a xlink:href="./ClassMatcher.html" xlink:title="&lt;TABLE&gt;">
</a>
</g>
<g id="a_node2_3"><a xlink:href="./ClassMatcher.html" xlink:title="org.umlgraph.doclet.ClassMatcher" target="_parent">
<polygon fill="none" stroke="black" points="131,-574 131,-605 202,-605 202,-574 131,-574"/>
<text text-anchor="start" x="141" y="-593.3" font-family="arial" font-size="9.00"> «interface» </text>
<text text-anchor="start" x="135.5" y="-580.8" font-family="arial" font-size="9.00"> ClassMatcher </text>
<polygon fill="none" stroke="black" points="131,-556 131,-574 202,-574 202,-556 131,-556"/>
<text text-anchor="start" x="135" y="-562.8" font-family="arial" font-size="9.00"> &#160;</text>
<polygon fill="none" stroke="black" points="131,-526 131,-556 202,-556 202,-526 131,-526"/>
<text text-anchor="start" x="135" y="-544.8" font-family="arial italic" font-size="9.00"> + matches() </text>
<text text-anchor="start" x="135" y="-532.8" font-family="arial italic" font-size="9.00"> + matches() </text>
</a>
</g>
<g><a xlink:href="./ClassMatcher.html" xlink:title="&lt;TABLE&gt;">
</a>
</g>
</g>
<!-- c525&#45;&gt;c517 -->
<g id="edge1" class="edge"><title>c525:p&#45;&gt;c517:p</title>
<path fill="none" stroke="black" stroke-dasharray="5,2" d="M150.158,-516.641C146.295,-504.848 142.253,-492.508 138.694,-481.645"/>
<polygon fill="none" stroke="black" points="146.907,-517.96 153.347,-526.374 153.559,-515.781 146.907,-517.96"/>
</g>
<!-- c525&#45;&gt;c532 -->
<g id="edge4" class="edge"><title>c525:p&#45;&gt;c532:p</title>
<path fill="none" stroke="black" stroke-dasharray="5,2" d="M177.307,-526.318C180.622,-513.58 183.914,-499.278 186,-486 191.345,-451.973 195.196,-415.536 197.967,-380.231"/>
<polygon fill="black" stroke="black" points="198.757,-369.813 202.488,-380.124 198.379,-374.798 198.001,-379.784 198.001,-379.784 198.001,-379.784 198.379,-374.798 193.514,-379.444 198.757,-369.813 198.757,-369.813"/>
</g>
</g>
</svg>
