<?xml version="1.0" encoding="UTF-8" standalone="no"?>
<!DOCTYPE svg PUBLIC "-//W3C//DTD SVG 1.1//EN"
 "http://www.w3.org/Graphics/SVG/1.1/DTD/svg11.dtd">
<!-- Generated by graphviz version 2.36.0 (20140111.2315)
 -->
<!-- Title: G Pages: 1 -->
<svg width="328pt" height="944pt"
 viewBox="0.00 0.00 328.00 944.00" xmlns="http://www.w3.org/2000/svg" xmlns:xlink="http://www.w3.org/1999/xlink">
<g id="graph0" class="graph" transform="scale(1 1) rotate(0) translate(4 940)">
<title>G</title>
<polygon fill="white" stroke="none" points="-4,4 -4,-940 324,-940 324,4 -4,4"/>
<!-- c548 -->
<g id="node1" class="node"><title>c548</title>
<g id="a_node1"><a xlink:href="./PackageView.html" xlink:title="&lt;TABLE&gt;">
</a>
</g>
<g id="a_node1_0"><a xlink:href="./PackageView.html" xlink:title="org.umlgraph.doclet.PackageView" target="_parent">
<polygon fill="lemonChiffon" stroke="none" points="129,-644.5 129,-759.5 229,-759.5 229,-644.5 129,-644.5"/>
<polygon fill="none" stroke="black" points="129,-740 129,-759 229,-759 229,-740 129,-740"/>
<text text-anchor="start" x="148.5" y="-747.3" font-family="arial" font-size="9.00"> PackageView </text>
<polygon fill="none" stroke="black" points="129,-722 129,-740 229,-740 229,-722 129,-722"/>
<text text-anchor="start" x="133" y="-728.8" font-family="arial" font-size="9.00"> &#160;</text>
<polygon fill="none" stroke="black" points="129,-644 129,-722 229,-722 229,-644 129,-644"/>
<text text-anchor="start" x="133" y="-710.8" font-family="arial" font-size="9.00"> + getDisplayName() </text>
<text text-anchor="start" x="133" y="-698.8" font-family="arial" font-size="9.00"> + getGlobalOptions() </text>
<text text-anchor="start" x="133" y="-686.8" font-family="arial" font-size="9.00"> + getOptionsFor() </text>
<text text-anchor="start" x="133" y="-674.8" font-family="arial" font-size="9.00"> + getOptionsFor() </text>
<text text-anchor="start" x="133" y="-662.8" font-family="arial" font-size="9.00"> + overrideForClass() </text>
<text text-anchor="start" x="133" y="-650.8" font-family="arial" font-size="9.00"> + overrideForClass() </text>
</a>
</g>
<g><a xlink:href="./PackageView.html" xlink:title="&lt;TABLE&gt;">
</a>
</g>
</g>
<!-- c557 -->
<g id="node3" class="node"><title>c557</title>
<g id="a_node3"><a xlink:href="./ClassMatcher.html" xlink:title="&lt;TABLE&gt;">
</a>
</g>
<g id="a_node3_1"><a xlink:href="./ClassMatcher.html" xlink:title="org.umlgraph.doclet.ClassMatcher" target="_parent">
<polygon fill="none" stroke="black" points="8,-515 8,-546 79,-546 79,-515 8,-515"/>
<text text-anchor="start" x="18" y="-534.3" font-family="arial" font-size="9.00"> «interface» </text>
<text text-anchor="start" x="12.5" y="-521.8" font-family="arial" font-size="9.00"> ClassMatcher </text>
<polygon fill="none" stroke="black" points="8,-497 8,-515 79,-515 79,-497 8,-497"/>
<text text-anchor="start" x="12" y="-503.8" font-family="arial" font-size="9.00"> &#160;</text>
<polygon fill="none" stroke="black" points="8,-467 8,-497 79,-497 79,-467 8,-467"/>
<text text-anchor="start" x="12" y="-485.8" font-family="arial italic" font-size="9.00"> + matches() </text>
<text text-anchor="start" x="12" y="-473.8" font-family="arial italic" font-size="9.00"> + matches() </text>
</a>
</g>
<g><a xlink:href="./ClassMatcher.html" xlink:title="&lt;TABLE&gt;">
</a>
</g>
</g>
<!-- c548&#45;&gt;c557 -->
<g id="edge3" class="edge"><title>c548:p&#45;&gt;c557:p</title>
<path fill="none" stroke="black" d="M128.922,-646.392C117.549,-632.95 105.912,-618.299 96,-604 85.574,-588.958 75.5045,-571.676 66.9941,-555.957"/>
<polygon fill="black" stroke="black" points="62.1725,-546.912 70.8474,-553.62 64.5244,-551.324 66.8763,-555.736 66.8763,-555.736 66.8763,-555.736 64.5244,-551.324 62.9052,-557.853 62.1725,-546.912 62.1725,-546.912"/>
</g>
<!-- c563 -->
<g id="node4" class="node"><title>c563</title>
<g id="a_node4"><a xlink:href="http://docs.oracle.com/javase/7/docs/jdk/api/javadoc/doclet/com/sun/javadoc/PackageDoc.html" xlink:title="&lt;TABLE&gt;">
</a>
</g>
<g id="a_node4_2"><a xlink:href="http://docs.oracle.com/javase/7/docs/jdk/api/javadoc/doclet/com/sun/javadoc/PackageDoc.html" xlink:title="com.sun.javadoc.PackageDoc" target="_parent">
<polygon fill="none" stroke="black" points="113,-558 113,-599 209,-599 209,-558 113,-558"/>
<text text-anchor="start" x="135.5" y="-587.3" font-family="arial" font-size="9.00"> «interface» </text>
<text text-anchor="start" x="132" y="-574.8" font-family="arial" font-size="9.00"> PackageDoc </text>
<text text-anchor="start" x="131.5" y="-564.4" font-family="arial" font-size="7.00"> com.sun.javadoc </text>
<polygon fill="none" stroke="black" points="113,-540 113,-558 209,-558 209,-540 113,-540"/>
<text text-anchor="start" x="117" y="-546.8" font-family="arial" font-size="9.00"> &#160;</text>
<polygon fill="none" stroke="black" points="113,-414 113,-540 209,-540 209,-414 113,-414"/>
<text text-anchor="start" x="117" y="-528.8" font-family="arial italic" font-size="9.00"> + allClasses() </text>
<text text-anchor="start" x="117" y="-516.8" font-family="arial italic" font-size="9.00"> + allClasses() </text>
<text text-anchor="start" x="117" y="-504.8" font-family="arial italic" font-size="9.00"> + ordinaryClasses() </text>
<text text-anchor="start" x="117" y="-492.8" font-family="arial italic" font-size="9.00"> + exceptions() </text>
<text text-anchor="start" x="117" y="-480.8" font-family="arial italic" font-size="9.00"> + errors() </text>
<text text-anchor="start" x="117" y="-468.8" font-family="arial italic" font-size="9.00"> + enums() </text>
<text text-anchor="start" x="117" y="-456.8" font-family="arial italic" font-size="9.00"> + interfaces() </text>
<text text-anchor="start" x="117" y="-444.8" font-family="arial italic" font-size="9.00"> + annotationTypes() </text>
<text text-anchor="start" x="117" y="-432.8" font-family="arial italic" font-size="9.00"> + annotations() </text>
<text text-anchor="start" x="117" y="-420.8" font-family="arial italic" font-size="9.00"> + findClass() </text>
</a>
</g>
<g><a xlink:href="http://docs.oracle.com/javase/7/docs/jdk/api/javadoc/doclet/com/sun/javadoc/PackageDoc.html" xlink:title="&lt;TABLE&gt;">
</a>
</g>
</g>
<!-- c548&#45;&gt;c563 -->
<g id="edge2" class="edge"><title>c548:p&#45;&gt;c563:p</title>
<path fill="none" stroke="black" d="M173.721,-644.398C172.7,-633.449 171.601,-621.668 170.492,-609.78"/>
<polygon fill="black" stroke="black" points="169.56,-599.785 174.97,-609.324 170.025,-604.763 170.489,-609.742 170.489,-609.742 170.489,-609.742 170.025,-604.763 166.008,-610.16 169.56,-599.785 169.56,-599.785"/>
</g>
<!-- c564 -->
<g id="node5" class="node"><title>c564</title>
<g id="a_node5"><a xlink:href="http://docs.oracle.com/javase/7/docs/jdk/api/javadoc/doclet/com/sun/javadoc/ClassDoc.html" xlink:title="&lt;TABLE&gt;">
</a>
</g>
<g id="a_node5_3"><a xlink:href="http://docs.oracle.com/javase/7/docs/jdk/api/javadoc/doclet/com/sun/javadoc/ClassDoc.html" xlink:title="com.sun.javadoc.ClassDoc" target="_parent">
<polygon fill="none" stroke="black" points="179,-328 179,-369 312,-369 312,-328 179,-328"/>
<text text-anchor="start" x="220" y="-357.3" font-family="arial" font-size="9.00"> «interface» </text>
<text text-anchor="start" x="222.5" y="-344.8" font-family="arial" font-size="9.00"> ClassDoc </text>
<text text-anchor="start" x="216" y="-334.4" font-family="arial" font-size="7.00"> com.sun.javadoc </text>
<polygon fill="none" stroke="black" points="179,-310 179,-328 312,-328 312,-310 179,-310"/>
<text text-anchor="start" x="183" y="-316.8" font-family="arial" font-size="9.00"> &#160;</text>
<polygon fill="none" stroke="black" points="179,-4 179,-310 312,-310 312,-4 179,-4"/>
<text text-anchor="start" x="183" y="-298.8" font-family="arial italic" font-size="9.00"> + isAbstract() </text>
<text text-anchor="start" x="183" y="-286.8" font-family="arial italic" font-size="9.00"> + isSerializable() </text>
<text text-anchor="start" x="183" y="-274.8" font-family="arial italic" font-size="9.00"> + isExternalizable() </text>
<text text-anchor="start" x="183" y="-262.8" font-family="arial italic" font-size="9.00"> + serializationMethods() </text>
<text text-anchor="start" x="183" y="-250.8" font-family="arial italic" font-size="9.00"> + serializableFields() </text>
<text text-anchor="start" x="183" y="-238.8" font-family="arial italic" font-size="9.00"> + definesSerializableFields() </text>
<text text-anchor="start" x="183" y="-226.8" font-family="arial italic" font-size="9.00"> + superclass() </text>
<text text-anchor="start" x="183" y="-214.8" font-family="arial italic" font-size="9.00"> + superclassType() </text>
<text text-anchor="start" x="183" y="-202.8" font-family="arial italic" font-size="9.00"> + subclassOf() </text>
<text text-anchor="start" x="183" y="-190.8" font-family="arial italic" font-size="9.00"> + interfaces() </text>
<text text-anchor="start" x="183" y="-178.8" font-family="arial italic" font-size="9.00"> + interfaceTypes() </text>
<text text-anchor="start" x="183" y="-166.8" font-family="arial italic" font-size="9.00"> + typeParameters() </text>
<text text-anchor="start" x="183" y="-154.8" font-family="arial italic" font-size="9.00"> + typeParamTags() </text>
<text text-anchor="start" x="183" y="-142.8" font-family="arial italic" font-size="9.00"> + fields() </text>
<text text-anchor="start" x="183" y="-130.8" font-family="arial italic" font-size="9.00"> + fields() </text>
<text text-anchor="start" x="183" y="-118.8" font-family="arial italic" font-size="9.00"> + enumConstants() </text>
<text text-anchor="start" x="183" y="-106.8" font-family="arial italic" font-size="9.00"> + methods() </text>
<text text-anchor="start" x="183" y="-94.8" font-family="arial italic" font-size="9.00"> + methods() </text>
<text text-anchor="start" x="183" y="-82.8" font-family="arial italic" font-size="9.00"> + constructors() </text>
<text text-anchor="start" x="183" y="-70.8" font-family="arial italic" font-size="9.00"> + constructors() </text>
<text text-anchor="start" x="183" y="-58.8" font-family="arial italic" font-size="9.00"> + innerClasses() </text>
<text text-anchor="start" x="183" y="-46.8" font-family="arial italic" font-size="9.00"> + innerClasses() </text>
<text text-anchor="start" x="183" y="-34.8" font-family="arial italic" font-size="9.00"> + findClass() </text>
<text text-anchor="start" x="183" y="-22.8" font-family="arial italic" font-size="9.00"> + importedClasses() </text>
<text text-anchor="start" x="183" y="-10.8" font-family="arial italic" font-size="9.00"> + importedPackages() </text>
</a>
</g>
<g><a xlink:href="http://docs.oracle.com/javase/7/docs/jdk/api/javadoc/doclet/com/sun/javadoc/ClassDoc.html" xlink:title="&lt;TABLE&gt;">
</a>
</g>
</g>
<!-- c548&#45;&gt;c564 -->
<g id="edge4" class="edge"><title>c548:p&#45;&gt;c564:p</title>
<path fill="none" stroke="black" stroke-dasharray="5,2" d="M211.087,-644.5C217.086,-631.562 222.549,-617.604 226,-604 244.23,-532.134 250.903,-451.089 252.353,-379.751"/>
<polygon fill="black" stroke="black" points="252.524,-369.751 256.853,-379.827 252.439,-374.751 252.353,-379.75 252.353,-379.75 252.353,-379.75 252.439,-374.751 247.854,-379.673 252.524,-369.751 252.524,-369.751"/>
</g>
<!-- c551 -->
<g id="node2" class="node"><title>c551</title>
<g id="a_node2"><a xlink:href="./OptionProvider.html" xlink:title="&lt;TABLE&gt;">
</a>
</g>
<g id="a_node2_4"><a xlink:href="./OptionProvider.html" xlink:title="org.umlgraph.doclet.OptionProvider" target="_parent">
<polygon fill="none" stroke="black" points="190,-900 190,-931 290,-931 290,-900 190,-900"/>
<text text-anchor="start" x="214.5" y="-919.3" font-family="arial" font-size="9.00"> «interface» </text>
<text text-anchor="start" x="207" y="-906.8" font-family="arial" font-size="9.00"> OptionProvider </text>
<polygon fill="none" stroke="black" points="190,-882 190,-900 290,-900 290,-882 190,-882"/>
<text text-anchor="start" x="194" y="-888.8" font-family="arial" font-size="9.00"> &#160;</text>
<polygon fill="none" stroke="black" points="190,-804 190,-882 290,-882 290,-804 190,-804"/>
<text text-anchor="start" x="194" y="-870.8" font-family="arial italic" font-size="9.00"> + getOptionsFor() </text>
<text text-anchor="start" x="194" y="-858.8" font-family="arial italic" font-size="9.00"> + getOptionsFor() </text>
<text text-anchor="start" x="194" y="-846.8" font-family="arial italic" font-size="9.00"> + getGlobalOptions() </text>
<text text-anchor="start" x="194" y="-834.8" font-family="arial italic" font-size="9.00"> + overrideForClass() </text>
<text text-anchor="start" x="194" y="-822.8" font-family="arial italic" font-size="9.00"> + overrideForClass() </text>
<text text-anchor="start" x="194" y="-810.8" font-family="arial italic" font-size="9.00"> + getDisplayName() </text>
</a>
</g>
<g><a xlink:href="./OptionProvider.html" xlink:title="&lt;TABLE&gt;">
</a>
</g>
</g>
<!-- c551&#45;&gt;c548 -->
<g id="edge1" class="edge"><title>c551:p&#45;&gt;c548:p</title>
<path fill="none" stroke="black" stroke-dasharray="5,2" d="M212.98,-794.357C208.647,-782.707 204.219,-770.801 200.051,-759.597"/>
<polygon fill="none" stroke="black" points="209.824,-795.91 216.59,-804.062 216.384,-793.47 209.824,-795.91"/>
</g>
<!-- c551&#45;&gt;c564 -->
<g id="edge5" class="edge"><title>c551:p&#45;&gt;c564:p</title>
<path fill="none" stroke="black" stroke-dasharray="5,2" d="M243.794,-804.369C244.56,-791.046 245.334,-777.059 246,-764 254.015,-606.84 255.834,-567.339 253,-410 252.823,-400.167 252.602,-390.09 252.347,-379.916"/>
<polygon fill="black" stroke="black" points="252.081,-369.715 256.84,-379.594 252.212,-374.713 252.342,-379.711 252.342,-379.711 252.342,-379.711 252.212,-374.713 247.843,-379.828 252.081,-369.715 252.081,-369.715"/>
</g>
<!-- c557&#45;&gt;c564 -->
<g id="edge6" class="edge"><title>c557:p&#45;&gt;c564:p</title>
<path fill="none" stroke="black" stroke-dasharray="5,2" d="M63.3974,-467.258C72.9508,-449.591 84.6971,-428.528 96,-410 119.991,-370.673 147.774,-328.474 172.803,-291.54"/>
<polygon fill="black" stroke="black" points="178.432,-283.254 176.535,-294.054 175.623,-287.39 172.813,-291.526 172.813,-291.526 172.813,-291.526 175.623,-287.39 169.091,-288.997 178.432,-283.254 178.432,-283.254"/>
</g>
</g>
</svg>
