<?xml version="1.0" encoding="UTF-8" standalone="no"?>
<!DOCTYPE svg PUBLIC "-//W3C//DTD SVG 1.1//EN"
 "http://www.w3.org/Graphics/SVG/1.1/DTD/svg11.dtd">
<!-- Generated by graphviz version 2.36.0 (20140111.2315)
 -->
<!-- Title: G Pages: 1 -->
<svg width="299pt" height="488pt"
 viewBox="0.00 0.00 299.00 488.00" xmlns="http://www.w3.org/2000/svg" xmlns:xlink="http://www.w3.org/1999/xlink">
<g id="graph0" class="graph" transform="scale(1 1) rotate(0) translate(4 484)">
<title>G</title>
<polygon fill="white" stroke="none" points="-4,4 -4,-484 295,-484 295,4 -4,4"/>
<!-- c638 -->
<g id="node1" class="node"><title>c638</title>
<g id="a_node1"><a xlink:href="./RelationPattern.html" xlink:title="&lt;TABLE&gt;">
</a>
</g>
<g id="a_node1_0"><a xlink:href="./RelationPattern.html" xlink:title="org.umlgraph.doclet.RelationPattern" target="_parent">
<polygon fill="lemonChiffon" stroke="none" points="125.5,-80.5 125.5,-147.5 206.5,-147.5 206.5,-80.5 125.5,-80.5"/>
<polygon fill="none" stroke="black" points="126,-128 126,-147 207,-147 207,-128 126,-128"/>
<text text-anchor="start" x="132" y="-135.3" font-family="arial" font-size="9.00"> RelationPattern </text>
<polygon fill="none" stroke="black" points="126,-110 126,-128 207,-128 207,-110 126,-110"/>
<text text-anchor="start" x="130" y="-116.8" font-family="arial" font-size="9.00"> &#160;</text>
<polygon fill="none" stroke="black" points="126,-80 126,-110 207,-110 207,-80 126,-80"/>
<text text-anchor="start" x="130" y="-98.8" font-family="arial" font-size="9.00"> + addRelation() </text>
<text text-anchor="start" x="130" y="-86.8" font-family="arial" font-size="9.00"> + matchesOne() </text>
</a>
</g>
<g><a xlink:href="./RelationPattern.html" xlink:title="&lt;TABLE&gt;">
</a>
</g>
</g>
<!-- c639 -->
<g id="node2" class="node"><title>c639</title>
<g id="a_node2"><a xlink:href="./RelationDirection.html" xlink:title="&lt;TABLE&gt;">
</a>
</g>
<g id="a_node2_1"><a xlink:href="./RelationDirection.html" xlink:title="org.umlgraph.doclet.RelationDirection" target="_parent">
<polygon fill="none" stroke="black" points="124,-4 124,-35 209,-35 209,-4 124,-4"/>
<text text-anchor="start" x="132.5" y="-23.3" font-family="arial" font-size="9.00"> «enumeration» </text>
<text text-anchor="start" x="128.5" y="-10.8" font-family="arial" font-size="9.00"> RelationDirection </text>
</a>
</g>
<g><a xlink:href="./RelationDirection.html" xlink:title="&lt;TABLE&gt;">
</a>
</g>
</g>
<!-- c638&#45;&gt;c639 -->
<g id="edge1" class="edge"><title>c638:p&#45;&gt;c639:p</title>
<path fill="none" stroke="black" d="M166,-80.3052C166,-68.9589 166,-56.431 166,-45.8244"/>
<polygon fill="black" stroke="black" points="166,-35.5967 170.5,-45.5967 166,-40.5967 166,-45.5967 166,-45.5967 166,-45.5967 166,-40.5967 161.5,-45.5968 166,-35.5967 166,-35.5967"/>
<text text-anchor="middle" x="164" y="-38.5967" font-family="arial" font-size="10.00">*</text>
</g>
<!-- c643 -->
<g id="node3" class="node"><title>c643</title>
<g id="a_node3"><a xlink:href="./Options.html" xlink:title="&lt;TABLE&gt;">
</a>
</g>
<g id="a_node3_2"><a xlink:href="./Options.html" xlink:title="org.umlgraph.doclet.Options" target="_parent">
<polygon fill="none" stroke="black" points="8,-456 8,-475 171,-475 171,-456 8,-456"/>
<text text-anchor="start" x="71" y="-463.3" font-family="arial" font-size="9.00"> Options </text>
<polygon fill="none" stroke="black" points="8,-438 8,-456 171,-456 171,-438 8,-438"/>
<text text-anchor="start" x="12" y="-444.8" font-family="arial" font-size="9.00"> &#160;</text>
<polygon fill="none" stroke="black" points="8,-192 8,-438 171,-438 171,-192 8,-192"/>
<text text-anchor="start" x="12" y="-426.8" font-family="arial" font-size="9.00"> + clone() </text>
<text text-anchor="start" x="12" y="-414.8" font-family="arial" font-size="9.00"> + setAll() </text>
<text text-anchor="start" x="12" y="-402.8" font-family="arial" font-size="9.00"> + optionLength() </text>
<text text-anchor="start" x="12" y="-390.8" font-family="arial" font-size="9.00"> ~ setOption() </text>
<text text-anchor="start" x="12" y="-378.8" font-family="arial" font-size="9.00"> &#45; addApiDocRoots() </text>
<text text-anchor="start" x="12" y="-366.8" font-family="arial" font-size="9.00"> &#45; addApiDocRootsOffline() </text>
<text text-anchor="start" x="12" y="-354.8" font-family="arial" font-size="9.00"> ~ setApiDocMapFile() </text>
<text text-anchor="start" x="12" y="-342.8" font-family="arial" font-size="9.00"> + getApiDocRoot() </text>
<text text-anchor="start" x="12" y="-330.8" font-family="arial" font-size="9.00"> &#45; fixApiDocRoot() </text>
<text text-anchor="start" x="12" y="-318.8" font-family="arial" font-size="9.00"> + setOptions() </text>
<text text-anchor="start" x="12" y="-306.8" font-family="arial" font-size="9.00"> + setOptions() </text>
<text text-anchor="start" x="12" y="-294.8" font-family="arial" font-size="9.00"> + matchesHideExpression() </text>
<text text-anchor="start" x="12" y="-282.8" font-family="arial" font-size="9.00"> + matchesCollPackageExpression() </text>
<text text-anchor="start" x="12" y="-270.8" font-family="arial" font-size="9.00"> + getOptionsFor() </text>
<text text-anchor="start" x="12" y="-258.8" font-family="arial" font-size="9.00"> + getOptionsFor() </text>
<text text-anchor="start" x="12" y="-246.8" font-family="arial" font-size="9.00"> + getGlobalOptions() </text>
<text text-anchor="start" x="12" y="-234.8" font-family="arial" font-size="9.00"> + overrideForClass() </text>
<text text-anchor="start" x="12" y="-222.8" font-family="arial" font-size="9.00"> + overrideForClass() </text>
<text text-anchor="start" x="12" y="-210.8" font-family="arial" font-size="9.00"> + getDisplayName() </text>
<text text-anchor="start" x="12" y="-198.8" font-family="arial" font-size="9.00"> + toString() </text>
</a>
</g>
<g><a xlink:href="./Options.html" xlink:title="&lt;TABLE&gt;">
</a>
</g>
</g>
<!-- c643&#45;&gt;c638 -->
<g id="edge2" class="edge"><title>c643:p&#45;&gt;c638:p</title>
<path fill="none" stroke="black" d="M138.636,-192.472C143.09,-179.861 147.327,-167.865 151.079,-157.244"/>
<polygon fill="black" stroke="black" points="154.518,-147.508 155.43,-158.436 152.853,-152.223 151.187,-156.937 151.187,-156.937 151.187,-156.937 152.853,-152.223 146.944,-155.438 154.518,-147.508 154.518,-147.508"/>
</g>
<!-- c651 -->
<g id="node4" class="node"><title>c651</title>
<g id="a_node4"><a xlink:href="./ClassInfo.html" xlink:title="&lt;TABLE&gt;">
</a>
</g>
<g id="a_node4_3"><a xlink:href="./ClassInfo.html" xlink:title="org.umlgraph.doclet.ClassInfo" target="_parent">
<polygon fill="none" stroke="black" points="205,-354 205,-373 283,-373 283,-354 205,-354"/>
<text text-anchor="start" x="221.5" y="-361.3" font-family="arial" font-size="9.00"> ClassInfo </text>
<polygon fill="none" stroke="black" points="205,-336 205,-354 283,-354 283,-336 205,-336"/>
<text text-anchor="start" x="209" y="-342.8" font-family="arial" font-size="9.00"> &#160;</text>
<polygon fill="none" stroke="black" points="205,-294 205,-336 283,-336 283,-294 205,-294"/>
<text text-anchor="start" x="209" y="-324.8" font-family="arial" font-size="9.00"> + addRelation() </text>
<text text-anchor="start" x="209" y="-312.8" font-family="arial" font-size="9.00"> + getRelation() </text>
<text text-anchor="start" x="209" y="-300.8" font-family="arial" font-size="9.00"> + reset() </text>
</a>
</g>
<g><a xlink:href="./ClassInfo.html" xlink:title="&lt;TABLE&gt;">
</a>
</g>
</g>
<!-- c651&#45;&gt;c638 -->
<g id="edge3" class="edge"><title>c651:p&#45;&gt;c638:p</title>
<path fill="none" stroke="black" d="M230.145,-294.277C216.383,-255.815 195.339,-197 181.143,-157.324"/>
<polygon fill="black" stroke="black" points="177.69,-147.673 185.296,-155.573 179.375,-152.381 181.059,-157.089 181.059,-157.089 181.059,-157.089 179.375,-152.381 176.822,-158.605 177.69,-147.673 177.69,-147.673"/>
<text text-anchor="middle" x="175.69" y="-150.673" font-family="arial" font-size="10.00">*</text>
</g>
</g>
</svg>
