<?xml version="1.0" encoding="UTF-8" standalone="no"?>
<!DOCTYPE svg PUBLIC "-//W3C//DTD SVG 1.1//EN"
 "http://www.w3.org/Graphics/SVG/1.1/DTD/svg11.dtd">
<!-- Generated by graphviz version 2.36.0 (20140111.2315)
 -->
<!-- Title: G Pages: 1 -->
<svg width="108pt" height="160pt"
 viewBox="0.00 0.00 108.00 160.00" xmlns="http://www.w3.org/2000/svg" xmlns:xlink="http://www.w3.org/1999/xlink">
<g id="graph0" class="graph" transform="scale(1 1) rotate(0) translate(4 156)">
<title>G</title>
<polygon fill="white" stroke="none" points="-4,4 -4,-156 104,-156 104,4 -4,4"/>
<!-- c608 -->
<g id="node1" class="node"><title>c608</title>
<g id="a_node1"><a xlink:href="./RelationPattern.html" xlink:title="&lt;TABLE&gt;">
</a>
</g>
<g id="a_node1_0"><a xlink:href="./RelationPattern.html" xlink:title="org.umlgraph.doclet.RelationPattern" target="_parent">
<polygon fill="none" stroke="black" points="10,-128 10,-147 91,-147 91,-128 10,-128"/>
<text text-anchor="start" x="16" y="-135.3" font-family="arial" font-size="9.00"> RelationPattern </text>
<polygon fill="none" stroke="black" points="10,-110 10,-128 91,-128 91,-110 10,-110"/>
<text text-anchor="start" x="14" y="-116.8" font-family="arial" font-size="9.00"> &#160;</text>
<polygon fill="none" stroke="black" points="10,-80 10,-110 91,-110 91,-80 10,-80"/>
<text text-anchor="start" x="14" y="-98.8" font-family="arial" font-size="9.00"> + addRelation() </text>
<text text-anchor="start" x="14" y="-86.8" font-family="arial" font-size="9.00"> + matchesOne() </text>
</a>
</g>
<g><a xlink:href="./RelationPattern.html" xlink:title="&lt;TABLE&gt;">
</a>
</g>
</g>
<!-- c609 -->
<g id="node2" class="node"><title>c609</title>
<g id="a_node2"><a xlink:href="./RelationDirection.html" xlink:title="&lt;TABLE&gt;">
</a>
</g>
<g id="a_node2_1"><a xlink:href="./RelationDirection.html" xlink:title="org.umlgraph.doclet.RelationDirection" target="_parent">
<polygon fill="lemonChiffon" stroke="none" points="7.5,-4.5 7.5,-35.5 92.5,-35.5 92.5,-4.5 7.5,-4.5"/>
<polygon fill="none" stroke="black" points="8,-4 8,-35 93,-35 93,-4 8,-4"/>
<text text-anchor="start" x="16.5" y="-23.3" font-family="arial" font-size="9.00"> «enumeration» </text>
<text text-anchor="start" x="12.5" y="-10.8" font-family="arial" font-size="9.00"> RelationDirection </text>
</a>
</g>
<g><a xlink:href="./RelationDirection.html" xlink:title="&lt;TABLE&gt;">
</a>
</g>
</g>
<!-- c608&#45;&gt;c609 -->
<g id="edge1" class="edge"><title>c608:p&#45;&gt;c609:p</title>
<path fill="none" stroke="black" d="M50,-80.3052C50,-68.9589 50,-56.431 50,-45.8244"/>
<polygon fill="black" stroke="black" points="50,-35.5967 54.5001,-45.5967 50,-40.5967 50.0001,-45.5967 50.0001,-45.5967 50.0001,-45.5967 50,-40.5967 45.5001,-45.5968 50,-35.5967 50,-35.5967"/>
<text text-anchor="middle" x="48" y="-38.5967" font-family="arial" font-size="10.00">*</text>
</g>
</g>
</svg>
