<?xml version="1.0" encoding="UTF-8" standalone="no"?>
<!DOCTYPE svg PUBLIC "-//W3C//DTD SVG 1.1//EN"
 "http://www.w3.org/Graphics/SVG/1.1/DTD/svg11.dtd">
<!-- Generated by graphviz version 2.36.0 (20140111.2315)
 -->
<!-- Title: G Pages: 1 -->
<svg width="186pt" height="376pt"
 viewBox="0.00 0.00 186.00 376.00" xmlns="http://www.w3.org/2000/svg" xmlns:xlink="http://www.w3.org/1999/xlink">
<g id="graph0" class="graph" transform="scale(1 1) rotate(0) translate(4 372)">
<title>G</title>
<polygon fill="white" stroke="none" points="-4,4 -4,-372 182,-372 182,4 -4,4"/>
<!-- c667 -->
<g id="node1" class="node"><title>c667</title>
<g id="a_node1"><a xlink:href="./RelationType.html" xlink:title="&lt;TABLE&gt;">
</a>
</g>
<g id="a_node1_0"><a xlink:href="./RelationType.html" xlink:title="org.umlgraph.doclet.RelationType" target="_parent">
<polygon fill="lemonChiffon" stroke="none" points="50.5,-4.5 50.5,-35.5 127.5,-35.5 127.5,-4.5 50.5,-4.5"/>
<polygon fill="none" stroke="black" points="51,-4 51,-35 128,-35 128,-4 51,-4"/>
<text text-anchor="start" x="55.5" y="-23.3" font-family="arial" font-size="9.00"> «enumeration» </text>
<text text-anchor="start" x="60" y="-10.8" font-family="arial" font-size="9.00"> RelationType </text>
</a>
</g>
<g><a xlink:href="./RelationType.html" xlink:title="&lt;TABLE&gt;">
</a>
</g>
</g>
<!-- c673 -->
<g id="node2" class="node"><title>c673</title>
<g id="a_node2"><a xlink:href="./Options.html" xlink:title="&lt;TABLE&gt;">
</a>
</g>
<g id="a_node2_1"><a xlink:href="./Options.html" xlink:title="org.umlgraph.doclet.Options" target="_parent">
<polygon fill="none" stroke="black" points="8,-344 8,-363 171,-363 171,-344 8,-344"/>
<text text-anchor="start" x="71" y="-351.3" font-family="arial" font-size="9.00"> Options </text>
<polygon fill="none" stroke="black" points="8,-326 8,-344 171,-344 171,-326 8,-326"/>
<text text-anchor="start" x="12" y="-332.8" font-family="arial" font-size="9.00"> &#160;</text>
<polygon fill="none" stroke="black" points="8,-80 8,-326 171,-326 171,-80 8,-80"/>
<text text-anchor="start" x="12" y="-314.8" font-family="arial" font-size="9.00"> + clone() </text>
<text text-anchor="start" x="12" y="-302.8" font-family="arial" font-size="9.00"> + setAll() </text>
<text text-anchor="start" x="12" y="-290.8" font-family="arial" font-size="9.00"> + optionLength() </text>
<text text-anchor="start" x="12" y="-278.8" font-family="arial" font-size="9.00"> ~ setOption() </text>
<text text-anchor="start" x="12" y="-266.8" font-family="arial" font-size="9.00"> &#45; addApiDocRoots() </text>
<text text-anchor="start" x="12" y="-254.8" font-family="arial" font-size="9.00"> &#45; addApiDocRootsOffline() </text>
<text text-anchor="start" x="12" y="-242.8" font-family="arial" font-size="9.00"> ~ setApiDocMapFile() </text>
<text text-anchor="start" x="12" y="-230.8" font-family="arial" font-size="9.00"> + getApiDocRoot() </text>
<text text-anchor="start" x="12" y="-218.8" font-family="arial" font-size="9.00"> &#45; fixApiDocRoot() </text>
<text text-anchor="start" x="12" y="-206.8" font-family="arial" font-size="9.00"> + setOptions() </text>
<text text-anchor="start" x="12" y="-194.8" font-family="arial" font-size="9.00"> + setOptions() </text>
<text text-anchor="start" x="12" y="-182.8" font-family="arial" font-size="9.00"> + matchesHideExpression() </text>
<text text-anchor="start" x="12" y="-170.8" font-family="arial" font-size="9.00"> + matchesCollPackageExpression() </text>
<text text-anchor="start" x="12" y="-158.8" font-family="arial" font-size="9.00"> + getOptionsFor() </text>
<text text-anchor="start" x="12" y="-146.8" font-family="arial" font-size="9.00"> + getOptionsFor() </text>
<text text-anchor="start" x="12" y="-134.8" font-family="arial" font-size="9.00"> + getGlobalOptions() </text>
<text text-anchor="start" x="12" y="-122.8" font-family="arial" font-size="9.00"> + overrideForClass() </text>
<text text-anchor="start" x="12" y="-110.8" font-family="arial" font-size="9.00"> + overrideForClass() </text>
<text text-anchor="start" x="12" y="-98.8" font-family="arial" font-size="9.00"> + getDisplayName() </text>
<text text-anchor="start" x="12" y="-86.8" font-family="arial" font-size="9.00"> + toString() </text>
</a>
</g>
<g><a xlink:href="./Options.html" xlink:title="&lt;TABLE&gt;">
</a>
</g>
</g>
<!-- c673&#45;&gt;c667 -->
<g id="edge1" class="edge"><title>c673:p&#45;&gt;c667:p</title>
<path fill="none" stroke="black" d="M89,-80.4651C89,-67.5422 89,-55.7065 89,-46.0555"/>
<polygon fill="black" stroke="black" points="89,-35.7953 93.5001,-45.7953 89,-40.7953 89.0001,-45.7953 89.0001,-45.7953 89.0001,-45.7953 89,-40.7953 84.5001,-45.7954 89,-35.7953 89,-35.7953"/>
</g>
</g>
</svg>
