<?xml version="1.0" encoding="UTF-8" standalone="no"?>
<!DOCTYPE svg PUBLIC "-//W3C//DTD SVG 1.1//EN"
 "http://www.w3.org/Graphics/SVG/1.1/DTD/svg11.dtd">
<!-- Generated by graphviz version 2.36.0 (20140111.2315)
 -->
<!-- Title: G Pages: 1 -->
<svg width="186pt" height="436pt"
 viewBox="0.00 0.00 186.00 436.00" xmlns="http://www.w3.org/2000/svg" xmlns:xlink="http://www.w3.org/1999/xlink">
<g id="graph0" class="graph" transform="scale(1 1) rotate(0) translate(4 432)">
<title>G</title>
<polygon fill="white" stroke="none" points="-4,4 -4,-432 182,-432 182,4 -4,4"/>
<!-- c696 -->
<g id="node1" class="node"><title>c696</title>
<g id="a_node1"><a xlink:href="./Shape.html" xlink:title="&lt;TABLE&gt;">
</a>
</g>
<g id="a_node1_0"><a xlink:href="./Shape.html" xlink:title="org.umlgraph.doclet.Shape" target="_parent">
<polygon fill="lemonChiffon" stroke="none" points="42,-4.5 42,-95.5 136,-95.5 136,-4.5 42,-4.5"/>
<polygon fill="none" stroke="black" points="42,-76 42,-95 136,-95 136,-76 42,-76"/>
<text text-anchor="start" x="73" y="-83.3" font-family="arial" font-size="9.00"> Shape </text>
<polygon fill="none" stroke="black" points="42,-58 42,-76 136,-76 136,-58 42,-58"/>
<text text-anchor="start" x="46" y="-64.8" font-family="arial" font-size="9.00"> &#160;</text>
<polygon fill="none" stroke="black" points="42,-4 42,-58 136,-58 136,-4 42,-4"/>
<text text-anchor="start" x="46" y="-46.8" font-family="arial" font-size="9.00"> + graphvizAttribute() </text>
<text text-anchor="start" x="46" y="-34.8" font-family="arial" font-size="9.00"> ~ landingPort() </text>
<text text-anchor="start" x="46" y="-22.8" font-family="arial" font-size="9.00"> ~ extraColumn() </text>
<text text-anchor="start" x="46" y="-10.8" font-family="arial" font-size="9.00"> ~ cellBorder() </text>
</a>
</g>
<g><a xlink:href="./Shape.html" xlink:title="&lt;TABLE&gt;">
</a>
</g>
</g>
<!-- c703 -->
<g id="node2" class="node"><title>c703</title>
<g id="a_node2"><a xlink:href="./Options.html" xlink:title="&lt;TABLE&gt;">
</a>
</g>
<g id="a_node2_1"><a xlink:href="./Options.html" xlink:title="org.umlgraph.doclet.Options" target="_parent">
<polygon fill="none" stroke="black" points="8,-404 8,-423 171,-423 171,-404 8,-404"/>
<text text-anchor="start" x="71" y="-411.3" font-family="arial" font-size="9.00"> Options </text>
<polygon fill="none" stroke="black" points="8,-386 8,-404 171,-404 171,-386 8,-386"/>
<text text-anchor="start" x="12" y="-392.8" font-family="arial" font-size="9.00"> &#160;</text>
<polygon fill="none" stroke="black" points="8,-140 8,-386 171,-386 171,-140 8,-140"/>
<text text-anchor="start" x="12" y="-374.8" font-family="arial" font-size="9.00"> + clone() </text>
<text text-anchor="start" x="12" y="-362.8" font-family="arial" font-size="9.00"> + setAll() </text>
<text text-anchor="start" x="12" y="-350.8" font-family="arial" font-size="9.00"> + optionLength() </text>
<text text-anchor="start" x="12" y="-338.8" font-family="arial" font-size="9.00"> ~ setOption() </text>
<text text-anchor="start" x="12" y="-326.8" font-family="arial" font-size="9.00"> &#45; addApiDocRoots() </text>
<text text-anchor="start" x="12" y="-314.8" font-family="arial" font-size="9.00"> &#45; addApiDocRootsOffline() </text>
<text text-anchor="start" x="12" y="-302.8" font-family="arial" font-size="9.00"> ~ setApiDocMapFile() </text>
<text text-anchor="start" x="12" y="-290.8" font-family="arial" font-size="9.00"> + getApiDocRoot() </text>
<text text-anchor="start" x="12" y="-278.8" font-family="arial" font-size="9.00"> &#45; fixApiDocRoot() </text>
<text text-anchor="start" x="12" y="-266.8" font-family="arial" font-size="9.00"> + setOptions() </text>
<text text-anchor="start" x="12" y="-254.8" font-family="arial" font-size="9.00"> + setOptions() </text>
<text text-anchor="start" x="12" y="-242.8" font-family="arial" font-size="9.00"> + matchesHideExpression() </text>
<text text-anchor="start" x="12" y="-230.8" font-family="arial" font-size="9.00"> + matchesCollPackageExpression() </text>
<text text-anchor="start" x="12" y="-218.8" font-family="arial" font-size="9.00"> + getOptionsFor() </text>
<text text-anchor="start" x="12" y="-206.8" font-family="arial" font-size="9.00"> + getOptionsFor() </text>
<text text-anchor="start" x="12" y="-194.8" font-family="arial" font-size="9.00"> + getGlobalOptions() </text>
<text text-anchor="start" x="12" y="-182.8" font-family="arial" font-size="9.00"> + overrideForClass() </text>
<text text-anchor="start" x="12" y="-170.8" font-family="arial" font-size="9.00"> + overrideForClass() </text>
<text text-anchor="start" x="12" y="-158.8" font-family="arial" font-size="9.00"> + getDisplayName() </text>
<text text-anchor="start" x="12" y="-146.8" font-family="arial" font-size="9.00"> + toString() </text>
</a>
</g>
<g><a xlink:href="./Options.html" xlink:title="&lt;TABLE&gt;">
</a>
</g>
</g>
<!-- c703&#45;&gt;c696 -->
<g id="edge1" class="edge"><title>c703:p&#45;&gt;c696:p</title>
<path fill="none" stroke="black" d="M89,-140.253C89,-128.223 89,-116.589 89,-105.915"/>
<polygon fill="black" stroke="black" points="89,-95.5828 93.5001,-105.583 89,-100.583 89.0001,-105.583 89.0001,-105.583 89.0001,-105.583 89,-100.583 84.5001,-105.583 89,-95.5828 89,-95.5828"/>
</g>
</g>
</svg>
