<?xml version="1.0" encoding="UTF-8" standalone="no"?>
<!DOCTYPE svg PUBLIC "-//W3C//DTD SVG 1.1//EN"
 "http://www.w3.org/Graphics/SVG/1.1/DTD/svg11.dtd">
<!-- Generated by graphviz version 2.36.0 (20140111.2315)
 -->
<!-- Title: G Pages: 1 -->
<svg width="162pt" height="844pt"
 viewBox="0.00 0.00 162.00 844.00" xmlns="http://www.w3.org/2000/svg" xmlns:xlink="http://www.w3.org/1999/xlink">
<g id="graph0" class="graph" transform="scale(1 1) rotate(0) translate(4 840)">
<title>G</title>
<polygon fill="white" stroke="none" points="-4,4 -4,-840 158,-840 158,4 -4,4"/>
<!-- c725 -->
<g id="node1" class="node"><title>c725</title>
<g id="a_node1"><a xlink:href="./StringUtil.html" xlink:title="&lt;TABLE&gt;">
</a>
</g>
<g id="a_node1_0"><a xlink:href="./StringUtil.html" xlink:title="org.umlgraph.doclet.StringUtil" target="_parent">
<polygon fill="lemonChiffon" stroke="none" points="46.5,-4.5 46.5,-59.5 107.5,-59.5 107.5,-4.5 46.5,-4.5"/>
<polygon fill="none" stroke="black" points="47,-40 47,-59 108,-59 108,-40 47,-40"/>
<text text-anchor="start" x="56" y="-47.3" font-family="arial" font-size="9.00"> StringUtil </text>
<polygon fill="none" stroke="black" points="47,-22 47,-40 108,-40 108,-22 47,-22"/>
<text text-anchor="start" x="51" y="-28.8" font-family="arial" font-size="9.00"> &#160;</text>
<polygon fill="none" stroke="black" points="47,-4 47,-22 108,-22 108,-4 47,-4"/>
<text text-anchor="start" x="51" y="-10.8" font-family="arial" font-size="9.00"> + tokenize() </text>
</a>
</g>
<g><a xlink:href="./StringUtil.html" xlink:title="&lt;TABLE&gt;">
</a>
</g>
</g>
<!-- c742 -->
<g id="node2" class="node"><title>c742</title>
<g id="a_node2"><a xlink:href="./ClassGraph.html" xlink:title="&lt;TABLE&gt;">
</a>
</g>
<g id="a_node2_1"><a xlink:href="./ClassGraph.html" xlink:title="org.umlgraph.doclet.ClassGraph" target="_parent">
<polygon fill="none" stroke="black" points="8,-812 8,-831 146,-831 146,-812 8,-812"/>
<text text-anchor="start" x="49.5" y="-819.3" font-family="arial" font-size="9.00"> ClassGraph </text>
<polygon fill="none" stroke="black" points="8,-794 8,-812 146,-812 146,-794 8,-794"/>
<text text-anchor="start" x="12" y="-800.8" font-family="arial" font-size="9.00"> &#160;</text>
<polygon fill="none" stroke="black" points="8,-104 8,-794 146,-794 146,-104 8,-104"/>
<text text-anchor="start" x="12" y="-782.8" font-family="arial" font-size="9.00"> &#45; qualifiedName() </text>
<text text-anchor="start" x="12" y="-770.8" font-family="arial" font-size="9.00"> &#45; escape() </text>
<text text-anchor="start" x="12" y="-758.8" font-family="arial" font-size="9.00"> &#45; htmlNewline() </text>
<text text-anchor="start" x="12" y="-746.8" font-family="arial" font-size="9.00"> &#45; guillemize() </text>
<text text-anchor="start" x="12" y="-734.8" font-family="arial" font-size="9.00"> &#45; guilWrap() </text>
<text text-anchor="start" x="12" y="-722.8" font-family="arial" font-size="9.00"> &#45; visibility() </text>
<text text-anchor="start" x="12" y="-710.8" font-family="arial" font-size="9.00"> &#45; parameter() </text>
<text text-anchor="start" x="12" y="-698.8" font-family="arial" font-size="9.00"> &#45; type() </text>
<text text-anchor="start" x="12" y="-686.8" font-family="arial" font-size="9.00"> &#45; typeParameters() </text>
<text text-anchor="start" x="12" y="-674.8" font-family="arial" font-size="9.00"> &#45; typeAnnotation() </text>
<text text-anchor="start" x="12" y="-662.8" font-family="arial" font-size="9.00"> &#45; attributes() </text>
<text text-anchor="start" x="12" y="-650.8" font-family="arial" font-size="9.00"> &#45; operations() </text>
<text text-anchor="start" x="12" y="-638.8" font-family="arial" font-size="9.00"> &#45; operations() </text>
<text text-anchor="start" x="12" y="-626.8" font-family="arial" font-size="9.00"> &#45; nodeProperties() </text>
<text text-anchor="start" x="12" y="-614.8" font-family="arial" font-size="9.00"> &#45; tagvalue() </text>
<text text-anchor="start" x="12" y="-602.8" font-family="arial" font-size="9.00"> &#45; stereotype() </text>
<text text-anchor="start" x="12" y="-590.8" font-family="arial" font-size="9.00"> &#45; hidden() </text>
<text text-anchor="start" x="12" y="-578.8" font-family="arial" font-size="9.00"> # getClassInfo() </text>
<text text-anchor="start" x="12" y="-566.8" font-family="arial" font-size="9.00"> &#45; newClassInfo() </text>
<text text-anchor="start" x="12" y="-554.8" font-family="arial" font-size="9.00"> &#45; hidden() </text>
<text text-anchor="start" x="12" y="-542.8" font-family="arial" font-size="9.00"> + printClass() </text>
<text text-anchor="start" x="12" y="-530.8" font-family="arial" font-size="9.00"> &#45; getNodeName() </text>
<text text-anchor="start" x="12" y="-518.8" font-family="arial" font-size="9.00"> &#45; getNodeName() </text>
<text text-anchor="start" x="12" y="-506.8" font-family="arial" font-size="9.00"> &#45; allRelation() </text>
<text text-anchor="start" x="12" y="-494.8" font-family="arial" font-size="9.00"> &#45; relation() </text>
<text text-anchor="start" x="12" y="-482.8" font-family="arial" font-size="9.00"> &#45; relation() </text>
<text text-anchor="start" x="12" y="-470.8" font-family="arial" font-size="9.00"> &#45; relationNode() </text>
<text text-anchor="start" x="12" y="-458.8" font-family="arial" font-size="9.00"> &#45; relationNode() </text>
<text text-anchor="start" x="12" y="-446.8" font-family="arial" font-size="9.00"> + printRelations() </text>
<text text-anchor="start" x="12" y="-434.8" font-family="arial" font-size="9.00"> + printExtraClasses() </text>
<text text-anchor="start" x="12" y="-422.8" font-family="arial" font-size="9.00"> + printInferredRelations() </text>
<text text-anchor="start" x="12" y="-410.8" font-family="arial" font-size="9.00"> + printInferredRelations() </text>
<text text-anchor="start" x="12" y="-398.8" font-family="arial" font-size="9.00"> + printInferredDependencies() </text>
<text text-anchor="start" x="12" y="-386.8" font-family="arial" font-size="9.00"> ~ importedClasses() </text>
<text text-anchor="start" x="12" y="-374.8" font-family="arial" font-size="9.00"> + printInferredDependencies() </text>
<text text-anchor="start" x="12" y="-362.8" font-family="arial" font-size="9.00"> &#45; filterByVisibility() </text>
<text text-anchor="start" x="12" y="-350.8" font-family="arial" font-size="9.00"> &#45; getFieldRelationInfo() </text>
<text text-anchor="start" x="12" y="-338.8" font-family="arial" font-size="9.00"> &#45; getInterfaceTypeArguments() </text>
<text text-anchor="start" x="12" y="-326.8" font-family="arial" font-size="9.00"> &#45; removeTemplate() </text>
<text text-anchor="start" x="12" y="-314.8" font-family="arial" font-size="9.00"> + classToUrl() </text>
<text text-anchor="start" x="12" y="-302.8" font-family="arial" font-size="9.00"> # buildRelativePath() </text>
<text text-anchor="start" x="12" y="-290.8" font-family="arial" font-size="9.00"> &#45; getPackageName() </text>
<text text-anchor="start" x="12" y="-278.8" font-family="arial" font-size="9.00"> &#45; getUnqualifiedName() </text>
<text text-anchor="start" x="12" y="-266.8" font-family="arial" font-size="9.00"> + classToUrl() </text>
<text text-anchor="start" x="12" y="-254.8" font-family="arial" font-size="9.00"> &#45; mapApiDocRoot() </text>
<text text-anchor="start" x="12" y="-242.8" font-family="arial" font-size="9.00"> + prologue() </text>
<text text-anchor="start" x="12" y="-230.8" font-family="arial" font-size="9.00"> + epilogue() </text>
<text text-anchor="start" x="12" y="-218.8" font-family="arial" font-size="9.00"> &#45; externalTableStart() </text>
<text text-anchor="start" x="12" y="-206.8" font-family="arial" font-size="9.00"> &#45; externalTableEnd() </text>
<text text-anchor="start" x="12" y="-194.8" font-family="arial" font-size="9.00"> &#45; innerTableStart() </text>
<text text-anchor="start" x="12" y="-182.8" font-family="arial" font-size="9.00"> &#45; firstInnerTableStart() </text>
<text text-anchor="start" x="12" y="-170.8" font-family="arial" font-size="9.00"> &#45; innerTableEnd() </text>
<text text-anchor="start" x="12" y="-158.8" font-family="arial" font-size="9.00"> &#45; firstInnerTableEnd() </text>
<text text-anchor="start" x="12" y="-146.8" font-family="arial" font-size="9.00"> &#45; tableLine() </text>
<text text-anchor="start" x="12" y="-134.8" font-family="arial" font-size="9.00"> &#45; tableLine() </text>
<text text-anchor="start" x="12" y="-122.8" font-family="arial" font-size="9.00"> &#45; fontWrap() </text>
<text text-anchor="start" x="12" y="-110.8" font-family="arial" font-size="9.00"> &#45; fontWrap() </text>
</a>
</g>
<g><a xlink:href="./ClassGraph.html" xlink:title="&lt;TABLE&gt;">
</a>
</g>
</g>
<!-- c742&#45;&gt;c725 -->
<g id="edge1" class="edge"><title>c742:p&#45;&gt;c725:p</title>
<path fill="none" stroke="black" stroke-dasharray="5,2" d="M77,-104.18C77,-91.2413 77,-79.5897 77,-69.6389"/>
<polygon fill="black" stroke="black" points="77,-59.5283 81.5001,-69.5283 77,-64.5283 77.0001,-69.5283 77.0001,-69.5283 77.0001,-69.5283 77,-64.5283 72.5001,-69.5284 77,-59.5283 77,-59.5283"/>
</g>
</g>
</svg>
