<?xml version="1.0" encoding="UTF-8" standalone="no"?>
<!DOCTYPE svg PUBLIC "-//W3C//DTD SVG 1.1//EN"
 "http://www.w3.org/Graphics/SVG/1.1/DTD/svg11.dtd">
<!-- Generated by graphviz version 2.36.0 (20140111.2315)
 -->
<!-- Title: G Pages: 1 -->
<svg width="322pt" height="1834pt"
 viewBox="0.00 0.00 322.39 1834.00" xmlns="http://www.w3.org/2000/svg" xmlns:xlink="http://www.w3.org/1999/xlink">
<g id="graph0" class="graph" transform="scale(1 1) rotate(0) translate(4 1830)">
<title>G</title>
<polygon fill="white" stroke="none" points="-4,4 -4,-1830 318.393,-1830 318.393,4 -4,4"/>
<!-- c842 -->
<g id="node1" class="node"><title>c842</title>
<g id="a_node1"><a xlink:href="./WrappedRootDoc.html" xlink:title="&lt;TABLE&gt;">
</a>
</g>
<g id="a_node1_0"><a xlink:href="./WrappedRootDoc.html" xlink:title="org.umlgraph.doclet.WrappedRootDoc" target="_parent">
<polygon fill="none" stroke="black" points="13.3932,-1436 13.3932,-1455 146.393,-1455 146.393,-1436 13.3932,-1436"/>
<text text-anchor="start" x="40.3932" y="-1443.3" font-family="arial" font-size="9.00"> WrappedRootDoc </text>
<polygon fill="none" stroke="black" points="13.3932,-1418 13.3932,-1436 146.393,-1436 146.393,-1418 13.3932,-1418"/>
<text text-anchor="start" x="17.3932" y="-1424.8" font-family="arial" font-size="9.00"> &#160;</text>
<polygon fill="none" stroke="black" points="13.3932,-980 13.3932,-1418 146.393,-1418 146.393,-980 13.3932,-980"/>
<text text-anchor="start" x="17.3932" y="-1406.8" font-family="arial" font-size="9.00"> + classes() </text>
<text text-anchor="start" x="17.3932" y="-1394.8" font-family="arial" font-size="9.00"> + classNamed() </text>
<text text-anchor="start" x="17.3932" y="-1382.8" font-family="arial" font-size="9.00"> + commentText() </text>
<text text-anchor="start" x="17.3932" y="-1370.8" font-family="arial" font-size="9.00"> + compareTo() </text>
<text text-anchor="start" x="17.3932" y="-1358.8" font-family="arial" font-size="9.00"> + firstSentenceTags() </text>
<text text-anchor="start" x="17.3932" y="-1346.8" font-family="arial" font-size="9.00"> + getRawCommentText() </text>
<text text-anchor="start" x="17.3932" y="-1334.8" font-family="arial" font-size="9.00"> + inlineTags() </text>
<text text-anchor="start" x="17.3932" y="-1322.8" font-family="arial" font-size="9.00"> + isAnnotationType() </text>
<text text-anchor="start" x="17.3932" y="-1310.8" font-family="arial" font-size="9.00"> + isAnnotationTypeElement() </text>
<text text-anchor="start" x="17.3932" y="-1298.8" font-family="arial" font-size="9.00"> + isClass() </text>
<text text-anchor="start" x="17.3932" y="-1286.8" font-family="arial" font-size="9.00"> + isConstructor() </text>
<text text-anchor="start" x="17.3932" y="-1274.8" font-family="arial" font-size="9.00"> + isEnum() </text>
<text text-anchor="start" x="17.3932" y="-1262.8" font-family="arial" font-size="9.00"> + isEnumConstant() </text>
<text text-anchor="start" x="17.3932" y="-1250.8" font-family="arial" font-size="9.00"> + isError() </text>
<text text-anchor="start" x="17.3932" y="-1238.8" font-family="arial" font-size="9.00"> + isException() </text>
<text text-anchor="start" x="17.3932" y="-1226.8" font-family="arial" font-size="9.00"> + isField() </text>
<text text-anchor="start" x="17.3932" y="-1214.8" font-family="arial" font-size="9.00"> + isIncluded() </text>
<text text-anchor="start" x="17.3932" y="-1202.8" font-family="arial" font-size="9.00"> + isInterface() </text>
<text text-anchor="start" x="17.3932" y="-1190.8" font-family="arial" font-size="9.00"> + isMethod() </text>
<text text-anchor="start" x="17.3932" y="-1178.8" font-family="arial" font-size="9.00"> + isOrdinaryClass() </text>
<text text-anchor="start" x="17.3932" y="-1166.8" font-family="arial" font-size="9.00"> + name() </text>
<text text-anchor="start" x="17.3932" y="-1154.8" font-family="arial" font-size="9.00"> + options() </text>
<text text-anchor="start" x="17.3932" y="-1142.8" font-family="arial" font-size="9.00"> + packageNamed() </text>
<text text-anchor="start" x="17.3932" y="-1130.8" font-family="arial" font-size="9.00"> + position() </text>
<text text-anchor="start" x="17.3932" y="-1118.8" font-family="arial" font-size="9.00"> + printError() </text>
<text text-anchor="start" x="17.3932" y="-1106.8" font-family="arial" font-size="9.00"> + printError() </text>
<text text-anchor="start" x="17.3932" y="-1094.8" font-family="arial" font-size="9.00"> + printNotice() </text>
<text text-anchor="start" x="17.3932" y="-1082.8" font-family="arial" font-size="9.00"> + printNotice() </text>
<text text-anchor="start" x="17.3932" y="-1070.8" font-family="arial" font-size="9.00"> + printWarning() </text>
<text text-anchor="start" x="17.3932" y="-1058.8" font-family="arial" font-size="9.00"> + printWarning() </text>
<text text-anchor="start" x="17.3932" y="-1046.8" font-family="arial" font-size="9.00"> + seeTags() </text>
<text text-anchor="start" x="17.3932" y="-1034.8" font-family="arial" font-size="9.00"> + setRawCommentText() </text>
<text text-anchor="start" x="17.3932" y="-1022.8" font-family="arial" font-size="9.00"> + specifiedClasses() </text>
<text text-anchor="start" x="17.3932" y="-1010.8" font-family="arial" font-size="9.00"> + specifiedPackages() </text>
<text text-anchor="start" x="17.3932" y="-998.8" font-family="arial" font-size="9.00"> + tags() </text>
<text text-anchor="start" x="17.3932" y="-986.8" font-family="arial" font-size="9.00"> + tags() </text>
</a>
</g>
<g><a xlink:href="./WrappedRootDoc.html" xlink:title="&lt;TABLE&gt;">
</a>
</g>
</g>
<!-- c843 -->
<g id="node2" class="node"><title>c843</title>
<g id="a_node2"><a xlink:href="./WrappedClassDoc.html" xlink:title="&lt;TABLE&gt;">
</a>
</g>
<g id="a_node2_1"><a xlink:href="./WrappedClassDoc.html" xlink:title="org.umlgraph.doclet.WrappedClassDoc" target="_parent">
<polygon fill="none" stroke="black" points="64.3932,-916 64.3932,-935 197.393,-935 197.393,-916 64.3932,-916"/>
<text text-anchor="start" x="88.8932" y="-923.3" font-family="arial" font-size="9.00"> WrappedClassDoc </text>
<polygon fill="none" stroke="black" points="64.3932,-898 64.3932,-916 197.393,-916 197.393,-898 64.3932,-898"/>
<text text-anchor="start" x="68.3932" y="-904.8" font-family="arial" font-size="9.00"> &#160;</text>
<polygon fill="none" stroke="black" points="64.3932,-4 64.3932,-898 197.393,-898 197.393,-4 64.3932,-4"/>
<text text-anchor="start" x="68.3932" y="-886.8" font-family="arial" font-size="9.00"> + annotations() </text>
<text text-anchor="start" x="68.3932" y="-874.8" font-family="arial" font-size="9.00"> + asAnnotationTypeDoc() </text>
<text text-anchor="start" x="68.3932" y="-862.8" font-family="arial" font-size="9.00"> + asClassDoc() </text>
<text text-anchor="start" x="68.3932" y="-850.8" font-family="arial" font-size="9.00"> + asParameterizedType() </text>
<text text-anchor="start" x="68.3932" y="-838.8" font-family="arial" font-size="9.00"> + asTypeVariable() </text>
<text text-anchor="start" x="68.3932" y="-826.8" font-family="arial" font-size="9.00"> + asWildcardType() </text>
<text text-anchor="start" x="68.3932" y="-814.8" font-family="arial" font-size="9.00"> + commentText() </text>
<text text-anchor="start" x="68.3932" y="-802.8" font-family="arial" font-size="9.00"> + compareTo() </text>
<text text-anchor="start" x="68.3932" y="-790.8" font-family="arial" font-size="9.00"> + constructors() </text>
<text text-anchor="start" x="68.3932" y="-778.8" font-family="arial" font-size="9.00"> + constructors() </text>
<text text-anchor="start" x="68.3932" y="-766.8" font-family="arial" font-size="9.00"> + containingClass() </text>
<text text-anchor="start" x="68.3932" y="-754.8" font-family="arial" font-size="9.00"> + containingPackage() </text>
<text text-anchor="start" x="68.3932" y="-742.8" font-family="arial" font-size="9.00"> + definesSerializableFields() </text>
<text text-anchor="start" x="68.3932" y="-730.8" font-family="arial" font-size="9.00"> + dimension() </text>
<text text-anchor="start" x="68.3932" y="-718.8" font-family="arial" font-size="9.00"> + enumConstants() </text>
<text text-anchor="start" x="68.3932" y="-706.8" font-family="arial" font-size="9.00"> + fields() </text>
<text text-anchor="start" x="68.3932" y="-694.8" font-family="arial" font-size="9.00"> + fields() </text>
<text text-anchor="start" x="68.3932" y="-682.8" font-family="arial" font-size="9.00"> + findClass() </text>
<text text-anchor="start" x="68.3932" y="-670.8" font-family="arial" font-size="9.00"> + firstSentenceTags() </text>
<text text-anchor="start" x="68.3932" y="-658.8" font-family="arial" font-size="9.00"> + getRawCommentText() </text>
<text text-anchor="start" x="68.3932" y="-646.8" font-family="arial" font-size="9.00"> + importedClasses() </text>
<text text-anchor="start" x="68.3932" y="-634.8" font-family="arial" font-size="9.00"> + importedPackages() </text>
<text text-anchor="start" x="68.3932" y="-622.8" font-family="arial" font-size="9.00"> + inlineTags() </text>
<text text-anchor="start" x="68.3932" y="-610.8" font-family="arial" font-size="9.00"> + innerClasses() </text>
<text text-anchor="start" x="68.3932" y="-598.8" font-family="arial" font-size="9.00"> + innerClasses() </text>
<text text-anchor="start" x="68.3932" y="-586.8" font-family="arial" font-size="9.00"> + interfaces() </text>
<text text-anchor="start" x="68.3932" y="-574.8" font-family="arial" font-size="9.00"> + interfaceTypes() </text>
<text text-anchor="start" x="68.3932" y="-562.8" font-family="arial" font-size="9.00"> + isAbstract() </text>
<text text-anchor="start" x="68.3932" y="-550.8" font-family="arial" font-size="9.00"> + isAnnotationType() </text>
<text text-anchor="start" x="68.3932" y="-538.8" font-family="arial" font-size="9.00"> + isAnnotationTypeElement() </text>
<text text-anchor="start" x="68.3932" y="-526.8" font-family="arial" font-size="9.00"> + isClass() </text>
<text text-anchor="start" x="68.3932" y="-514.8" font-family="arial" font-size="9.00"> + isConstructor() </text>
<text text-anchor="start" x="68.3932" y="-502.8" font-family="arial" font-size="9.00"> + isEnum() </text>
<text text-anchor="start" x="68.3932" y="-490.8" font-family="arial" font-size="9.00"> + isEnumConstant() </text>
<text text-anchor="start" x="68.3932" y="-478.8" font-family="arial" font-size="9.00"> + isError() </text>
<text text-anchor="start" x="68.3932" y="-466.8" font-family="arial" font-size="9.00"> + isException() </text>
<text text-anchor="start" x="68.3932" y="-454.8" font-family="arial" font-size="9.00"> + isExternalizable() </text>
<text text-anchor="start" x="68.3932" y="-442.8" font-family="arial" font-size="9.00"> + isField() </text>
<text text-anchor="start" x="68.3932" y="-430.8" font-family="arial" font-size="9.00"> + isFinal() </text>
<text text-anchor="start" x="68.3932" y="-418.8" font-family="arial" font-size="9.00"> + isIncluded() </text>
<text text-anchor="start" x="68.3932" y="-406.8" font-family="arial" font-size="9.00"> + isInterface() </text>
<text text-anchor="start" x="68.3932" y="-394.8" font-family="arial" font-size="9.00"> + isMethod() </text>
<text text-anchor="start" x="68.3932" y="-382.8" font-family="arial" font-size="9.00"> + isOrdinaryClass() </text>
<text text-anchor="start" x="68.3932" y="-370.8" font-family="arial" font-size="9.00"> + isPackagePrivate() </text>
<text text-anchor="start" x="68.3932" y="-358.8" font-family="arial" font-size="9.00"> + isPrimitive() </text>
<text text-anchor="start" x="68.3932" y="-346.8" font-family="arial" font-size="9.00"> + isPrivate() </text>
<text text-anchor="start" x="68.3932" y="-334.8" font-family="arial" font-size="9.00"> + isProtected() </text>
<text text-anchor="start" x="68.3932" y="-322.8" font-family="arial" font-size="9.00"> + isPublic() </text>
<text text-anchor="start" x="68.3932" y="-310.8" font-family="arial" font-size="9.00"> + isSerializable() </text>
<text text-anchor="start" x="68.3932" y="-298.8" font-family="arial" font-size="9.00"> + isStatic() </text>
<text text-anchor="start" x="68.3932" y="-286.8" font-family="arial" font-size="9.00"> + methods() </text>
<text text-anchor="start" x="68.3932" y="-274.8" font-family="arial" font-size="9.00"> + methods() </text>
<text text-anchor="start" x="68.3932" y="-262.8" font-family="arial" font-size="9.00"> + modifiers() </text>
<text text-anchor="start" x="68.3932" y="-250.8" font-family="arial" font-size="9.00"> + modifierSpecifier() </text>
<text text-anchor="start" x="68.3932" y="-238.8" font-family="arial" font-size="9.00"> + name() </text>
<text text-anchor="start" x="68.3932" y="-226.8" font-family="arial" font-size="9.00"> + position() </text>
<text text-anchor="start" x="68.3932" y="-214.8" font-family="arial" font-size="9.00"> + qualifiedName() </text>
<text text-anchor="start" x="68.3932" y="-202.8" font-family="arial" font-size="9.00"> + qualifiedTypeName() </text>
<text text-anchor="start" x="68.3932" y="-190.8" font-family="arial" font-size="9.00"> + seeTags() </text>
<text text-anchor="start" x="68.3932" y="-178.8" font-family="arial" font-size="9.00"> + serializableFields() </text>
<text text-anchor="start" x="68.3932" y="-166.8" font-family="arial" font-size="9.00"> + serializationMethods() </text>
<text text-anchor="start" x="68.3932" y="-154.8" font-family="arial" font-size="9.00"> + setRawCommentText() </text>
<text text-anchor="start" x="68.3932" y="-142.8" font-family="arial" font-size="9.00"> + simpleTypeName() </text>
<text text-anchor="start" x="68.3932" y="-130.8" font-family="arial" font-size="9.00"> + subclassOf() </text>
<text text-anchor="start" x="68.3932" y="-118.8" font-family="arial" font-size="9.00"> + superclass() </text>
<text text-anchor="start" x="68.3932" y="-106.8" font-family="arial" font-size="9.00"> + superclassType() </text>
<text text-anchor="start" x="68.3932" y="-94.8" font-family="arial" font-size="9.00"> + tags() </text>
<text text-anchor="start" x="68.3932" y="-82.8" font-family="arial" font-size="9.00"> + tags() </text>
<text text-anchor="start" x="68.3932" y="-70.8" font-family="arial" font-size="9.00"> + toString() </text>
<text text-anchor="start" x="68.3932" y="-58.8" font-family="arial" font-size="9.00"> + typeName() </text>
<text text-anchor="start" x="68.3932" y="-46.8" font-family="arial" font-size="9.00"> + typeParameters() </text>
<text text-anchor="start" x="68.3932" y="-34.8" font-family="arial" font-size="9.00"> + typeParamTags() </text>
<text text-anchor="start" x="68.3932" y="-22.8" font-family="arial" font-size="9.00"> + asAnnotatedType() </text>
<text text-anchor="start" x="68.3932" y="-10.8" font-family="arial" font-size="9.00"> + getElementType() </text>
</a>
</g>
<g><a xlink:href="./WrappedClassDoc.html" xlink:title="&lt;TABLE&gt;">
</a>
</g>
</g>
<!-- c842&#45;&gt;c843 -->
<g id="edge4" class="edge"><title>c842:p&#45;&gt;c843:p</title>
<path fill="none" stroke="black" d="M95.565,-980.449C96.3378,-969.144 97.1239,-957.645 97.9199,-946.003"/>
<polygon fill="black" stroke="black" points="98.6217,-935.736 102.429,-946.02 98.2807,-940.724 97.9396,-945.713 97.9396,-945.713 97.9396,-945.713 98.2807,-940.724 93.4501,-945.406 98.6217,-935.736 98.6217,-935.736"/>
<text text-anchor="middle" x="96.6217" y="-938.736" font-family="arial" font-size="10.00">*</text>
</g>
<!-- c848 -->
<g id="node3" class="node"><title>c848</title>
<g id="a_node3"><a xlink:href="./UmlGraphDoc.html" xlink:title="&lt;TABLE&gt;">
</a>
</g>
<g id="a_node3_2"><a xlink:href="./UmlGraphDoc.html" xlink:title="org.umlgraph.doclet.UmlGraphDoc" target="_parent">
<polygon fill="lemonChiffon" stroke="none" points="67.8932,-1682.5 67.8932,-1821.5 206.893,-1821.5 206.893,-1682.5 67.8932,-1682.5"/>
<polygon fill="none" stroke="black" points="68.3932,-1802 68.3932,-1821 207.393,-1821 207.393,-1802 68.3932,-1802"/>
<text text-anchor="start" x="105.893" y="-1809.3" font-family="arial" font-size="9.00"> UmlGraphDoc </text>
<polygon fill="none" stroke="black" points="68.3932,-1784 68.3932,-1802 207.393,-1802 207.393,-1784 68.3932,-1784"/>
<text text-anchor="start" x="72.3932" y="-1790.8" font-family="arial" font-size="9.00"> &#160;</text>
<polygon fill="none" stroke="black" points="68.3932,-1682 68.3932,-1784 207.393,-1784 207.393,-1682 68.3932,-1682"/>
<text text-anchor="start" x="72.3932" y="-1772.8" font-family="arial" font-size="9.00"> + optionLength() </text>
<text text-anchor="start" x="72.3932" y="-1760.8" font-family="arial" font-size="9.00"> + start() </text>
<text text-anchor="start" x="72.3932" y="-1748.8" font-family="arial" font-size="9.00"> + languageVersion() </text>
<text text-anchor="start" x="72.3932" y="-1736.8" font-family="arial" font-size="9.00"> &#45; generatePackageDiagrams() </text>
<text text-anchor="start" x="72.3932" y="-1724.8" font-family="arial" font-size="9.00"> &#45; generateContextDiagrams() </text>
<text text-anchor="start" x="72.3932" y="-1712.8" font-family="arial" font-size="9.00"> &#45; runGraphviz() </text>
<text text-anchor="start" x="72.3932" y="-1700.8" font-family="arial" font-size="9.00"> &#45; alterHtmlDocs() </text>
<text text-anchor="start" x="72.3932" y="-1688.8" font-family="arial" font-size="9.00"> &#45; findOutputPath() </text>
</a>
</g>
<g><a xlink:href="./UmlGraphDoc.html" xlink:title="&lt;TABLE&gt;">
</a>
</g>
</g>
<!-- c848&#45;&gt;c842 -->
<g id="edge3" class="edge"><title>c848:p&#45;&gt;c842:p</title>
<path fill="none" stroke="black" stroke-dasharray="5,2" d="M67.675,-1701.25C49.856,-1684.64 33.0251,-1664.54 23.3932,-1642 -6.32444,-1572.47 -3.44063,-1491.14 10.7711,-1418.47"/>
<polygon fill="black" stroke="black" points="12.8494,-1408.27 15.261,-1418.97 11.8506,-1413.17 10.8517,-1418.07 10.8517,-1418.07 10.8517,-1418.07 11.8506,-1413.17 6.44244,-1417.17 12.8494,-1408.27 12.8494,-1408.27"/>
</g>
<!-- c848&#45;&gt;c843 -->
<g id="edge2" class="edge"><title>c848:p&#45;&gt;c843:p</title>
<path fill="none" stroke="black" stroke-dasharray="5,2" d="M156.364,-1682.24C159.289,-1668.99 161.848,-1655.14 163.393,-1642 170.973,-1577.56 163.456,-1560.89 163.393,-1496 163.171,-1264.89 169.927,-1206.99 162.393,-976 162.068,-966.04 161.71,-955.971 161.32,-945.822"/>
<polygon fill="black" stroke="black" points="160.921,-935.648 165.81,-945.464 161.117,-940.644 161.313,-945.64 161.313,-945.64 161.313,-945.64 161.117,-940.644 156.817,-945.817 160.921,-935.648 160.921,-935.648"/>
</g>
<!-- c872 -->
<g id="node4" class="node"><title>c872</title>
<g id="a_node4"><a xlink:href="http://docs.oracle.com/javase/7/docs/jdk/api/javadoc/doclet/com/sun/javadoc/RootDoc.html" xlink:title="&lt;TABLE&gt;">
</a>
</g>
<g id="a_node4_3"><a xlink:href="http://docs.oracle.com/javase/7/docs/jdk/api/javadoc/doclet/com/sun/javadoc/RootDoc.html" xlink:title="com.sun.javadoc.RootDoc" target="_parent">
<polygon fill="none" stroke="black" points="40.3932,-1596 40.3932,-1637 146.393,-1637 146.393,-1596 40.3932,-1596"/>
<text text-anchor="start" x="67.8932" y="-1625.3" font-family="arial" font-size="9.00"> «interface» </text>
<text text-anchor="start" x="72.8932" y="-1612.8" font-family="arial" font-size="9.00"> RootDoc </text>
<text text-anchor="start" x="63.8932" y="-1602.4" font-family="arial" font-size="7.00"> com.sun.javadoc </text>
<polygon fill="none" stroke="black" points="40.3932,-1578 40.3932,-1596 146.393,-1596 146.393,-1578 40.3932,-1578"/>
<text text-anchor="start" x="44.3932" y="-1584.8" font-family="arial" font-size="9.00"> &#160;</text>
<polygon fill="none" stroke="black" points="40.3932,-1500 40.3932,-1578 146.393,-1578 146.393,-1500 40.3932,-1500"/>
<text text-anchor="start" x="44.3932" y="-1566.8" font-family="arial italic" font-size="9.00"> + options() </text>
<text text-anchor="start" x="44.3932" y="-1554.8" font-family="arial italic" font-size="9.00"> + specifiedPackages() </text>
<text text-anchor="start" x="44.3932" y="-1542.8" font-family="arial italic" font-size="9.00"> + specifiedClasses() </text>
<text text-anchor="start" x="44.3932" y="-1530.8" font-family="arial italic" font-size="9.00"> + classes() </text>
<text text-anchor="start" x="44.3932" y="-1518.8" font-family="arial italic" font-size="9.00"> + packageNamed() </text>
<text text-anchor="start" x="44.3932" y="-1506.8" font-family="arial italic" font-size="9.00"> + classNamed() </text>
</a>
</g>
<g><a xlink:href="http://docs.oracle.com/javase/7/docs/jdk/api/javadoc/doclet/com/sun/javadoc/RootDoc.html" xlink:title="&lt;TABLE&gt;">
</a>
</g>
</g>
<!-- c848&#45;&gt;c872 -->
<g id="edge5" class="edge"><title>c848:p&#45;&gt;c872:p</title>
<path fill="none" stroke="black" stroke-dasharray="5,2" d="M120.696,-1682.31C117.951,-1671.02 115.088,-1659.25 112.294,-1647.75"/>
<polygon fill="black" stroke="black" points="109.861,-1637.74 116.595,-1646.39 111.042,-1642.6 112.223,-1647.46 112.223,-1647.46 112.223,-1647.46 111.042,-1642.6 107.85,-1648.52 109.861,-1637.74 109.861,-1637.74"/>
</g>
<!-- c874 -->
<g id="node5" class="node"><title>c874</title>
<g id="a_node5"><a xlink:href="http://docs.oracle.com/javase/7/docs/jdk/api/javadoc/doclet/com/sun/javadoc/LanguageVersion.html" xlink:title="&lt;TABLE&gt;">
</a>
</g>
<g id="a_node5_4"><a xlink:href="http://docs.oracle.com/javase/7/docs/jdk/api/javadoc/doclet/com/sun/javadoc/LanguageVersion.html" xlink:title="com.sun.javadoc.LanguageVersion" target="_parent">
<polygon fill="none" stroke="black" points="218.393,-1548 218.393,-1589 306.393,-1589 306.393,-1548 218.393,-1548"/>
<text text-anchor="start" x="228.393" y="-1577.3" font-family="arial" font-size="9.00"> «enumeration» </text>
<text text-anchor="start" x="222.893" y="-1564.8" font-family="arial" font-size="9.00"> LanguageVersion </text>
<text text-anchor="start" x="232.893" y="-1554.4" font-family="arial" font-size="7.00"> com.sun.javadoc </text>
</a>
</g>
<g><a xlink:href="http://docs.oracle.com/javase/7/docs/jdk/api/javadoc/doclet/com/sun/javadoc/LanguageVersion.html" xlink:title="&lt;TABLE&gt;">
</a>
</g>
</g>
<!-- c848&#45;&gt;c874 -->
<g id="edge6" class="edge"><title>c848:p&#45;&gt;c874:p</title>
<path fill="none" stroke="black" stroke-dasharray="5,2" d="M184.829,-1682.31C205.071,-1653 227.556,-1620.44 243.082,-1597.96"/>
<polygon fill="black" stroke="black" points="248.876,-1589.57 246.896,-1600.36 246.035,-1593.69 243.193,-1597.8 243.193,-1597.8 243.193,-1597.8 246.035,-1593.69 239.49,-1595.24 248.876,-1589.57 248.876,-1589.57"/>
</g>
<!-- c872&#45;&gt;c842 -->
<g id="edge1" class="edge"><title>c872:p&#45;&gt;c842:p</title>
<path fill="none" stroke="black" stroke-dasharray="5,2" d="M90.269,-1490.12C89.8334,-1479.26 89.3685,-1467.67 88.8855,-1455.63"/>
<polygon fill="none" stroke="black" points="86.7792,-1490.44 90.6773,-1500.3 93.7736,-1490.16 86.7792,-1490.44"/>
</g>
</g>
</svg>
