<?xml version="1.0" encoding="UTF-8" standalone="no"?>
<!DOCTYPE svg PUBLIC "-//W3C//DTD SVG 1.1//EN"
 "http://www.w3.org/Graphics/SVG/1.1/DTD/svg11.dtd">
<!-- Generated by graphviz version 2.36.0 (20140111.2315)
 -->
<!-- Title: G Pages: 1 -->
<svg width="138pt" height="252pt"
 viewBox="0.00 0.00 138.00 252.00" xmlns="http://www.w3.org/2000/svg" xmlns:xlink="http://www.w3.org/1999/xlink">
<g id="graph0" class="graph" transform="scale(1 1) rotate(0) translate(4 248)">
<title>G</title>
<polygon fill="white" stroke="none" points="-4,4 -4,-248 134,-248 134,4 -4,4"/>
<!-- c879 -->
<g id="node1" class="node"><title>c879</title>
<g id="a_node1"><a xlink:href="./Version.html" xlink:title="&lt;TABLE&gt;">
</a>
</g>
<g id="a_node1_0"><a xlink:href="./Version.html" xlink:title="org.umlgraph.doclet.Version" target="_parent">
<polygon fill="lemonChiffon" stroke="none" points="42,-8.5 42,-27.5 88,-27.5 88,-8.5 42,-8.5"/>
<polygon fill="none" stroke="black" points="42,-8 42,-27 88,-27 88,-8 42,-8"/>
<text text-anchor="start" x="46.5" y="-15.3" font-family="arial" font-size="9.00"> Version </text>
</a>
</g>
<g><a xlink:href="./Version.html" xlink:title="&lt;TABLE&gt;">
</a>
</g>
</g>
<!-- c882 -->
<g id="node2" class="node"><title>c882</title>
<g id="a_node2"><a xlink:href="./UmlGraph.html" xlink:title="&lt;TABLE&gt;">
</a>
</g>
<g id="a_node2_1"><a xlink:href="./UmlGraph.html" xlink:title="org.umlgraph.doclet.UmlGraph" target="_parent">
<polygon fill="none" stroke="black" points="8,-220 8,-239 122,-239 122,-220 8,-220"/>
<text text-anchor="start" x="41" y="-227.3" font-family="arial" font-size="9.00"> UmlGraph </text>
<polygon fill="none" stroke="black" points="8,-202 8,-220 122,-220 122,-202 8,-202"/>
<text text-anchor="start" x="12" y="-208.8" font-family="arial" font-size="9.00"> &#160;</text>
<polygon fill="none" stroke="black" points="8,-76 8,-202 122,-202 122,-76 8,-76"/>
<text text-anchor="start" x="12" y="-190.8" font-family="arial" font-size="9.00"> + start() </text>
<text text-anchor="start" x="12" y="-178.8" font-family="arial" font-size="9.00"> + main() </text>
<text text-anchor="start" x="12" y="-166.8" font-family="arial" font-size="9.00"> + getCommentOptions() </text>
<text text-anchor="start" x="12" y="-154.8" font-family="arial" font-size="9.00"> + buildOptions() </text>
<text text-anchor="start" x="12" y="-142.8" font-family="arial" font-size="9.00"> &#45; findClass() </text>
<text text-anchor="start" x="12" y="-130.8" font-family="arial" font-size="9.00"> + buildGraph() </text>
<text text-anchor="start" x="12" y="-118.8" font-family="arial" font-size="9.00"> + buildViews() </text>
<text text-anchor="start" x="12" y="-106.8" font-family="arial" font-size="9.00"> &#45; buildView() </text>
<text text-anchor="start" x="12" y="-94.8" font-family="arial" font-size="9.00"> + optionLength() </text>
<text text-anchor="start" x="12" y="-82.8" font-family="arial" font-size="9.00"> + languageVersion() </text>
</a>
</g>
<g><a xlink:href="./UmlGraph.html" xlink:title="&lt;TABLE&gt;">
</a>
</g>
</g>
<!-- c882&#45;&gt;c879 -->
<g id="edge1" class="edge"><title>c882:p&#45;&gt;c879:p</title>
<path fill="none" stroke="black" stroke-dasharray="5,2" d="M65,-76.3255C65,-61.9264 65,-48.2258 65,-37.8312"/>
<polygon fill="black" stroke="black" points="65,-27.639 69.5001,-37.639 65,-32.639 65.0001,-37.639 65.0001,-37.639 65.0001,-37.639 65,-32.639 60.5001,-37.6391 65,-27.639 65,-27.639"/>
</g>
</g>
</svg>
