<?xml version="1.0" encoding="UTF-8" standalone="no"?>
<!DOCTYPE svg PUBLIC "-//W3C//DTD SVG 1.1//EN"
 "http://www.w3.org/Graphics/SVG/1.1/DTD/svg11.dtd">
<!-- Generated by graphviz version 2.36.0 (20140111.2315)
 -->
<!-- Title: G Pages: 1 -->
<svg width="186pt" height="630pt"
 viewBox="0.00 0.00 186.00 630.00" xmlns="http://www.w3.org/2000/svg" xmlns:xlink="http://www.w3.org/1999/xlink">
<g id="graph0" class="graph" transform="scale(1 1) rotate(0) translate(4 626)">
<title>G</title>
<polygon fill="white" stroke="none" points="-4,4 -4,-626 182,-626 182,4 -4,4"/>
<!-- c939 -->
<g id="node1" class="node"><title>c939</title>
<g id="a_node1"><a xlink:href="./Visibility.html" xlink:title="&lt;TABLE&gt;">
</a>
</g>
<g id="a_node1_0"><a xlink:href="./Visibility.html" xlink:title="org.umlgraph.doclet.Visibility" target="_parent">
<polygon fill="lemonChiffon" stroke="none" points="50.5,-258.5 50.5,-289.5 127.5,-289.5 127.5,-258.5 50.5,-258.5"/>
<polygon fill="none" stroke="black" points="51,-258 51,-289 128,-289 128,-258 51,-258"/>
<text text-anchor="start" x="55.5" y="-277.3" font-family="arial" font-size="9.00"> «enumeration» </text>
<text text-anchor="start" x="70.5" y="-264.8" font-family="arial" font-size="9.00"> Visibility </text>
</a>
</g>
<g><a xlink:href="./Visibility.html" xlink:title="&lt;TABLE&gt;">
</a>
</g>
</g>
<!-- c967 -->
<g id="node3" class="node"><title>c967</title>
<g id="a_node3"><a xlink:href="http://docs.oracle.com/javase/7/docs/jdk/api/javadoc/doclet/com/sun/javadoc/ProgramElementDoc.html" xlink:title="&lt;TABLE&gt;">
</a>
</g>
<g id="a_node3_1"><a xlink:href="http://docs.oracle.com/javase/7/docs/jdk/api/javadoc/doclet/com/sun/javadoc/ProgramElementDoc.html" xlink:title="com.sun.javadoc.ProgramElementDoc" target="_parent">
<polygon fill="none" stroke="black" points="36,-172 36,-213 143,-213 143,-172 36,-172"/>
<text text-anchor="start" x="64" y="-201.3" font-family="arial" font-size="9.00"> «interface» </text>
<text text-anchor="start" x="43.5" y="-188.8" font-family="arial" font-size="9.00"> ProgramElementDoc </text>
<text text-anchor="start" x="60" y="-178.4" font-family="arial" font-size="7.00"> com.sun.javadoc </text>
<polygon fill="none" stroke="black" points="36,-154 36,-172 143,-172 143,-154 36,-154"/>
<text text-anchor="start" x="40" y="-160.8" font-family="arial" font-size="9.00"> &#160;</text>
<polygon fill="none" stroke="black" points="36,-4 36,-154 143,-154 143,-4 36,-4"/>
<text text-anchor="start" x="40" y="-142.8" font-family="arial italic" font-size="9.00"> + containingClass() </text>
<text text-anchor="start" x="40" y="-130.8" font-family="arial italic" font-size="9.00"> + containingPackage() </text>
<text text-anchor="start" x="40" y="-118.8" font-family="arial italic" font-size="9.00"> + qualifiedName() </text>
<text text-anchor="start" x="40" y="-106.8" font-family="arial italic" font-size="9.00"> + modifierSpecifier() </text>
<text text-anchor="start" x="40" y="-94.8" font-family="arial italic" font-size="9.00"> + modifiers() </text>
<text text-anchor="start" x="40" y="-82.8" font-family="arial italic" font-size="9.00"> + annotations() </text>
<text text-anchor="start" x="40" y="-70.8" font-family="arial italic" font-size="9.00"> + isPublic() </text>
<text text-anchor="start" x="40" y="-58.8" font-family="arial italic" font-size="9.00"> + isProtected() </text>
<text text-anchor="start" x="40" y="-46.8" font-family="arial italic" font-size="9.00"> + isPrivate() </text>
<text text-anchor="start" x="40" y="-34.8" font-family="arial italic" font-size="9.00"> + isPackagePrivate() </text>
<text text-anchor="start" x="40" y="-22.8" font-family="arial italic" font-size="9.00"> + isStatic() </text>
<text text-anchor="start" x="40" y="-10.8" font-family="arial italic" font-size="9.00"> + isFinal() </text>
</a>
</g>
<g><a xlink:href="http://docs.oracle.com/javase/7/docs/jdk/api/javadoc/doclet/com/sun/javadoc/ProgramElementDoc.html" xlink:title="&lt;TABLE&gt;">
</a>
</g>
</g>
<!-- c939&#45;&gt;c967 -->
<g id="edge2" class="edge"><title>c939:p&#45;&gt;c967:p</title>
<path fill="none" stroke="black" stroke-dasharray="5,2" d="M89,-258.247C89,-249.419 89,-237.298 89,-223.762"/>
<polygon fill="black" stroke="black" points="89,-213.681 93.5001,-223.681 89,-218.681 89.0001,-223.681 89.0001,-223.681 89.0001,-223.681 89,-218.681 84.5001,-223.681 89,-213.681 89,-213.681"/>
</g>
<!-- c954 -->
<g id="node2" class="node"><title>c954</title>
<g id="a_node2"><a xlink:href="./Options.html" xlink:title="&lt;TABLE&gt;">
</a>
</g>
<g id="a_node2_2"><a xlink:href="./Options.html" xlink:title="org.umlgraph.doclet.Options" target="_parent">
<polygon fill="none" stroke="black" points="8,-598 8,-617 171,-617 171,-598 8,-598"/>
<text text-anchor="start" x="71" y="-605.3" font-family="arial" font-size="9.00"> Options </text>
<polygon fill="none" stroke="black" points="8,-580 8,-598 171,-598 171,-580 8,-580"/>
<text text-anchor="start" x="12" y="-586.8" font-family="arial" font-size="9.00"> &#160;</text>
<polygon fill="none" stroke="black" points="8,-334 8,-580 171,-580 171,-334 8,-334"/>
<text text-anchor="start" x="12" y="-568.8" font-family="arial" font-size="9.00"> + clone() </text>
<text text-anchor="start" x="12" y="-556.8" font-family="arial" font-size="9.00"> + setAll() </text>
<text text-anchor="start" x="12" y="-544.8" font-family="arial" font-size="9.00"> + optionLength() </text>
<text text-anchor="start" x="12" y="-532.8" font-family="arial" font-size="9.00"> ~ setOption() </text>
<text text-anchor="start" x="12" y="-520.8" font-family="arial" font-size="9.00"> &#45; addApiDocRoots() </text>
<text text-anchor="start" x="12" y="-508.8" font-family="arial" font-size="9.00"> &#45; addApiDocRootsOffline() </text>
<text text-anchor="start" x="12" y="-496.8" font-family="arial" font-size="9.00"> ~ setApiDocMapFile() </text>
<text text-anchor="start" x="12" y="-484.8" font-family="arial" font-size="9.00"> + getApiDocRoot() </text>
<text text-anchor="start" x="12" y="-472.8" font-family="arial" font-size="9.00"> &#45; fixApiDocRoot() </text>
<text text-anchor="start" x="12" y="-460.8" font-family="arial" font-size="9.00"> + setOptions() </text>
<text text-anchor="start" x="12" y="-448.8" font-family="arial" font-size="9.00"> + setOptions() </text>
<text text-anchor="start" x="12" y="-436.8" font-family="arial" font-size="9.00"> + matchesHideExpression() </text>
<text text-anchor="start" x="12" y="-424.8" font-family="arial" font-size="9.00"> + matchesCollPackageExpression() </text>
<text text-anchor="start" x="12" y="-412.8" font-family="arial" font-size="9.00"> + getOptionsFor() </text>
<text text-anchor="start" x="12" y="-400.8" font-family="arial" font-size="9.00"> + getOptionsFor() </text>
<text text-anchor="start" x="12" y="-388.8" font-family="arial" font-size="9.00"> + getGlobalOptions() </text>
<text text-anchor="start" x="12" y="-376.8" font-family="arial" font-size="9.00"> + overrideForClass() </text>
<text text-anchor="start" x="12" y="-364.8" font-family="arial" font-size="9.00"> + overrideForClass() </text>
<text text-anchor="start" x="12" y="-352.8" font-family="arial" font-size="9.00"> + getDisplayName() </text>
<text text-anchor="start" x="12" y="-340.8" font-family="arial" font-size="9.00"> + toString() </text>
</a>
</g>
<g><a xlink:href="./Options.html" xlink:title="&lt;TABLE&gt;">
</a>
</g>
</g>
<!-- c954&#45;&gt;c939 -->
<g id="edge1" class="edge"><title>c954:p&#45;&gt;c939:p</title>
<path fill="none" stroke="black" d="M89,-334.465C89,-321.542 89,-309.707 89,-300.055"/>
<polygon fill="black" stroke="black" points="89,-289.795 93.5001,-299.795 89,-294.795 89.0001,-299.795 89.0001,-299.795 89.0001,-299.795 89,-294.795 84.5001,-299.795 89,-289.795 89,-289.795"/>
</g>
</g>
</svg>
